<svg xmlns="http://www.w3.org/2000/svg" viewBox="-70.00 -70.00 140.00 140.00" width="140" height="140" data-orb-view="vertex-5" data-projection="spherical">
  <rect x="-70.00" y="-70.00" width="140.00" height="140.00" fill="#dfe3e5" pointer-events="none" />
  <path d="M0.0000,0.0000 L5.9563,-4.3275 L11.8226,-8.5896 L17.5102,-12.7219 L22.9331,-16.6619 L28.0094,-20.3500 L32.6624,-23.7306 L36.8218,-26.7526 L40.4246,-29.3702 L43.4164,-31.5439 L38.1495,-36.3722 L32.3059,-40.6508 L25.9741,-44.3151 L19.2498,-47.3095 L12.2345,-49.5889 L5.0342,-51.1189 L-2.2421,-51.8762 L-9.4845,-51.8494 L-16.5836,-51.0390 L-15.4408,-47.5219 L-14.0647,-43.2866 L-12.4759,-38.3970 L-10.6987,-32.9271 L-8.7597,-26.9595 L-6.6883,-20.5844 L-4.5158,-13.8983 L-2.2751,-7.0020 L0.0000,0.0000 Z" fill="none" stroke="#c8c8c8" stroke-width="0.5" data-orb-scaffold="true" pointer-events="none" />
  <path d="M0.0000,0.0000 L-2.2751,-7.0020 L-4.5158,-13.8983 L-6.6883,-20.5844 L-8.7597,-26.9595 L-10.6987,-32.9271 L-12.4759,-38.3970 L-14.0647,-43.2866 L-15.4408,-47.5219 L-16.5836,-51.0390 L-22.8032,-47.5219 L-28.6782,-43.2866 L-34.1197,-38.3970 L-39.0455,-32.9271 L-43.3812,-26.9595 L-47.0613,-20.5844 L-50.0300,-13.8983 L-52.2426,-7.0020 L-53.6656,0.0000 L-49.9675,0.0000 L-45.5142,0.0000 L-40.3730,0.0000 L-34.6216,0.0000 L-28.3469,0.0000 L-21.6437,0.0000 L-14.6135,0.0000 L-7.3624,0.0000 L0.0000,0.0000 Z" fill="none" stroke="#c8c8c8" stroke-width="0.5" data-orb-scaffold="true" pointer-events="none" />
  <path d="M0.0000,0.0000 L-7.3624,0.0000 L-14.6135,0.0000 L-21.6437,0.0000 L-28.3469,0.0000 L-34.6216,0.0000 L-40.3730,0.0000 L-45.5142,0.0000 L-49.9675,0.0000 L-53.6656,0.0000 L-52.2426,7.0020 L-50.0300,13.8983 L-47.0613,20.5844 L-43.3812,26.9595 L-39.0455,32.9271 L-34.1197,38.3970 L-28.6782,43.2866 L-22.8032,47.5219 L-16.5836,51.0390 L-15.4408,47.5219 L-14.0647,43.2866 L-12.4759,38.3970 L-10.6987,32.9271 L-8.7597,26.9595 L-6.6883,20.5844 L-4.5158,13.8983 L-2.2751,7.0020 L0.0000,0.0000 Z" fill="none" stroke="#c8c8c8" stroke-width="0.5" data-orb-scaffold="true" pointer-events="none" />
  <path d="M0.0000,0.0000 L-2.2751,7.0020 L-4.5158,13.8983 L-6.6883,20.5844 L-8.7597,26.9595 L-10.6987,32.9271 L-12.4759,38.3970 L-14.0647,43.2866 L-15.4408,47.5219 L-16.5836,51.0390 L-9.4845,51.8494 L-2.2421,51.8762 L5.0342,51.1189 L12.2345,49.5889 L19.2498,47.3095 L25.9741,44.3151 L32.3059,40.6508 L38.1495,36.3722 L43.4164,31.5439 L40.4246,29.3702 L36.8218,26.7526 L32.6624,23.7306 L28.0094,20.3500 L22.9331,16.6619 L17.5102,12.7219 L11.8226,8.5896 L5.9563,4.3275 L0.0000,0.0000 Z" fill="none" stroke="#c8c8c8" stroke-width="0.5" data-orb-scaffold="true" pointer-events="none" />
  <path d="M0.0000,0.0000 L5.9563,4.3275 L11.8226,8.5896 L17.5102,12.7219 L22.9331,16.6619 L28.0094,20.3500 L32.6624,23.7306 L36.8218,26.7526 L40.4246,29.3702 L43.4164,31.5439 L46.3809,25.0427 L48.6443,18.1630 L50.1726,11.0088 L50.9425,3.6882 L50.9425,-3.6882 L50.1726,-11.0088 L48.6443,-18.1630 L46.3809,-25.0427 L43.4164,-31.5439 L40.4246,-29.3702 L36.8218,-26.7526 L32.6624,-23.7306 L28.0094,-20.3500 L22.9331,-16.6619 L17.5102,-12.7219 L11.8226,-8.5896 L5.9563,-4.3275 L0.0000,0.0000 Z" fill="none" stroke="#c8c8c8" stroke-width="0.5" data-orb-scaffold="true" pointer-events="none" />
  <path d="M-53.6656,0.0000 L-52.2426,-7.0020 L-50.0300,-13.8983 L-47.0613,-20.5844 L-43.3812,-26.9595 L-39.0455,-32.9271 L-34.1197,-38.3970 L-28.6782,-43.2866 L-22.8032,-47.5219 L-16.5836,-51.0390 L-21.3971,-51.8494 L-25.8872,-51.8762 L-29.9861,-51.1189 L-33.6318,-49.5889 L-36.7691,-47.3095 L-39.3507,-44.3151 L-41.3376,-40.6508 L-42.6997,-36.3722 L-43.4164,-31.5439 L-47.7870,-29.3702 L-51.4353,-26.7526 L-54.3062,-23.7306 L-56.3563,-20.3500 L-57.5547,-16.6619 L-57.8831,-12.7219 L-57.3368,-8.5896 L-55.9238,-4.3275 L-53.6656,0.0000 Z" fill="none" stroke="#c8c8c8" stroke-width="0.5" data-orb-scaffold="true" pointer-events="none" />
  <path d="M-16.5836,-51.0390 L-9.4845,-51.8494 L-2.2421,-51.8762 L5.0342,-51.1189 L12.2345,-49.5889 L19.2498,-47.3095 L25.9741,-44.3151 L32.3059,-40.6508 L38.1495,-36.3722 L43.4164,-31.5439 L42.6997,-36.3722 L41.3376,-40.6508 L39.3507,-44.3151 L36.7691,-47.3095 L33.6318,-49.5889 L29.9861,-51.1189 L25.8872,-51.8762 L21.3971,-51.8494 L16.5836,-51.0390 L13.1657,-54.5240 L9.5488,-57.1848 L5.7876,-58.9814 L1.9390,-59.8865 L-1.9390,-59.8865 L-5.7876,-58.9814 L-9.5488,-57.1848 L-13.1657,-54.5240 L-16.5836,-51.0390 Z" fill="none" stroke="#c8c8c8" stroke-width="0.5" data-orb-scaffold="true" pointer-events="none" />
  <path d="M43.4164,-31.5439 L46.3809,-25.0427 L48.6443,-18.1630 L50.1726,-11.0088 L50.9425,-3.6882 L50.9425,3.6882 L50.1726,11.0088 L48.6443,18.1630 L46.3809,25.0427 L43.4164,31.5439 L47.7870,29.3702 L51.4353,26.7526 L54.3062,23.7306 L56.3563,20.3500 L57.5547,16.6619 L57.8831,12.7219 L57.3368,8.5896 L55.9238,4.3275 L53.6656,0.0000 L55.9238,-4.3275 L57.3368,-8.5896 L57.8831,-12.7219 L57.5547,-16.6619 L56.3563,-20.3500 L54.3062,-23.7306 L51.4353,-26.7526 L47.7870,-29.3702 L43.4164,-31.5439 Z" fill="none" stroke="#c8c8c8" stroke-width="0.5" data-orb-scaffold="true" pointer-events="none" />
  <path d="M43.4164,31.5439 L38.1495,36.3722 L32.3059,40.6508 L25.9741,44.3151 L19.2498,47.3095 L12.2345,49.5889 L5.0342,51.1189 L-2.2421,51.8762 L-9.4845,51.8494 L-16.5836,51.0390 L-13.1657,54.5240 L-9.5488,57.1848 L-5.7876,58.9814 L-1.9390,59.8865 L1.9390,59.8865 L5.7876,58.9814 L9.5488,57.1848 L13.1657,54.5240 L16.5836,51.0390 L21.3971,51.8494 L25.8872,51.8762 L29.9861,51.1189 L33.6318,49.5889 L36.7691,47.3095 L39.3507,44.3151 L41.3376,40.6508 L42.6997,36.3722 L43.4164,31.5439 Z" fill="none" stroke="#c8c8c8" stroke-width="0.5" data-orb-scaffold="true" pointer-events="none" />
  <path d="M-16.5836,51.0390 L-22.8032,47.5219 L-28.6782,43.2866 L-34.1197,38.3970 L-39.0455,32.9271 L-43.3812,26.9595 L-47.0613,20.5844 L-50.0300,13.8983 L-52.2426,7.0020 L-53.6656,0.0000 L-55.9238,4.3275 L-57.3368,8.5896 L-57.8831,12.7219 L-57.5547,16.6619 L-56.3563,20.3500 L-54.3062,23.7306 L-51.4353,26.7526 L-47.7870,29.3702 L-43.4164,31.5439 L-42.6997,36.3722 L-41.3376,40.6508 L-39.3507,44.3151 L-36.7691,47.3095 L-33.6318,49.5889 L-29.9861,51.1189 L-25.8872,51.8762 L-21.3971,51.8494 L-16.5836,51.0390 Z" fill="none" stroke="#c8c8c8" stroke-width="0.5" data-orb-scaffold="true" pointer-events="none" />
  <circle cx="0" cy="0" r="62.60" fill="none" stroke="#333333" stroke-width="0.4" data-orb-silhouette="true" />
  <clipPath id="orb-limb"><circle cx="0" cy="0" r="62.60" /></clipPath>
  <g clip-path="url(#orb-limb)">
  <path d="M-44.8013,-30.1130 L-39.0876,-29.9760 L-39.9168,-27.4240 L-45.6304,-27.5611 L-44.8013,-30.1130 Z" fill="#8a8a8a" stroke="#333333" stroke-width="0.4" data-face-index="0" data-sides="4" data-orb-view="vertex-5" data-projection="spherical" data-strand="0" data-ribbon-depth="under" data-ribbon-trimmed="false" />
  <path d="M-39.0876,-29.9760 L-36.5136,-32.1201 L-37.3428,-29.5682 L-39.9168,-27.4240 L-39.0876,-29.9760 Z" fill="#8a8a8a" stroke="#333333" stroke-width="0.4" data-face-index="1" data-sides="4" data-orb-view="vertex-5" data-projection="spherical" data-strand="0" data-ribbon-depth="under" data-ribbon-trimmed="false" />
  <path d="M-39.6606,26.3781 L-38.4168,29.4886 L-40.5876,27.9114 L-41.8314,24.8009 L-39.6606,26.3781 Z" fill="#c9782e" stroke="#333333" stroke-width="0.4" data-face-index="2" data-sides="4" data-orb-view="vertex-5" data-projection="spherical" data-strand="3" data-ribbon-depth="under" data-ribbon-trimmed="false" data-orb-highlight="true" />
  <path d="M-38.4168,29.4886 L-40.3127,34.8803 L-42.4835,33.3031 L-40.5876,27.9114 L-38.4168,29.4886 Z" fill="#c9782e" stroke="#333333" stroke-width="0.4" data-face-index="3" data-sides="4" data-orb-view="vertex-5" data-projection="spherical" data-strand="3" data-ribbon-depth="under" data-ribbon-trimmed="false" data-orb-highlight="true" />
  <path d="M16.5814,-44.6522 L14.7800,-45.7869 L17.4632,-45.7869 L19.2647,-44.6522 L16.5814,-44.6522 Z" fill="#8a8a8a" stroke="#333333" stroke-width="0.4" data-face-index="4" data-sides="4" data-orb-view="vertex-5" data-projection="spherical" data-strand="2" data-ribbon-depth="under" data-ribbon-trimmed="true" />
  <path d="M13.1508,-48.4335 L12.1115,-51.9140 L14.7948,-51.9140 L15.8341,-48.4335 L13.1508,-48.4335 Z" fill="#8a8a8a" stroke="#333333" stroke-width="0.4" data-face-index="5" data-sides="4" data-orb-view="vertex-5" data-projection="spherical" data-strand="2" data-ribbon-depth="under" data-ribbon-trimmed="true" />
  <path d="M48.4199,-4.5235 L53.6653,-1.2760 L52.8362,1.2760 L47.5907,-1.9716 L48.4199,-4.5235 Z" fill="#8a8a8a" stroke="#333333" stroke-width="0.4" data-face-index="6" data-sides="4" data-orb-view="vertex-5" data-projection="spherical" data-strand="0" data-ribbon-depth="over" data-ribbon-trimmed="false" />
  <path d="M53.6653,-1.2760 L53.9450,1.9716 L53.1158,4.5235 L52.8362,1.2760 L53.6653,-1.2760 Z" fill="#8a8a8a" stroke="#333333" stroke-width="0.4" data-face-index="7" data-sides="4" data-orb-view="vertex-5" data-projection="spherical" data-strand="0" data-ribbon-depth="over" data-ribbon-trimmed="false" />
  <path d="M12.1115,51.9140 L15.1137,50.6445 L17.7970,50.6445 L14.7948,51.9140 L12.1115,51.9140 Z" fill="#8a8a8a" stroke="#333333" stroke-width="0.4" data-face-index="8" data-sides="4" data-orb-view="vertex-5" data-projection="spherical" data-strand="2" data-ribbon-depth="over" data-ribbon-trimmed="false" />
  <path d="M15.1137,50.6445 L16.5814,44.6522 L19.2647,44.6522 L17.7970,50.6445 L15.1137,50.6445 Z" fill="#8a8a8a" stroke="#333333" stroke-width="0.4" data-face-index="9" data-sides="4" data-orb-view="vertex-5" data-projection="spherical" data-strand="2" data-ribbon-depth="over" data-ribbon-trimmed="false" />
  <path d="M20.7158,-49.1183 L17.5408,-49.8559 L15.3700,-51.4331 L18.5450,-50.6955 L20.7158,-49.1183 Z" fill="#c9782e" stroke="#333333" stroke-width="0.4" data-face-index="10" data-sides="4" data-orb-view="vertex-5" data-projection="spherical" data-strand="3" data-ribbon-depth="over" data-ribbon-trimmed="false" data-orb-highlight="true" />
  <path d="M17.5408,-49.8559 L12.8312,-45.8707 L10.6604,-47.4479 L15.3700,-51.4331 L17.5408,-49.8559 Z" fill="#c9782e" stroke="#333333" stroke-width="0.4" data-face-index="11" data-sides="4" data-orb-view="vertex-5" data-projection="spherical" data-strand="3" data-ribbon-depth="over" data-ribbon-trimmed="false" data-orb-highlight="true" />
  <path d="M25.2229,-37.8396 L33.1084,-34.4275 L28.4453,-35.0153 L24.6048,-35.9374 L25.2229,-37.8396 Z" fill="#8a8a8a" stroke="#333333" stroke-width="0.4" data-face-index="12" data-sides="4" data-orb-view="vertex-5" data-projection="spherical" data-strand="1" data-ribbon-depth="under" data-ribbon-trimmed="false" />
  <path d="M33.1084,-34.4275 L28.7415,-32.0404 L26.7819,-34.2674 L28.4453,-35.0153 L33.1084,-34.4275 Z" fill="#8a8a8a" stroke="#333333" stroke-width="0.4" data-face-index="13" data-sides="4" data-orb-view="vertex-5" data-projection="spherical" data-strand="1" data-ribbon-depth="under" data-ribbon-trimmed="false" />
  <path d="M-4.2935,-40.9853 L-6.5493,-47.3130 L-2.4313,-45.0476 L-1.3990,-41.6351 L-4.2935,-40.9853 Z" fill="#8a8a8a" stroke="#333333" stroke-width="0.4" data-face-index="14" data-sides="4" data-orb-view="vertex-5" data-projection="spherical" data-strand="1" data-ribbon-depth="under" data-ribbon-trimmed="false" />
  <path d="M-6.5493,-47.3130 L1.9034,-47.4089 L1.2854,-45.5068 L-2.4313,-45.0476 L-6.5493,-47.3130 Z" fill="#8a8a8a" stroke="#333333" stroke-width="0.4" data-face-index="15" data-sides="4" data-orb-view="vertex-5" data-projection="spherical" data-strand="1" data-ribbon-depth="under" data-ribbon-trimmed="false" />
  <path d="M14.1287,-43.4836 L17.5061,-40.8936 L16.8881,-38.9914 L13.5106,-41.5815 L14.1287,-43.4836 Z" fill="#8a8a8a" stroke="#333333" stroke-width="0.4" data-face-index="16" data-sides="4" data-orb-view="vertex-5" data-projection="spherical" data-strand="1" data-ribbon-depth="under" data-ribbon-trimmed="true" />
  <path d="M21.6402,-38.8456 L25.2229,-37.8396 L24.6048,-35.9374 L21.0222,-36.9435 L21.6402,-38.8456 Z" fill="#8a8a8a" stroke="#333333" stroke-width="0.4" data-face-index="17" data-sides="4" data-orb-view="vertex-5" data-projection="spherical" data-strand="1" data-ribbon-depth="under" data-ribbon-trimmed="true" />
  <path d="M16.5814,44.6522 L17.6805,38.5430 L20.3637,38.5430 L19.2647,44.6522 L16.5814,44.6522 Z" fill="#8a8a8a" stroke="#333333" stroke-width="0.4" data-face-index="18" data-sides="4" data-orb-view="vertex-5" data-projection="spherical" data-strand="2" data-ribbon-depth="under" data-ribbon-trimmed="false" />
  <path d="M17.6805,38.5430 L20.3666,35.2671 L23.0498,35.2671 L20.3637,38.5430 L17.6805,38.5430 Z" fill="#8a8a8a" stroke="#333333" stroke-width="0.4" data-face-index="19" data-sides="4" data-orb-view="vertex-5" data-projection="spherical" data-strand="2" data-ribbon-depth="under" data-ribbon-trimmed="false" />
  <path d="M40.6638,-11.0236 L42.9493,-7.4566 L42.1201,-4.9047 L39.8346,-8.4716 L40.6638,-11.0236 Z" fill="#8a8a8a" stroke="#333333" stroke-width="0.4" data-face-index="20" data-sides="4" data-orb-view="vertex-5" data-projection="spherical" data-strand="0" data-ribbon-depth="under" data-ribbon-trimmed="false" />
  <path d="M42.9493,-7.4566 L48.4199,-4.5235 L47.5907,-1.9716 L42.1201,-4.9047 L42.9493,-7.4566 Z" fill="#8a8a8a" stroke="#333333" stroke-width="0.4" data-face-index="21" data-sides="4" data-orb-view="vertex-5" data-projection="spherical" data-strand="0" data-ribbon-depth="under" data-ribbon-trimmed="false" />
  <path d="M12.8312,-45.8707 L9.9840,-43.1401 L7.8132,-44.7173 L10.6604,-47.4479 L12.8312,-45.8707 Z" fill="#c9782e" stroke="#333333" stroke-width="0.4" data-face-index="22" data-sides="4" data-orb-view="vertex-5" data-projection="spherical" data-strand="3" data-ribbon-depth="under" data-ribbon-trimmed="true" data-orb-highlight="true" />
  <path d="M6.9134,-41.1984 L4.2526,-40.5029 L2.0818,-42.0801 L4.7426,-42.7756 L6.9134,-41.1984 Z" fill="#c9782e" stroke="#333333" stroke-width="0.4" data-face-index="23" data-sides="4" data-orb-view="vertex-5" data-projection="spherical" data-strand="3" data-ribbon-depth="under" data-ribbon-trimmed="true" data-orb-highlight="true" />
  <path d="M-36.5136,-32.1201 L-33.1521,-33.9954 L-33.9813,-31.4434 L-37.3428,-29.5682 L-36.5136,-32.1201 Z" fill="#8a8a8a" stroke="#333333" stroke-width="0.4" data-face-index="24" data-sides="4" data-orb-view="vertex-5" data-projection="spherical" data-strand="0" data-ribbon-depth="over" data-ribbon-trimmed="false" />
  <path d="M-33.1521,-33.9954 L-26.4182,-32.8198 L-27.2474,-30.2679 L-33.9813,-31.4434 L-33.1521,-33.9954 Z" fill="#8a8a8a" stroke="#333333" stroke-width="0.4" data-face-index="25" data-sides="4" data-orb-view="vertex-5" data-projection="spherical" data-strand="0" data-ribbon-depth="over" data-ribbon-trimmed="false" />
  <path d="M1.9034,-47.4089 L8.2330,-47.1516 L7.6150,-45.2495 L1.2854,-45.5068 L1.9034,-47.4089 Z" fill="#8a8a8a" stroke="#333333" stroke-width="0.4" data-face-index="26" data-sides="4" data-orb-view="vertex-5" data-projection="spherical" data-strand="1" data-ribbon-depth="over" data-ribbon-trimmed="false" />
  <path d="M8.2330,-47.1516 L14.1287,-43.4836 L13.5106,-41.5815 L7.6150,-45.2495 L8.2330,-47.1516 Z" fill="#8a8a8a" stroke="#333333" stroke-width="0.4" data-face-index="27" data-sides="4" data-orb-view="vertex-5" data-projection="spherical" data-strand="1" data-ribbon-depth="over" data-ribbon-trimmed="false" />
  <path d="M20.3666,-35.2671 L19.4037,-42.0347 L22.0870,-42.0347 L23.0498,-35.2671 L20.3666,-35.2671 Z" fill="#8a8a8a" stroke="#333333" stroke-width="0.4" data-face-index="28" data-sides="4" data-orb-view="vertex-5" data-projection="spherical" data-strand="2" data-ribbon-depth="over" data-ribbon-trimmed="false" />
  <path d="M19.4037,-42.0347 L16.5814,-44.6522 L19.2647,-44.6522 L22.0870,-42.0347 L19.4037,-42.0347 Z" fill="#8a8a8a" stroke="#333333" stroke-width="0.4" data-face-index="29" data-sides="4" data-orb-view="vertex-5" data-projection="spherical" data-strand="2" data-ribbon-depth="over" data-ribbon-trimmed="false" />
  <path d="M-37.2064,16.5605 L-40.4053,22.6015 L-42.5761,21.0244 L-39.3772,14.9833 L-37.2064,16.5605 Z" fill="#c9782e" stroke="#333333" stroke-width="0.4" data-face-index="30" data-sides="4" data-orb-view="vertex-5" data-projection="spherical" data-strand="3" data-ribbon-depth="over" data-ribbon-trimmed="false" data-orb-highlight="true" />
  <path d="M-40.4053,22.6015 L-39.6606,26.3781 L-41.8314,24.8009 L-42.5761,21.0244 L-40.4053,22.6015 Z" fill="#c9782e" stroke="#333333" stroke-width="0.4" data-face-index="31" data-sides="4" data-orb-view="vertex-5" data-projection="spherical" data-strand="3" data-ribbon-depth="over" data-ribbon-trimmed="false" data-orb-highlight="true" />
  <path d="M-1.0440,-32.4600 L-2.1115,-34.6655 L0.7829,-35.3154 L1.8505,-33.1099 L-1.0440,-32.4600 Z" fill="#8a8a8a" stroke="#333333" stroke-width="0.4" data-face-index="32" data-sides="4" data-orb-view="vertex-5" data-projection="spherical" data-strand="1" data-ribbon-depth="under" data-ribbon-trimmed="true" />
  <path d="M-3.3174,-37.8671 L-4.2935,-40.9853 L-1.3990,-41.6351 L-0.4230,-38.5169 L-3.3174,-37.8671 Z" fill="#8a8a8a" stroke="#333333" stroke-width="0.4" data-face-index="33" data-sides="4" data-orb-view="vertex-5" data-projection="spherical" data-strand="1" data-ribbon-depth="under" data-ribbon-trimmed="true" />
  <path d="M-26.4182,-32.8198 L-19.8486,-31.2775 L-20.6778,-28.7255 L-27.2474,-30.2679 L-26.4182,-32.8198 Z" fill="#8a8a8a" stroke="#333333" stroke-width="0.4" data-face-index="34" data-sides="4" data-orb-view="vertex-5" data-projection="spherical" data-strand="0" data-ribbon-depth="under" data-ribbon-trimmed="false" />
  <path d="M-19.8486,-31.2775 L-15.1324,-32.1201 L-15.9615,-29.5682 L-20.6778,-28.7255 L-19.8486,-31.2775 Z" fill="#8a8a8a" stroke="#333333" stroke-width="0.4" data-face-index="35" data-sides="4" data-orb-view="vertex-5" data-projection="spherical" data-strand="0" data-ribbon-depth="under" data-ribbon-trimmed="false" />
  <path d="M23.1886,-24.3174 L21.7531,-27.0026 L24.4363,-27.0026 L25.8719,-24.3174 L23.1886,-24.3174 Z" fill="#8a8a8a" stroke="#333333" stroke-width="0.4" data-face-index="36" data-sides="4" data-orb-view="vertex-5" data-projection="spherical" data-strand="2" data-ribbon-depth="under" data-ribbon-trimmed="true" />
  <path d="M20.7322,-30.9014 L20.3666,-35.2671 L23.0498,-35.2671 L23.4155,-30.9014 L20.7322,-30.9014 Z" fill="#8a8a8a" stroke="#333333" stroke-width="0.4" data-face-index="37" data-sides="4" data-orb-view="vertex-5" data-projection="spherical" data-strand="2" data-ribbon-depth="under" data-ribbon-trimmed="true" />
  <path d="M-33.0534,6.0433 L-33.7094,10.7891 L-35.8802,9.2119 L-35.2242,4.4661 L-33.0534,6.0433 Z" fill="#c9782e" stroke="#333333" stroke-width="0.4" data-face-index="38" data-sides="4" data-orb-view="vertex-5" data-projection="spherical" data-strand="3" data-ribbon-depth="under" data-ribbon-trimmed="false" data-orb-highlight="true" />
  <path d="M-33.7094,10.7891 L-37.2064,16.5605 L-39.3772,14.9833 L-35.8802,9.2119 L-33.7094,10.7891 Z" fill="#c9782e" stroke="#333333" stroke-width="0.4" data-face-index="39" data-sides="4" data-orb-view="vertex-5" data-projection="spherical" data-strand="3" data-ribbon-depth="under" data-ribbon-trimmed="false" data-orb-highlight="true" />
  <path d="M31.1221,-17.0911 L37.5250,-14.7571 L36.6958,-12.2052 L30.2929,-14.5392 L31.1221,-17.0911 Z" fill="#8a8a8a" stroke="#333333" stroke-width="0.4" data-face-index="40" data-sides="4" data-orb-view="vertex-5" data-projection="spherical" data-strand="0" data-ribbon-depth="over" data-ribbon-trimmed="false" />
  <path d="M37.5250,-14.7571 L40.6638,-11.0236 L39.8346,-8.4716 L36.6958,-12.2052 L37.5250,-14.7571 Z" fill="#8a8a8a" stroke="#333333" stroke-width="0.4" data-face-index="41" data-sides="4" data-orb-view="vertex-5" data-projection="spherical" data-strand="0" data-ribbon-depth="over" data-ribbon-trimmed="false" />
  <path d="M20.3666,35.2671 L22.9474,31.1282 L25.6307,31.1282 L23.0498,35.2671 L20.3666,35.2671 Z" fill="#8a8a8a" stroke="#333333" stroke-width="0.4" data-face-index="42" data-sides="4" data-orb-view="vertex-5" data-projection="spherical" data-strand="2" data-ribbon-depth="over" data-ribbon-trimmed="false" />
  <path d="M22.9474,31.1282 L23.1886,24.3174 L25.8719,24.3174 L25.6307,31.1282 L22.9474,31.1282 Z" fill="#8a8a8a" stroke="#333333" stroke-width="0.4" data-face-index="43" data-sides="4" data-orb-view="vertex-5" data-projection="spherical" data-strand="2" data-ribbon-depth="over" data-ribbon-trimmed="false" />
  <path d="M4.2526,-40.5029 L-0.2682,-38.6714 L-2.4390,-40.2486 L2.0818,-42.0801 L4.2526,-40.5029 Z" fill="#c9782e" stroke="#333333" stroke-width="0.4" data-face-index="44" data-sides="4" data-orb-view="vertex-5" data-projection="spherical" data-strand="3" data-ribbon-depth="over" data-ribbon-trimmed="false" data-orb-highlight="true" />
  <path d="M-0.2682,-38.6714 L-4.4666,-33.3031 L-6.6374,-34.8803 L-2.4390,-40.2486 L-0.2682,-38.6714 Z" fill="#c9782e" stroke="#333333" stroke-width="0.4" data-face-index="45" data-sides="4" data-orb-view="vertex-5" data-projection="spherical" data-strand="3" data-ribbon-depth="over" data-ribbon-trimmed="false" data-orb-highlight="true" />
  <path d="M28.7415,-32.0404 L25.2689,-30.0147 L23.3092,-32.2417 L26.7819,-34.2674 L28.7415,-32.0404 Z" fill="#8a8a8a" stroke="#333333" stroke-width="0.4" data-face-index="46" data-sides="4" data-orb-view="vertex-5" data-projection="spherical" data-strand="1" data-ribbon-depth="over" data-ribbon-trimmed="false" />
  <path d="M25.2689,-30.0147 L19.9241,-25.6471 L17.9644,-27.8741 L23.3092,-32.2417 L25.2689,-30.0147 Z" fill="#8a8a8a" stroke="#333333" stroke-width="0.4" data-face-index="47" data-sides="4" data-orb-view="vertex-5" data-projection="spherical" data-strand="1" data-ribbon-depth="over" data-ribbon-trimmed="false" />
  <path d="M-4.4666,-33.3031 L-6.8646,-29.8765 L-9.0354,-31.4537 L-6.6374,-34.8803 L-4.4666,-33.3031 Z" fill="#c9782e" stroke="#333333" stroke-width="0.4" data-face-index="48" data-sides="4" data-orb-view="vertex-5" data-projection="spherical" data-strand="3" data-ribbon-depth="under" data-ribbon-trimmed="true" data-orb-highlight="true" />
  <path d="M-9.8851,-26.7777 L-12.7542,-24.8009 L-14.9250,-26.3781 L-12.0560,-28.3549 L-9.8851,-26.7777 Z" fill="#c9782e" stroke="#333333" stroke-width="0.4" data-face-index="49" data-sides="4" data-orb-view="vertex-5" data-projection="spherical" data-strand="3" data-ribbon-depth="under" data-ribbon-trimmed="true" data-orb-highlight="true" />
  <path d="M20.4749,-22.3458 L23.2416,-20.2280 L22.4125,-17.6761 L19.6458,-19.7939 L20.4749,-22.3458 Z" fill="#8a8a8a" stroke="#333333" stroke-width="0.4" data-face-index="50" data-sides="4" data-orb-view="vertex-5" data-projection="spherical" data-strand="0" data-ribbon-depth="under" data-ribbon-trimmed="true" />
  <path d="M27.1221,-18.3129 L31.1221,-17.0911 L30.2929,-14.5392 L26.2930,-15.7609 L27.1221,-18.3129 Z" fill="#8a8a8a" stroke="#333333" stroke-width="0.4" data-face-index="51" data-sides="4" data-orb-view="vertex-5" data-projection="spherical" data-strand="0" data-ribbon-depth="under" data-ribbon-trimmed="true" />
  <path d="M23.1886,24.3174 L23.0720,17.7376 L25.7553,17.7376 L25.8719,24.3174 L23.1886,24.3174 Z" fill="#8a8a8a" stroke="#333333" stroke-width="0.4" data-face-index="52" data-sides="4" data-orb-view="vertex-5" data-projection="spherical" data-strand="2" data-ribbon-depth="under" data-ribbon-trimmed="false" />
  <path d="M23.0720,17.7376 L24.8959,12.5676 L27.5792,12.5676 L25.7553,17.7376 L23.0720,17.7376 Z" fill="#8a8a8a" stroke="#333333" stroke-width="0.4" data-face-index="53" data-sides="4" data-orb-view="vertex-5" data-projection="spherical" data-strand="2" data-ribbon-depth="under" data-ribbon-trimmed="false" />
  <path d="M-3.4300,-30.1130 L0.2896,-28.4254 L-0.5395,-25.8735 L-4.2592,-27.5611 L-3.4300,-30.1130 Z" fill="#8a8a8a" stroke="#333333" stroke-width="0.4" data-face-index="54" data-sides="4" data-orb-view="vertex-5" data-projection="spherical" data-strand="0" data-ribbon-depth="under" data-ribbon-trimmed="true" />
  <path d="M4.6271,-27.2254 L8.7064,-26.7955 L7.8772,-24.2435 L3.7979,-24.6734 L4.6271,-27.2254 Z" fill="#8a8a8a" stroke="#333333" stroke-width="0.4" data-face-index="55" data-sides="4" data-orb-view="vertex-5" data-projection="spherical" data-strand="0" data-ribbon-depth="under" data-ribbon-trimmed="true" />
  <path d="M19.9241,-25.6471 L16.5614,-22.7914 L14.6017,-25.0184 L17.9644,-27.8741 L19.9241,-25.6471 Z" fill="#8a8a8a" stroke="#333333" stroke-width="0.4" data-face-index="56" data-sides="4" data-orb-view="vertex-5" data-projection="spherical" data-strand="1" data-ribbon-depth="under" data-ribbon-trimmed="true" />
  <path d="M13.1362,-20.1080 L10.6410,-18.3389 L8.6813,-20.5659 L11.1765,-22.3351 L13.1362,-20.1080 Z" fill="#8a8a8a" stroke="#333333" stroke-width="0.4" data-face-index="57" data-sides="4" data-orb-view="vertex-5" data-projection="spherical" data-strand="1" data-ribbon-depth="under" data-ribbon-trimmed="true" />
  <path d="M25.4912,-0.0000 L24.1792,-6.1807 L26.8625,-6.1807 L28.1745,-0.0000 L25.4912,-0.0000 Z" fill="#8a8a8a" stroke="#333333" stroke-width="0.4" data-face-index="58" data-sides="4" data-orb-view="vertex-5" data-projection="spherical" data-strand="2" data-ribbon-depth="under" data-ribbon-trimmed="false" />
  <path d="M24.1792,-6.1807 L24.8959,-12.5676 L27.5792,-12.5676 L26.8625,-6.1807 L24.1792,-6.1807 Z" fill="#8a8a8a" stroke="#333333" stroke-width="0.4" data-face-index="59" data-sides="4" data-orb-view="vertex-5" data-projection="spherical" data-strand="2" data-ribbon-depth="under" data-ribbon-trimmed="false" />
  <path d="M-20.6228,-14.9833 L-23.1943,-9.2119 L-25.3651,-10.7891 L-22.7936,-16.5605 L-20.6228,-14.9833 Z" fill="#c9782e" stroke="#333333" stroke-width="0.4" data-face-index="60" data-sides="4" data-orb-view="vertex-5" data-projection="spherical" data-strand="3" data-ribbon-depth="under" data-ribbon-trimmed="false" data-orb-highlight="true" />
  <path d="M-23.1943,-9.2119 L-27.5283,-4.4661 L-29.6991,-6.0433 L-25.3651,-10.7891 L-23.1943,-9.2119 Z" fill="#c9782e" stroke="#333333" stroke-width="0.4" data-face-index="61" data-sides="4" data-orb-view="vertex-5" data-projection="spherical" data-strand="3" data-ribbon-depth="under" data-ribbon-trimmed="false" data-orb-highlight="true" />
  <path d="M-15.1324,-32.1201 L-9.7554,-32.5760 L-10.5846,-30.0240 L-15.9615,-29.5682 L-15.1324,-32.1201 Z" fill="#8a8a8a" stroke="#333333" stroke-width="0.4" data-face-index="62" data-sides="4" data-orb-view="vertex-5" data-projection="spherical" data-strand="0" data-ribbon-depth="over" data-ribbon-trimmed="false" />
  <path d="M-9.7554,-32.5760 L-3.4300,-30.1130 L-4.2592,-27.5611 L-10.5846,-30.0240 L-9.7554,-32.5760 Z" fill="#8a8a8a" stroke="#333333" stroke-width="0.4" data-face-index="63" data-sides="4" data-orb-view="vertex-5" data-projection="spherical" data-strand="0" data-ribbon-depth="over" data-ribbon-trimmed="false" />
  <path d="M24.8959,-12.5676 L25.2837,-19.3445 L27.9670,-19.3445 L27.5792,-12.5676 L24.8959,-12.5676 Z" fill="#8a8a8a" stroke="#333333" stroke-width="0.4" data-face-index="64" data-sides="4" data-orb-view="vertex-5" data-projection="spherical" data-strand="2" data-ribbon-depth="over" data-ribbon-trimmed="false" />
  <path d="M25.2837,-19.3445 L23.1886,-24.3174 L25.8719,-24.3174 L27.9670,-19.3445 L25.2837,-19.3445 Z" fill="#8a8a8a" stroke="#333333" stroke-width="0.4" data-face-index="65" data-sides="4" data-orb-view="vertex-5" data-projection="spherical" data-strand="2" data-ribbon-depth="over" data-ribbon-trimmed="false" />
  <path d="M-27.5283,-4.4661 L-31.8254,0.7886 L-33.9962,-0.7886 L-29.6991,-6.0433 L-27.5283,-4.4661 Z" fill="#c9782e" stroke="#333333" stroke-width="0.4" data-face-index="66" data-sides="4" data-orb-view="vertex-5" data-projection="spherical" data-strand="3" data-ribbon-depth="over" data-ribbon-trimmed="false" data-orb-highlight="true" />
  <path d="M-31.8254,0.7886 L-33.0534,6.0433 L-35.2242,4.4661 L-33.9962,-0.7886 L-31.8254,0.7886 Z" fill="#c9782e" stroke="#333333" stroke-width="0.4" data-face-index="67" data-sides="4" data-orb-view="vertex-5" data-projection="spherical" data-strand="3" data-ribbon-depth="over" data-ribbon-trimmed="false" data-orb-highlight="true" />
  <path d="M24.8959,12.5676 L26.4912,6.7406 L29.1744,6.7406 L27.5792,12.5676 L24.8959,12.5676 Z" fill="#8a8a8a" stroke="#333333" stroke-width="0.4" data-face-index="68" data-sides="4" data-orb-view="vertex-5" data-projection="spherical" data-strand="2" data-ribbon-depth="over" data-ribbon-trimmed="false" />
  <path d="M26.4912,6.7406 L25.4912,-0.0000 L28.1745,0.0000 L29.1744,6.7406 L26.4912,6.7406 Z" fill="#8a8a8a" stroke="#333333" stroke-width="0.4" data-face-index="69" data-sides="4" data-orb-view="vertex-5" data-projection="spherical" data-strand="2" data-ribbon-depth="over" data-ribbon-trimmed="false" />
  <path d="M8.7064,-26.7955 L15.4261,-25.6636 L14.5969,-23.1116 L7.8772,-24.2435 L8.7064,-26.7955 Z" fill="#8a8a8a" stroke="#333333" stroke-width="0.4" data-face-index="70" data-sides="4" data-orb-view="vertex-5" data-projection="spherical" data-strand="0" data-ribbon-depth="over" data-ribbon-trimmed="false" />
  <path d="M15.4261,-25.6636 L20.4749,-22.3458 L19.6458,-19.7939 L14.5969,-23.1116 L15.4261,-25.6636 Z" fill="#8a8a8a" stroke="#333333" stroke-width="0.4" data-face-index="71" data-sides="4" data-orb-view="vertex-5" data-projection="spherical" data-strand="0" data-ribbon-depth="over" data-ribbon-trimmed="false" />
  <path d="M2.3308,-22.0397 L0.7429,-28.2286 L3.6374,-28.8784 L5.2252,-22.6895 L2.3308,-22.0397 Z" fill="#8a8a8a" stroke="#333333" stroke-width="0.4" data-face-index="72" data-sides="4" data-orb-view="vertex-5" data-projection="spherical" data-strand="1" data-ribbon-depth="over" data-ribbon-trimmed="false" />
  <path d="M0.7429,-28.2286 L-1.0440,-32.4600 L1.8505,-33.1099 L3.6374,-28.8784 L0.7429,-28.2286 Z" fill="#8a8a8a" stroke="#333333" stroke-width="0.4" data-face-index="73" data-sides="4" data-orb-view="vertex-5" data-projection="spherical" data-strand="1" data-ribbon-depth="over" data-ribbon-trimmed="false" />
  <path d="M-12.7542,-24.8009 L-17.4698,-21.0244 L-19.6406,-22.6015 L-14.9250,-26.3781 L-12.7542,-24.8009 Z" fill="#c9782e" stroke="#333333" stroke-width="0.4" data-face-index="74" data-sides="4" data-orb-view="vertex-5" data-projection="spherical" data-strand="3" data-ribbon-depth="over" data-ribbon-trimmed="false" data-orb-highlight="true" />
  <path d="M-17.4698,-21.0244 L-20.6228,-14.9833 L-22.7936,-16.5605 L-19.6406,-22.6015 L-17.4698,-21.0244 Z" fill="#c9782e" stroke="#333333" stroke-width="0.4" data-face-index="75" data-sides="4" data-orb-view="vertex-5" data-projection="spherical" data-strand="3" data-ribbon-depth="over" data-ribbon-trimmed="false" data-orb-highlight="true" />
  <path d="M10.6410,-18.3389 L4.4118,-13.5782 L6.1028,-18.7825 L8.6813,-20.5659 L10.6410,-18.3389 Z" fill="#8a8a8a" stroke="#333333" stroke-width="0.4" data-face-index="76" data-sides="4" data-orb-view="vertex-5" data-projection="spherical" data-strand="1" data-ribbon-depth="under" data-ribbon-trimmed="false" />
  <path d="M4.4118,-13.5782 L2.3308,-22.0397 L5.2252,-22.6895 L6.1028,-18.7825 L4.4118,-13.5782 Z" fill="#8a8a8a" stroke="#333333" stroke-width="0.4" data-face-index="77" data-sides="4" data-orb-view="vertex-5" data-projection="spherical" data-strand="1" data-ribbon-depth="under" data-ribbon-trimmed="false" />
  </g>
</svg>