<svg xmlns="http://www.w3.org/2000/svg" viewBox="-70.00 -70.00 140.00 140.00" width="140" height="140" data-orb-view="vertex-4" data-projection="spherical">
  <rect x="-70.00" y="-70.00" width="140.00" height="140.00" fill="#ffffff" pointer-events="none" />
  <path d="M0.0000,0.0000 L7.2322,0.0000 L14.3589,0.0000 L21.2763,0.0000 L27.8834,0.0000 L34.0839,0.0000 L39.7874,0.0000 L44.9106,0.0000 L49.3790,0.0000 L53.1274,0.0000 L56.1010,0.0000 L58.2565,0.0000 L59.5625,0.0000 L60.0000,0.0000 L59.5625,-7.2322 L58.2565,-14.3589 L56.1010,-21.2763 L53.1274,-27.8834 L49.3790,-34.0839 L44.9106,-39.7874 L39.7874,-44.9106 L34.0839,-49.3790 L27.8834,-53.1274 L21.2763,-56.1010 L14.3589,-58.2565 L7.2322,-59.5625 L0.0000,-60.0000 L0.0000,-59.5625 L0.0000,-58.2565 L0.0000,-56.1010 L0.0000,-53.1274 L0.0000,-49.3790 L0.0000,-44.9106 L0.0000,-39.7874 L0.0000,-34.0839 L0.0000,-27.8834 L0.0000,-21.2763 L0.0000,-14.3589 L0.0000,-7.2322 L0.0000,0.0000 Z" fill="none" stroke="#c8c8c8" stroke-width="0.5" data-orb-scaffold="true" pointer-events="none" />
  <path d="M-60.0000,0.0000 L-59.5625,0.0000 L-58.2565,0.0000 L-56.1010,0.0000 L-53.1274,0.0000 L-49.3790,0.0000 L-44.9106,0.0000 L-39.7874,0.0000 L-34.0839,0.0000 L-27.8834,0.0000 L-21.2763,0.0000 L-14.3589,0.0000 L-7.2322,0.0000 L0.0000,0.0000 L0.0000,-7.2322 L0.0000,-14.3589 L0.0000,-21.2763 L0.0000,-27.8834 L0.0000,-34.0839 L0.0000,-39.7874 L0.0000,-44.9106 L0.0000,-49.3790 L0.0000,-53.1274 L0.0000,-56.1010 L0.0000,-58.2565 L0.0000,-59.5625 L0.0000,-60.0000 L-7.2322,-59.5625 L-14.3589,-58.2565 L-21.2763,-56.1010 L-27.8834,-53.1274 L-34.0839,-49.3790 L-39.7874,-44.9106 L-44.9106,-39.7874 L-49.3790,-34.0839 L-53.1274,-27.8834 L-56.1010,-21.2763 L-58.2565,-14.3589 L-59.5625,-7.2322 L-60.0000,0.0000 Z" fill="none" stroke="#c8c8c8" stroke-width="0.5" data-orb-scaffold="true" pointer-events="none" />
  <path d="M60.0000,0.0000 L59.5625,0.0000 L58.2565,0.0000 L56.1010,0.0000 L53.1274,0.0000 L49.3790,0.0000 L44.9106,0.0000 L39.7874,0.0000 L34.0839,0.0000 L27.8834,0.0000 L21.2763,0.0000 L14.3589,0.0000 L7.2322,0.0000 L0.0000,0.0000 L0.0000,7.2322 L0.0000,14.3589 L0.0000,21.2763 L0.0000,27.8834 L0.0000,34.0839 L0.0000,39.7874 L0.0000,44.9106 L0.0000,49.3790 L0.0000,53.1274 L0.0000,56.1010 L0.0000,58.2565 L0.0000,59.5625 L0.0000,60.0000 L7.2322,59.5625 L14.3589,58.2565 L21.2763,56.1010 L27.8834,53.1274 L34.0839,49.3790 L39.7874,44.9106 L44.9106,39.7874 L49.3790,34.0839 L53.1274,27.8834 L56.1010,21.2763 L58.2565,14.3589 L59.5625,7.2322 L60.0000,0.0000 Z" fill="none" stroke="#c8c8c8" stroke-width="0.5" data-orb-scaffold="true" pointer-events="none" />
  <path d="M0.0000,0.0000 L-7.2322,0.0000 L-14.3589,0.0000 L-21.2763,0.0000 L-27.8834,0.0000 L-34.0839,0.0000 L-39.7874,0.0000 L-44.9106,0.0000 L-49.3790,0.0000 L-53.1274,0.0000 L-56.1010,0.0000 L-58.2565,0.0000 L-59.5625,0.0000 L-60.0000,0.0000 L-59.5625,7.2322 L-58.2565,14.3589 L-56.1010,21.2763 L-53.1274,27.8834 L-49.3790,34.0839 L-44.9106,39.7874 L-39.7874,44.9106 L-34.0839,49.3790 L-27.8834,53.1274 L-21.2763,56.1010 L-14.3589,58.2565 L-7.2322,59.5625 L0.0000,60.0000 L0.0000,59.5625 L0.0000,58.2565 L0.0000,56.1010 L0.0000,53.1274 L0.0000,49.3790 L0.0000,44.9106 L0.0000,39.7874 L0.0000,34.0839 L0.0000,27.8834 L0.0000,21.2763 L0.0000,14.3589 L0.0000,7.2322 L0.0000,0.0000 Z" fill="none" stroke="#c8c8c8" stroke-width="0.5" data-orb-scaffold="true" pointer-events="none" />
  <circle cx="0" cy="0" r="60.00" fill="none" stroke="#333333" stroke-width="0.4" data-orb-silhouette="true" />
  <clipPath id="orb-limb"><circle cx="0" cy="0" r="60.00" /></clipPath>
  <g clip-path="url(#orb-limb)">
  <path d="M42.4264,0.0000 L0.0000,0.0000 L0.0000,-42.4264 L16.0357,-32.0713 L14.1421,-14.1421 L32.0713,-16.0357 L42.4264,0.0000 Z" fill="#c9782e" stroke="#333333" stroke-width="0.4" data-face-index="0" data-sides="6" data-orb-view="vertex-4" data-projection="spherical" data-orb-base-face="0" />
  </g>
</svg>