<svg xmlns="http://www.w3.org/2000/svg" viewBox="-70.00 -70.00 140.00 140.00" width="140" height="140" data-orb-view="turntable-3" data-projection="spherical">
  <rect x="-70.00" y="-70.00" width="140.00" height="140.00" fill="#ffffff" pointer-events="none" />
  <circle cx="0" cy="0" r="60.00" fill="none" stroke="#333333" stroke-width="0.4" data-orb-silhouette="true" />
  <path d="M27.8363,47.8709 L22.9369,50.3669 L22.3536,49.5169 L27.2530,47.0209 L27.8363,47.8709 Z" fill="#575757" stroke="#333333" stroke-width="0.4" data-face-index="0" data-sides="4" data-orb-view="turntable-3" data-projection="spherical" data-strand="4" data-ribbon-depth="under" data-ribbon-trimmed="true" data-orb-style="shaded" />
  <path d="M18.5313,52.1960 L10.1003,54.9481 L9.5170,54.0981 L17.9480,51.3459 L18.5313,52.1960 Z" fill="#575757" stroke="#333333" stroke-width="0.4" data-face-index="1" data-sides="4" data-orb-view="turntable-3" data-projection="spherical" data-strand="4" data-ribbon-depth="under" data-ribbon-trimmed="true" data-orb-style="shaded" />
  <path d="M44.9268,37.6203 L36.2342,45.7732 L29.3456,50.4707 L28.7623,49.6206 L35.6510,44.9231 L44.3435,36.7702 L44.9268,37.6203 Z" fill="#585858" stroke="#333333" stroke-width="0.4" data-face-index="2" data-sides="6" data-orb-view="turntable-3" data-projection="spherical" data-strand="4" data-ribbon-depth="over" data-ribbon-trimmed="false" data-orb-style="shaded" />
  <path d="M-10.0803,-53.0340 L-18.5308,-50.2449 L-19.0393,-51.2362 L-10.5888,-54.0253 L-10.0803,-53.0340 Z" fill="#5a5a5a" stroke="#333333" stroke-width="0.4" data-face-index="3" data-sides="4" data-orb-view="turntable-3" data-projection="spherical" data-strand="2" data-ribbon-depth="under" data-ribbon-trimmed="true" data-orb-style="shaded" />
  <path d="M-22.9431,-48.4030 L-27.8461,-45.9003 L-28.3546,-46.8916 L-23.4517,-49.3943 L-22.9431,-48.4030 Z" fill="#5a5a5a" stroke="#333333" stroke-width="0.4" data-face-index="4" data-sides="4" data-orb-view="turntable-3" data-projection="spherical" data-strand="2" data-ribbon-depth="under" data-ribbon-trimmed="true" data-orb-style="shaded" />
  <path d="M-29.3858,-48.4425 L-36.2691,-43.7552 L-44.9355,-35.6517 L-45.4441,-36.6429 L-36.7777,-44.7464 L-29.8944,-49.4338 L-29.3858,-48.4425 Z" fill="#595959" stroke="#333333" stroke-width="0.4" data-face-index="5" data-sides="6" data-orb-view="turntable-3" data-projection="spherical" data-strand="2" data-ribbon-depth="over" data-ribbon-trimmed="false" data-orb-style="shaded" />
  <path d="M-29.0296,47.0204 L-32.1554,41.4946 L-29.8054,42.1453 L-26.6797,47.6711 L-29.0296,47.0204 Z" fill="#626262" stroke="#333333" stroke-width="0.4" data-face-index="6" data-sides="4" data-orb-view="turntable-3" data-projection="spherical" data-strand="8" data-ribbon-depth="under" data-ribbon-trimmed="true" data-orb-style="shaded" />
  <path d="M-33.5848,38.1986 L-35.7691,31.4797 L-33.4192,32.1304 L-31.2348,38.8493 L-33.5848,38.1986 Z" fill="#626262" stroke="#333333" stroke-width="0.4" data-face-index="7" data-sides="4" data-orb-view="turntable-3" data-projection="spherical" data-strand="8" data-ribbon-depth="under" data-ribbon-trimmed="true" data-orb-style="shaded" />
  <path d="M-43.6123,9.8871 L-48.6251,10.5814 L-49.1336,7.6256 L-44.1208,6.9313 L-43.6123,9.8871 Z" fill="#626262" stroke="#333333" stroke-width="0.4" data-face-index="8" data-sides="4" data-orb-view="turntable-3" data-projection="spherical" data-strand="3" data-ribbon-depth="under" data-ribbon-trimmed="true" data-orb-style="shaded" />
  <path d="M-50.9238,10.8812 L-54.4508,11.3007 L-54.9593,8.3449 L-51.4324,7.9254 L-50.9238,10.8812 Z" fill="#626262" stroke="#333333" stroke-width="0.4" data-face-index="9" data-sides="4" data-orb-view="turntable-3" data-projection="spherical" data-strand="3" data-ribbon-depth="under" data-ribbon-trimmed="true" data-orb-style="shaded" />
  <path d="M-46.6749,18.0273 L-53.2726,10.9638 L-57.8812,3.5323 L-57.2979,1.2037 L-52.6893,8.6351 L-46.0916,15.6987 L-46.6749,18.0273 Z" fill="#626262" stroke="#333333" stroke-width="0.4" data-face-index="10" data-sides="6" data-orb-view="turntable-3" data-projection="spherical" data-strand="1" data-ribbon-depth="over" data-ribbon-trimmed="false" data-orb-style="shaded" />
  <path d="M54.4553,-7.3927 L50.7119,-6.5642 L50.2034,-9.5200 L53.9468,-10.3485 L54.4553,-7.3927 Z" fill="#656565" stroke="#333333" stroke-width="0.4" data-face-index="11" data-sides="4" data-orb-view="turntable-3" data-projection="spherical" data-strand="3" data-ribbon-depth="under" data-ribbon-trimmed="true" data-orb-style="shaded" />
  <path d="M48.3028,-6.0559 L43.0966,-4.9962 L42.5880,-7.9520 L47.7943,-9.0117 L48.3028,-6.0559 Z" fill="#656565" stroke="#333333" stroke-width="0.4" data-face-index="12" data-sides="4" data-orb-view="turntable-3" data-projection="spherical" data-strand="3" data-ribbon-depth="under" data-ribbon-trimmed="true" data-orb-style="shaded" />
  <path d="M28.4825,-45.9867 L31.4439,-40.1505 L29.0478,-40.7139 L26.0864,-46.5501 L28.4825,-45.9867 Z" fill="#656565" stroke="#333333" stroke-width="0.4" data-face-index="13" data-sides="4" data-orb-view="turntable-3" data-projection="spherical" data-strand="5" data-ribbon-depth="under" data-ribbon-trimmed="true" data-orb-style="shaded" />
  <path d="M32.7911,-36.6991 L34.8342,-29.7133 L32.4381,-30.2768 L30.3950,-37.2625 L32.7911,-36.6991 Z" fill="#656565" stroke="#333333" stroke-width="0.4" data-face-index="14" data-sides="4" data-orb-view="turntable-3" data-projection="spherical" data-strand="5" data-ribbon-depth="under" data-ribbon-trimmed="true" data-orb-style="shaded" />
  <path d="M45.6875,-16.1618 L52.4743,-9.4555 L57.3028,-2.4395 L56.6733,-0.0236 L51.8448,-7.0396 L45.0580,-13.7459 L45.6875,-16.1618 Z" fill="#656565" stroke="#333333" stroke-width="0.4" data-face-index="15" data-sides="6" data-orb-view="turntable-3" data-projection="spherical" data-strand="0" data-ribbon-depth="over" data-ribbon-trimmed="false" data-orb-style="shaded" />
  <path d="M37.1331,-44.1984 L33.9190,-40.0582 L29.4755,-34.3791 L27.1256,-36.2439 L31.5691,-41.9231 L34.7832,-46.0632 L37.1331,-44.1984 Z" fill="#656565" stroke="#333333" stroke-width="0.4" data-face-index="16" data-sides="6" data-orb-view="turntable-3" data-projection="spherical" data-strand="9" data-ribbon-depth="over" data-ribbon-trimmed="false" data-orb-style="shaded" />
  <path d="M15.2697,50.1953 L12.2453,48.4945 L14.6414,47.0934 L17.6658,48.7941 L15.2697,50.1953 Z" fill="#696969" stroke="#333333" stroke-width="0.4" data-face-index="17" data-sides="4" data-orb-view="turntable-3" data-projection="spherical" data-strand="6" data-ribbon-depth="under" data-ribbon-trimmed="true" data-orb-style="shaded" />
  <path d="M9.5293,46.6954 L4.3382,42.7665 L6.7343,41.3654 L11.9254,45.2943 L9.5293,46.6954 Z" fill="#696969" stroke="#333333" stroke-width="0.4" data-face-index="18" data-sides="4" data-orb-view="turntable-3" data-projection="spherical" data-strand="6" data-ribbon-depth="under" data-ribbon-trimmed="true" data-orb-style="shaded" />
  <path d="M42.0248,31.8691 L35.5317,34.5026 L36.1149,32.1739 L42.6081,29.5405 L42.0248,31.8691 Z" fill="#686868" stroke="#333333" stroke-width="0.4" data-face-index="19" data-sides="4" data-orb-view="turntable-3" data-projection="spherical" data-strand="1" data-ribbon-depth="under" data-ribbon-trimmed="true" data-orb-style="shaded" />
  <path d="M31.8010,35.6915 L27.2530,36.7925 L27.8363,34.4638 L32.3842,33.3628 L31.8010,35.6915 Z" fill="#686868" stroke="#333333" stroke-width="0.4" data-face-index="20" data-sides="4" data-orb-view="turntable-3" data-projection="spherical" data-strand="1" data-ribbon-depth="under" data-ribbon-trimmed="true" data-orb-style="shaded" />
  <path d="M-42.7010,-30.5916 L-36.3589,-32.9397 L-36.9883,-30.5238 L-43.3305,-28.1757 L-42.7010,-30.5916 Z" fill="#696969" stroke="#333333" stroke-width="0.4" data-face-index="21" data-sides="4" data-orb-view="turntable-3" data-projection="spherical" data-strand="0" data-ribbon-depth="under" data-ribbon-trimmed="true" data-orb-style="shaded" />
  <path d="M-32.7036,-33.9862 L-28.2352,-34.9367 L-28.8647,-32.5208 L-33.3330,-31.5703 L-32.7036,-33.9862 Z" fill="#696969" stroke="#333333" stroke-width="0.4" data-face-index="22" data-sides="4" data-orb-view="turntable-3" data-projection="spherical" data-strand="0" data-ribbon-depth="under" data-ribbon-trimmed="true" data-orb-style="shaded" />
  <path d="M18.5682,44.7844 L13.9871,49.9124 L7.0377,55.6544 L4.6416,55.0910 L11.5910,49.3490 L16.1721,44.2210 L18.5682,44.7844 Z" fill="#676767" stroke="#333333" stroke-width="0.4" data-face-index="23" data-sides="6" data-orb-view="turntable-3" data-projection="spherical" data-strand="5" data-ribbon-depth="over" data-ribbon-trimmed="false" data-orb-style="shaded" />
  <path d="M-7.8447,-39.2676 L-12.8742,-43.5018 L-10.4495,-44.9569 L-5.4200,-40.7226 L-7.8447,-39.2676 Z" fill="#6b6b6b" stroke="#333333" stroke-width="0.4" data-face-index="24" data-sides="4" data-orb-view="turntable-3" data-projection="spherical" data-strand="7" data-ribbon-depth="under" data-ribbon-trimmed="true" data-orb-style="shaded" />
  <path d="M-15.4970,-45.4769 L-18.4076,-47.3927 L-15.9829,-48.8478 L-13.0723,-46.9319 L-15.4970,-45.4769 Z" fill="#6b6b6b" stroke="#333333" stroke-width="0.4" data-face-index="25" data-sides="4" data-orb-view="turntable-3" data-projection="spherical" data-strand="7" data-ribbon-depth="under" data-ribbon-trimmed="true" data-orb-style="shaded" />
  <path d="M35.0626,41.7336 L34.7303,36.6403 L33.1108,28.2226 L35.5355,26.7676 L37.1549,35.1852 L37.4872,40.2785 L35.0626,41.7336 Z" fill="#6a6a6a" stroke="#333333" stroke-width="0.4" data-face-index="26" data-sides="6" data-orb-view="turntable-3" data-projection="spherical" data-strand="7" data-ribbon-depth="over" data-ribbon-trimmed="false" data-orb-style="shaded" />
  <path d="M-36.6773,-24.6102 L-38.0804,-33.4366 L-38.2403,-38.8558 L-35.8442,-40.2569 L-35.6843,-34.8377 L-34.2812,-26.0114 L-36.6773,-24.6102 Z" fill="#6b6b6b" stroke="#333333" stroke-width="0.4" data-face-index="27" data-sides="6" data-orb-view="turntable-3" data-projection="spherical" data-strand="6" data-ribbon-depth="over" data-ribbon-trimmed="false" data-orb-style="shaded" />
  <path d="M-19.6055,-42.8246 L-14.9038,-48.1804 L-7.7522,-54.3046 L-5.4022,-53.6539 L-12.5539,-47.5298 L-17.2556,-42.1739 L-19.6055,-42.8246 Z" fill="#6a6a6a" stroke="#333333" stroke-width="0.4" data-face-index="28" data-sides="6" data-orb-view="turntable-3" data-projection="spherical" data-strand="8" data-ribbon-depth="over" data-ribbon-trimmed="false" data-orb-style="shaded" />
  <path d="M-30.0187,27.0241 L-34.4342,24.3943 L-33.8510,22.0656 L-29.4354,24.6955 L-30.0187,27.0241 Z" fill="#717171" stroke="#333333" stroke-width="0.4" data-face-index="29" data-sides="4" data-orb-view="turntable-3" data-projection="spherical" data-strand="1" data-ribbon-depth="under" data-ribbon-trimmed="true" data-orb-style="shaded" />
  <path d="M-38.0362,21.9547 L-44.2654,17.1513 L-43.6821,14.8227 L-37.4529,19.6261 L-38.0362,21.9547 Z" fill="#717171" stroke="#333333" stroke-width="0.4" data-face-index="30" data-sides="4" data-orb-view="turntable-3" data-projection="spherical" data-strand="1" data-ribbon-depth="under" data-ribbon-trimmed="true" data-orb-style="shaded" />
  <path d="M26.8252,27.6271 L22.7927,34.8845 L20.3966,34.3211 L24.4291,27.0637 L26.8252,27.6271 Z" fill="#737373" stroke="#333333" stroke-width="0.4" data-face-index="31" data-sides="4" data-orb-view="turntable-3" data-projection="spherical" data-strand="5" data-ribbon-depth="under" data-ribbon-trimmed="true" data-orb-style="shaded" />
  <path d="M20.4802,38.5488 L17.6658,42.4726 L15.2697,41.9092 L18.0841,37.9854 L20.4802,38.5488 Z" fill="#737373" stroke="#333333" stroke-width="0.4" data-face-index="32" data-sides="4" data-orb-view="turntable-3" data-projection="spherical" data-strand="5" data-ribbon-depth="under" data-ribbon-trimmed="true" data-orb-style="shaded" />
  <path d="M-28.0054,-25.3974 L-23.8925,-32.8066 L-21.5426,-32.1559 L-25.6555,-24.7468 L-28.0054,-25.3974 Z" fill="#757575" stroke="#333333" stroke-width="0.4" data-face-index="33" data-sides="4" data-orb-view="turntable-3" data-projection="spherical" data-strand="8" data-ribbon-depth="under" data-ribbon-trimmed="true" data-orb-style="shaded" />
  <path d="M-21.5292,-36.5668 L-18.6481,-40.6168 L-16.2982,-39.9661 L-19.1793,-35.9161 L-21.5292,-36.5668 Z" fill="#757575" stroke="#333333" stroke-width="0.4" data-face-index="34" data-sides="4" data-orb-view="turntable-3" data-projection="spherical" data-strand="8" data-ribbon-depth="under" data-ribbon-trimmed="true" data-orb-style="shaded" />
  <path d="M28.8647,-24.8439 L33.3330,-22.3137 L32.7036,-19.8978 L28.2352,-22.4279 L28.8647,-24.8439 Z" fill="#747474" stroke="#333333" stroke-width="0.4" data-face-index="35" data-sides="4" data-orb-view="turntable-3" data-projection="spherical" data-strand="0" data-ribbon-depth="under" data-ribbon-trimmed="true" data-orb-style="shaded" />
  <path d="M36.9883,-19.9751 L43.3305,-15.3850 L42.7010,-12.9691 L36.3589,-17.5592 L36.9883,-19.9751 Z" fill="#747474" stroke="#333333" stroke-width="0.4" data-face-index="36" data-sides="4" data-orb-view="turntable-3" data-projection="spherical" data-strand="0" data-ribbon-depth="under" data-ribbon-trimmed="true" data-orb-style="shaded" />
  <path d="M-37.6647,33.2224 L-39.2190,22.9681 L-39.4588,15.2680 L-37.1088,15.9186 L-36.8691,23.6188 L-35.3148,33.8731 L-37.6647,33.2224 Z" fill="#717171" stroke="#333333" stroke-width="0.4" data-face-index="37" data-sides="6" data-orb-view="turntable-3" data-projection="spherical" data-strand="8" data-ribbon-depth="over" data-ribbon-trimmed="false" data-orb-style="shaded" />
  <path d="M28.7623,38.7447 L21.3413,39.7238 L10.0545,39.8937 L10.6378,37.5651 L21.9246,37.3952 L29.3456,36.4160 L28.7623,38.7447 Z" fill="#737373" stroke="#333333" stroke-width="0.4" data-face-index="38" data-sides="6" data-orb-view="turntable-3" data-projection="spherical" data-strand="1" data-ribbon-depth="over" data-ribbon-trimmed="false" data-orb-style="shaded" />
  <path d="M-29.7996,-36.7848 L-22.4798,-37.5727 L-11.3006,-37.5395 L-11.9301,-35.1236 L-23.1093,-35.1568 L-30.4291,-34.3689 L-29.7996,-36.7848 Z" fill="#757575" stroke="#333333" stroke-width="0.4" data-face-index="39" data-sides="6" data-orb-view="turntable-3" data-projection="spherical" data-strand="0" data-ribbon-depth="over" data-ribbon-trimmed="false" data-orb-style="shaded" />
  <path d="M36.6773,-31.3569 L38.0804,-20.8170 L38.2403,-12.9659 L35.8442,-13.5293 L35.6843,-21.3804 L34.2812,-31.9203 L36.6773,-31.3569 Z" fill="#747474" stroke="#333333" stroke-width="0.4" data-face-index="40" data-sides="6" data-orb-view="turntable-3" data-projection="spherical" data-strand="5" data-ribbon-depth="over" data-ribbon-trimmed="false" data-orb-style="shaded" />
  <path d="M-17.6470,25.0679 L-20.4463,28.5686 L-22.7962,26.7037 L-19.9969,23.2030 L-17.6470,25.0679 Z" fill="#777777" stroke="#333333" stroke-width="0.4" data-face-index="41" data-sides="4" data-orb-view="turntable-3" data-projection="spherical" data-strand="9" data-ribbon-depth="under" data-ribbon-trimmed="true" data-orb-style="shaded" />
  <path d="M-22.7300,31.4203 L-26.6797,36.3447 L-29.0296,34.4798 L-25.0799,29.5555 L-22.7300,31.4203 Z" fill="#777777" stroke="#333333" stroke-width="0.4" data-face-index="42" data-sides="4" data-orb-view="turntable-3" data-projection="spherical" data-strand="9" data-ribbon-depth="under" data-ribbon-trimmed="true" data-orb-style="shaded" />
  <path d="M-37.4700,14.4579 L-37.1652,9.1856 L-34.8153,9.8363 L-35.1201,15.1086 L-37.4700,14.4579 Z" fill="#797979" stroke="#333333" stroke-width="0.4" data-face-index="43" data-sides="4" data-orb-view="turntable-3" data-projection="spherical" data-strand="8" data-ribbon-depth="under" data-ribbon-trimmed="true" data-orb-style="shaded" />
  <path d="M-36.6575,4.5451 L-35.2651,-4.1547 L-32.9152,-3.5040 L-34.3076,5.1958 L-36.6575,4.5451 Z" fill="#797979" stroke="#333333" stroke-width="0.4" data-face-index="44" data-sides="4" data-orb-view="turntable-3" data-projection="spherical" data-strand="8" data-ribbon-depth="under" data-ribbon-trimmed="true" data-orb-style="shaded" />
  <path d="M9.5170,37.8818 L0.7959,36.9226 L1.3792,34.5940 L10.1003,35.5532 L9.5170,37.8818 Z" fill="#7a7a7a" stroke="#333333" stroke-width="0.4" data-face-index="45" data-sides="4" data-orb-view="turntable-3" data-projection="spherical" data-strand="1" data-ribbon-depth="under" data-ribbon-trimmed="true" data-orb-style="shaded" />
  <path d="M-3.8892,36.1235 L-12.5731,34.1141 L-11.9898,31.7855 L-3.3059,33.7948 L-3.8892,36.1235 Z" fill="#7a7a7a" stroke="#333333" stroke-width="0.4" data-face-index="46" data-sides="4" data-orb-view="turntable-3" data-projection="spherical" data-strand="1" data-ribbon-depth="under" data-ribbon-trimmed="true" data-orb-style="shaded" />
  <path d="M36.3160,-12.2777 L35.9735,-6.9340 L33.5774,-7.4974 L33.9199,-12.8411 L36.3160,-12.2777 Z" fill="#7b7b7b" stroke="#333333" stroke-width="0.4" data-face-index="47" data-sides="4" data-orb-view="turntable-3" data-projection="spherical" data-strand="5" data-ribbon-depth="under" data-ribbon-trimmed="true" data-orb-style="shaded" />
  <path d="M35.4412,-2.2471 L34.0188,6.5095 L31.6226,5.9461 L33.0451,-2.8105 L35.4412,-2.2471 Z" fill="#7b7b7b" stroke="#333333" stroke-width="0.4" data-face-index="48" data-sides="4" data-orb-view="turntable-3" data-projection="spherical" data-strand="5" data-ribbon-depth="under" data-ribbon-trimmed="true" data-orb-style="shaded" />
  <path d="M28.0054,-32.5447 L23.8925,-27.3122 L21.5426,-29.1770 L25.6555,-34.4095 L28.0054,-32.5447 Z" fill="#7a7a7a" stroke="#333333" stroke-width="0.4" data-face-index="49" data-sides="4" data-orb-view="turntable-3" data-projection="spherical" data-strand="9" data-ribbon-depth="under" data-ribbon-trimmed="true" data-orb-style="shaded" />
  <path d="M21.5292,-24.3100 L18.6481,-20.6547 L16.2982,-22.5195 L19.1793,-26.1748 L21.5292,-24.3100 Z" fill="#7a7a7a" stroke="#333333" stroke-width="0.4" data-face-index="50" data-sides="4" data-orb-view="turntable-3" data-projection="spherical" data-strand="9" data-ribbon-depth="under" data-ribbon-trimmed="true" data-orb-style="shaded" />
  <path d="M-28.4825,-4.2049 L-31.4439,-11.9435 L-29.0478,-13.3447 L-26.0864,-5.6060 L-28.4825,-4.2049 Z" fill="#7b7b7b" stroke="#333333" stroke-width="0.4" data-face-index="51" data-sides="4" data-orb-view="turntable-3" data-projection="spherical" data-strand="6" data-ribbon-depth="under" data-ribbon-trimmed="true" data-orb-style="shaded" />
  <path d="M-32.7911,-15.9924 L-34.8342,-23.2954 L-32.4381,-24.6965 L-30.3950,-17.3936 L-32.7911,-15.9924 Z" fill="#7b7b7b" stroke="#333333" stroke-width="0.4" data-face-index="52" data-sides="4" data-orb-view="turntable-3" data-projection="spherical" data-strand="6" data-ribbon-depth="under" data-ribbon-trimmed="true" data-orb-style="shaded" />
  <path d="M31.3278,26.7943 L29.1555,19.7354 L31.5801,18.2804 L33.7524,25.3393 L31.3278,26.7943 Z" fill="#7b7b7b" stroke="#333333" stroke-width="0.4" data-face-index="53" data-sides="4" data-orb-view="turntable-3" data-projection="spherical" data-strand="7" data-ribbon-depth="under" data-ribbon-trimmed="true" data-orb-style="shaded" />
  <path d="M27.7488,15.7989 L24.6954,8.2340 L27.1201,6.7789 L30.1735,14.3439 L27.7488,15.7989 Z" fill="#7b7b7b" stroke="#333333" stroke-width="0.4" data-face-index="54" data-sides="4" data-orb-view="turntable-3" data-projection="spherical" data-strand="7" data-ribbon-depth="under" data-ribbon-trimmed="true" data-orb-style="shaded" />
  <path d="M-13.2460,35.9196 L-24.3850,31.9246 L-31.6476,28.4411 L-31.0643,26.1124 L-23.8017,29.5960 L-12.6627,33.5909 L-13.2460,35.9196 Z" fill="#797979" stroke="#333333" stroke-width="0.4" data-face-index="55" data-sides="6" data-orb-view="turntable-3" data-projection="spherical" data-strand="1" data-ribbon-depth="over" data-ribbon-trimmed="false" data-orb-style="shaded" />
  <path d="M-30.8085,8.0316 L-37.5679,9.0854 L-46.0159,10.3479 L-46.5245,7.3921 L-38.0765,6.1296 L-31.3171,5.0758 L-30.8085,8.0316 Z" fill="#787878" stroke="#333333" stroke-width="0.4" data-face-index="56" data-sides="6" data-orb-view="turntable-3" data-projection="spherical" data-strand="3" data-ribbon-depth="over" data-ribbon-trimmed="false" data-orb-style="shaded" />
  <path d="M-10.6972,-35.6521 L-2.0208,-34.6084 L-2.6503,-32.1925 L-11.3267,-33.2362 L-10.6972,-35.6521 Z" fill="#7c7c7c" stroke="#333333" stroke-width="0.4" data-face-index="57" data-sides="4" data-orb-view="turntable-3" data-projection="spherical" data-strand="0" data-ribbon-depth="under" data-ribbon-trimmed="true" data-orb-style="shaded" />
  <path d="M2.6503,-33.7827 L11.3267,-31.7593 L10.6972,-29.3433 L2.0208,-31.3668 L2.6503,-33.7827 Z" fill="#7c7c7c" stroke="#333333" stroke-width="0.4" data-face-index="58" data-sides="4" data-orb-view="turntable-3" data-projection="spherical" data-strand="0" data-ribbon-depth="under" data-ribbon-trimmed="true" data-orb-style="shaded" />
  <path d="M4.6416,45.0715 L-2.5271,38.1458 L-9.6459,29.8143 L-7.2498,28.4132 L-0.1310,36.7447 L7.0377,43.6704 L4.6416,45.0715 Z" fill="#7a7a7a" stroke="#333333" stroke-width="0.4" data-face-index="59" data-sides="6" data-orb-view="turntable-3" data-projection="spherical" data-strand="6" data-ribbon-depth="over" data-ribbon-trimmed="false" data-orb-style="shaded" />
  <path d="M45.4441,-5.3509 L36.7777,-3.6758 L29.8944,-2.3878 L29.3858,-5.3436 L36.2691,-6.6316 L44.9355,-8.3067 L45.4441,-5.3509 Z" fill="#797979" stroke="#333333" stroke-width="0.4" data-face-index="60" data-sides="6" data-orb-view="turntable-3" data-projection="spherical" data-strand="3" data-ribbon-depth="over" data-ribbon-trimmed="false" data-orb-style="shaded" />
  <path d="M11.9301,-33.4333 L23.1093,-29.5145 L30.4291,-26.1390 L29.7996,-23.7231 L22.4798,-27.0986 L11.3006,-31.0174 L11.9301,-33.4333 Z" fill="#7b7b7b" stroke="#333333" stroke-width="0.4" data-face-index="61" data-sides="6" data-orb-view="turntable-3" data-projection="spherical" data-strand="0" data-ribbon-depth="over" data-ribbon-trimmed="false" data-orb-style="shaded" />
  <path d="M-37.1331,-4.3645 L-33.9190,-15.8595 L-29.4755,-26.7712 L-27.1256,-26.1206 L-31.5691,-15.2088 L-34.7832,-3.7138 L-37.1331,-4.3645 Z" fill="#7b7b7b" stroke="#333333" stroke-width="0.4" data-face-index="62" data-sides="6" data-orb-view="turntable-3" data-projection="spherical" data-strand="8" data-ribbon-depth="over" data-ribbon-trimmed="false" data-orb-style="shaded" />
  <path d="M35.8171,6.8508 L32.6130,18.3269 L28.2295,29.1255 L25.8333,28.5621 L30.2169,17.7635 L33.4210,6.2874 L35.8171,6.8508 Z" fill="#7b7b7b" stroke="#333333" stroke-width="0.4" data-face-index="63" data-sides="6" data-orb-view="turntable-3" data-projection="spherical" data-strand="5" data-ribbon-depth="over" data-ribbon-trimmed="false" data-orb-style="shaded" />
  <path d="M5.7834,-25.6427 L-1.2123,-34.2067 L-8.2081,-41.4591 L-5.7834,-42.9142 L1.2123,-35.6618 L8.2081,-27.0978 L5.7834,-25.6427 Z" fill="#7c7c7c" stroke="#333333" stroke-width="0.4" data-face-index="64" data-sides="6" data-orb-view="turntable-3" data-projection="spherical" data-strand="7" data-ribbon-depth="over" data-ribbon-trimmed="false" data-orb-style="shaded" />
  <path d="M-9.2071,28.3019 L-14.2877,21.2619 L-11.8916,19.8608 L-6.8109,26.9008 L-9.2071,28.3019 Z" fill="#838383" stroke="#333333" stroke-width="0.4" data-face-index="65" data-sides="4" data-orb-view="turntable-3" data-projection="spherical" data-strand="6" data-ribbon-depth="under" data-ribbon-trimmed="true" data-orb-style="shaded" />
  <path d="M-16.9284,17.3408 L-19.8482,12.6938 L-17.4521,11.2927 L-14.5322,15.9397 L-16.9284,17.3408 Z" fill="#838383" stroke="#333333" stroke-width="0.4" data-face-index="66" data-sides="4" data-orb-view="turntable-3" data-projection="spherical" data-strand="6" data-ribbon-depth="under" data-ribbon-trimmed="true" data-orb-style="shaded" />
  <path d="M-11.6085,4.8266 L-19.9908,6.2068 L-20.4993,3.2510 L-12.1170,1.8708 L-11.6085,4.8266 Z" fill="#848484" stroke="#333333" stroke-width="0.4" data-face-index="67" data-sides="4" data-orb-view="turntable-3" data-projection="spherical" data-strand="3" data-ribbon-depth="under" data-ribbon-trimmed="true" data-orb-style="shaded" />
  <path d="M-24.3566,6.9162 L-29.1949,7.6912 L-29.7034,4.7354 L-24.8651,3.9604 L-24.3566,6.9162 Z" fill="#848484" stroke="#333333" stroke-width="0.4" data-face-index="68" data-sides="4" data-orb-view="turntable-3" data-projection="spherical" data-strand="3" data-ribbon-depth="under" data-ribbon-trimmed="true" data-orb-style="shaded" />
  <path d="M28.3546,-2.1870 L23.4517,-1.2899 L22.9431,-4.2457 L27.8461,-5.1428 L28.3546,-2.1870 Z" fill="#858585" stroke="#333333" stroke-width="0.4" data-face-index="69" data-sides="4" data-orb-view="turntable-3" data-projection="spherical" data-strand="3" data-ribbon-depth="under" data-ribbon-trimmed="true" data-orb-style="shaded" />
  <path d="M19.0393,-0.4926 L10.5888,1.0165 L10.0803,-1.9393 L18.5308,-3.4484 L19.0393,-0.4926 Z" fill="#858585" stroke="#333333" stroke-width="0.4" data-face-index="70" data-sides="4" data-orb-view="turntable-3" data-projection="spherical" data-strand="3" data-ribbon-depth="under" data-ribbon-trimmed="true" data-orb-style="shaded" />
  <path d="M15.9829,-8.5168 L13.0723,-13.1814 L15.4970,-14.6365 L18.4076,-9.9719 L15.9829,-8.5168 Z" fill="#848484" stroke="#333333" stroke-width="0.4" data-face-index="71" data-sides="4" data-orb-view="turntable-3" data-projection="spherical" data-strand="7" data-ribbon-depth="under" data-ribbon-trimmed="true" data-orb-style="shaded" />
  <path d="M10.4495,-17.1362 L5.4200,-24.2728 L7.8447,-25.7279 L12.8742,-18.5912 L10.4495,-17.1362 Z" fill="#848484" stroke="#333333" stroke-width="0.4" data-face-index="72" data-sides="4" data-orb-view="turntable-3" data-projection="spherical" data-strand="7" data-ribbon-depth="under" data-ribbon-trimmed="true" data-orb-style="shaded" />
  <path d="M-7.0142,11.7561 L-14.0745,20.6215 L-18.6783,26.3904 L-21.0282,24.5255 L-16.4244,18.7567 L-9.3641,9.8913 L-7.0142,11.7561 Z" fill="#838383" stroke="#333333" stroke-width="0.4" data-face-index="73" data-sides="6" data-orb-view="turntable-3" data-projection="spherical" data-strand="9" data-ribbon-depth="over" data-ribbon-trimmed="false" data-orb-style="shaded" />
  <path d="M-20.8702,13.3510 L-24.9324,6.0804 L-29.9775,-4.4737 L-27.5814,-5.8748 L-22.5363,4.6793 L-18.4741,11.9498 L-20.8702,13.3510 Z" fill="#838383" stroke="#333333" stroke-width="0.4" data-face-index="74" data-sides="6" data-orb-view="turntable-3" data-projection="spherical" data-strand="6" data-ribbon-depth="over" data-ribbon-trimmed="false" data-orb-style="shaded" />
  <path d="M26.1150,8.6453 L21.0014,-1.7794 L16.9251,-9.0234 L19.3498,-10.4784 L23.4261,-3.2345 L28.5397,7.1902 L26.1150,8.6453 Z" fill="#848484" stroke="#333333" stroke-width="0.4" data-face-index="75" data-sides="6" data-orb-view="turntable-3" data-projection="spherical" data-strand="7" data-ribbon-depth="over" data-ribbon-trimmed="false" data-orb-style="shaded" />
  <path d="M19.6055,-21.8375 L14.9038,-15.8838 L7.7522,-6.8457 L5.4022,-8.7106 L12.5539,-17.7486 L17.2556,-23.7024 L19.6055,-21.8375 Z" fill="#858585" stroke="#333333" stroke-width="0.4" data-face-index="76" data-sides="6" data-orb-view="turntable-3" data-projection="spherical" data-strand="9" data-ribbon-depth="over" data-ribbon-trimmed="false" data-orb-style="shaded" />
  <path d="M7.4105,-6.4417 L1.8839,0.5277 L-0.4660,-1.3372 L5.0606,-8.3065 L7.4105,-6.4417 Z" fill="#898989" stroke="#333333" stroke-width="0.4" data-face-index="77" data-sides="4" data-orb-view="turntable-3" data-projection="spherical" data-strand="9" data-ribbon-depth="under" data-ribbon-trimmed="true" data-orb-style="shaded" />
  <path d="M-1.0852,4.2680 L-6.5888,11.1939 L-8.9387,9.3290 L-3.4352,2.4032 L-1.0852,4.2680 Z" fill="#898989" stroke="#333333" stroke-width="0.4" data-face-index="78" data-sides="4" data-orb-view="turntable-3" data-projection="spherical" data-strand="9" data-ribbon-depth="under" data-ribbon-trimmed="true" data-orb-style="shaded" />
  <path d="M11.1551,0.9912 L-0.5671,3.0298 L-12.2585,5.0101 L-12.7671,2.0543 L-1.0757,0.0740 L10.6465,-1.9646 L11.1551,0.9912 Z" fill="#898989" stroke="#333333" stroke-width="0.4" data-face-index="79" data-sides="6" data-orb-view="turntable-3" data-projection="spherical" data-strand="3" data-ribbon-depth="over" data-ribbon-trimmed="false" data-orb-style="shaded" />
</svg>