<?xml version="1.0" standalone="no"?>
<!DOCTYPE svg PUBLIC "-//W3C//DTD SVG 20010904//EN"
 "http://www.w3.org/TR/2001/REC-SVG-20010904/DTD/svg10.dtd">
<svg version="1.0" xmlns="http://www.w3.org/2000/svg"
 width="856.000000pt" height="722.000000pt" viewBox="0 0 856.000000 722.000000"
 preserveAspectRatio="xMidYMid meet">
<metadata>
Created by potrace 1.16, written by Peter Selinger 2001-2019
</metadata>
<g transform="translate(0.000000,722.000000) scale(0.100000,-0.100000)"
fill="#000000" stroke="none">
<path fill="#F9F38C" fill-rule="evenodd" stroke="#E5D50C" stroke-width="50" stroke-linejoin="round"  d="M2495 7127 c-188 -114 -385 -303 -438 -419 -49 -109 -47 -100 -73
-248 -16 -86 -14 -170 6 -305 16 -107 43 -247 59 -310 6 -22 13 -52 17 -68 3
-15 10 -30 15 -33 5 -3 9 -16 9 -29 0 -13 5 -27 10 -30 6 -3 10 -17 10 -31 0
-13 4 -32 9 -42 5 -9 18 -48 30 -87 22 -68 34 -102 52 -137 5 -10 9 -24 9 -31
0 -7 9 -32 20 -55 11 -22 20 -48 20 -57 0 -8 5 -15 10 -15 6 0 10 -7 10 -15 0
-8 5 -24 10 -35 6 -11 15 -29 20 -40 6 -11 10 -27 10 -35 0 -8 5 -15 10 -15 6
0 10 -7 10 -15 0 -8 4 -23 9 -33 28 -50 91 -189 91 -200 0 -7 5 -12 10 -12 6
0 10 -9 10 -20 0 -11 5 -20 10 -20 6 0 10 -9 10 -20 0 -11 5 -20 10 -20 6 0
10 -9 10 -19 0 -11 3 -21 8 -23 4 -1 18 -25 32 -53 13 -27 50 -89 82 -137 32
-48 58 -92 58 -98 0 -5 3 -10 8 -10 4 0 13 -15 20 -32 7 -18 18 -41 23 -50 38
-71 -14 -97 -256 -129 -311 -40 -509 -76 -655 -118 -19 -5 -46 -13 -60 -16
-26 -7 -64 -22 -92 -36 -10 -5 -27 -9 -38 -9 -11 0 -28 -4 -38 -9 -109 -57
-390 -191 -399 -191 -7 0 -13 -4 -13 -10 0 -5 -6 -10 -14 -10 -7 0 -42 -14
-77 -31 -35 -17 -81 -40 -102 -50 -22 -11 -45 -19 -53 -19 -8 0 -14 -4 -14
-10 0 -5 -6 -10 -13 -10 -7 0 -32 -9 -55 -20 -22 -11 -45 -20 -50 -20 -4 0
-17 -8 -28 -18 -10 -10 -35 -28 -54 -42 -19 -13 -37 -27 -40 -31 -3 -3 -10 -8
-16 -10 -42 -15 -250 -215 -274 -264 -8 -16 -17 -32 -20 -35 -5 -5 -10 -13
-52 -89 -11 -20 -29 -48 -39 -63 -11 -14 -19 -31 -19 -37 0 -6 -4 -11 -10 -11
-5 0 -10 -7 -10 -15 0 -8 -4 -23 -9 -33 -5 -9 -13 -28 -18 -42 -18 -45 -30
-75 -41 -100 -16 -38 -33 -126 -53 -267 -12 -91 2 -227 31 -298 4 -11 14 -40
21 -65 11 -39 32 -82 83 -176 27 -50 136 -172 191 -214 83 -64 157 -103 250
-131 22 -6 50 -15 63 -20 13 -5 37 -9 54 -9 18 0 58 -5 89 -12 46 -9 78 -9
153 1 97 14 139 8 172 -24 14 -13 28 -70 50 -203 4 -23 11 -45 15 -48 5 -3 9
-13 9 -23 0 -10 14 -45 31 -78 65 -126 140 -201 264 -262 59 -29 89 -39 170
-60 22 -5 59 -14 81 -20 105 -28 337 -4 467 48 39 15 47 14 47 -7 0 -10 4 -22
9 -27 5 -6 11 -30 14 -55 11 -93 33 -175 69 -257 16 -36 121 -142 178 -180 51
-33 149 -81 255 -123 49 -19 169 -32 256 -28 73 4 112 12 175 37 81 31 202
107 260 162 33 32 64 31 64 -1 0 -11 5 -22 10 -25 6 -3 10 -15 10 -26 0 -10 4
-27 9 -37 5 -9 16 -33 25 -52 8 -20 26 -49 40 -65 14 -17 26 -33 26 -37 0 -18
156 -129 230 -164 19 -8 43 -20 52 -25 10 -5 27 -9 37 -9 11 0 23 -4 26 -10 8
-13 399 -14 423 -1 9 5 42 21 72 35 62 30 142 75 150 85 3 3 22 19 43 34 36
27 119 141 146 202 7 17 17 38 22 47 5 10 9 29 9 43 0 14 7 37 17 51 22 34 53
26 113 -29 69 -63 114 -97 128 -97 6 0 12 -3 12 -7 0 -9 49 -33 67 -33 7 0 13
-4 13 -10 0 -5 10 -10 23 -10 13 0 27 -4 32 -9 25 -23 274 -38 370 -21 244 41
378 149 495 401 7 15 23 32 35 37 22 10 23 14 19 109 -5 87 -3 101 15 123 18
23 22 24 53 12 19 -6 44 -12 56 -12 11 0 24 -4 27 -10 3 -5 17 -10 30 -10 13
0 26 -4 29 -9 10 -15 76 -23 235 -28 100 -2 158 0 164 6 6 6 24 11 39 11 16 0
36 4 46 9 9 5 37 15 62 22 151 44 252 134 330 293 46 94 51 111 41 134 -14 35
-7 172 11 209 12 25 18 28 53 25 132 -11 436 -12 485 -2 123 26 200 80 354
250 120 132 170 221 212 378 16 60 19 311 5 358 -5 16 -14 56 -21 89 -14 67
-34 105 -54 105 -7 0 -24 21 -37 48 -13 26 -36 66 -51 89 -15 23 -28 46 -28
51 0 6 -4 12 -8 14 -5 2 -28 32 -52 67 -23 35 -49 71 -56 80 -7 9 -25 31 -39
49 -15 18 -59 57 -99 86 -39 30 -100 82 -135 115 -35 34 -68 61 -73 61 -5 0
-29 14 -53 30 -24 17 -48 30 -54 30 -6 0 -11 4 -11 9 0 5 -8 11 -17 14 -18 6
-74 38 -83 47 -10 11 -215 110 -227 110 -7 0 -13 5 -13 10 0 6 -9 10 -20 10
-11 0 -20 5 -20 10 0 6 -7 10 -15 10 -15 0 -25 4 -72 28 -13 7 -30 12 -38 12
-8 0 -15 5 -15 10 0 6 -9 10 -19 10 -11 0 -23 5 -26 10 -3 5 -17 10 -30 10
-13 0 -27 5 -30 10 -3 6 -21 10 -40 10 -19 0 -37 5 -40 10 -3 5 -19 10 -36 10
-16 0 -38 5 -49 10 -11 6 -29 15 -40 20 -11 6 -32 10 -48 10 -16 0 -47 9 -70
20 -22 11 -50 20 -61 20 -11 0 -23 5 -26 10 -3 6 -34 10 -67 10 -58 0 -110 11
-150 31 -10 5 -26 9 -36 9 -10 0 -22 4 -27 9 -6 5 -32 11 -60 14 -58 6 -102
15 -130 27 -11 5 -42 11 -70 15 -116 15 -130 18 -140 30 -6 8 -45 15 -95 18
-91 6 -151 23 -178 51 -24 23 -20 97 7 135 12 16 21 33 21 38 0 4 9 19 20 33
11 14 20 32 20 40 0 8 44 105 99 215 213 430 284 579 284 602 0 13 3 26 8 29
5 3 9 18 9 33 0 15 4 31 8 37 4 5 14 27 21 49 7 22 17 50 22 63 5 12 13 32 18
45 5 12 18 43 30 69 12 26 21 54 21 62 0 8 5 18 10 21 6 3 10 19 10 36 0 16 5
38 10 49 6 11 15 29 20 40 6 11 10 47 10 79 0 33 5 63 10 66 6 3 10 17 10 30
0 13 5 27 10 30 13 8 14 538 1 563 -5 9 -14 31 -21 47 -7 17 -16 38 -21 47 -5
10 -9 24 -9 33 0 37 -88 122 -211 205 -35 24 -82 61 -104 82 -22 21 -44 38
-48 38 -5 0 -27 13 -50 29 -100 68 -103 69 -229 62 -126 -7 -128 -8 -175 -83
-10 -16 -21 -28 -25 -28 -4 0 -8 -9 -8 -20 0 -11 -4 -20 -10 -20 -5 0 -10 -6
-10 -13 0 -7 -12 -28 -28 -47 -15 -19 -34 -48 -42 -65 -8 -16 -18 -32 -21 -35
-3 -3 -12 -15 -18 -28 -7 -13 -19 -31 -26 -40 -8 -9 -36 -46 -62 -82 -64 -87
-85 -110 -97 -110 -6 -1 -46 -34 -88 -74 -171 -161 -348 -263 -548 -316 -25
-6 -59 -16 -76 -21 -17 -5 -45 -9 -64 -9 -18 0 -63 -5 -99 -11 -87 -16 -328 8
-439 43 20 7 -27 7 -35 20 -10 -25 -127 -4 -153 22 -4 4 -14 7 -21 7 -8 0
-23 9 -35 20 -12 11 -32 20 -45 20 -13 0 -23 5 -23 10 0 6 -6 10 -12 10 -7 0
-29 14 -48 30 -19 16 -41 30 -47 30 -7 0 -13 4 -13 8 0 4 -13 16 -30 25 -16
10 -35 23 -42 30 -7 7 -29 24 -48 37 -46 32 -92 74 -220 200 -59 58 -125 122
-148 144 -23 21 -44 47 -47 57 -4 11 -11 19 -16 19 -5 0 -9 7 -9 16 0 14 -33
70 -50 84 -3 3 -17 21 -30 40 -14 19 -33 44 -43 55 -11 11 -26 30 -35 43 -8
13 -34 36 -58 53 -38 26 -51 29 -116 28 -40 0 -82 -6 -93 -12z m129 -78 c43
-20 95 -69 148"/>
</g>
</svg>
