<!DOCTYPE svg PUBLIC "-//W3C//DTD SVG 20010904//EN" "http://www.w3.org/TR/2001/REC-SVG-20010904/DTD/svg10.dtd">
<svg version="1.0" xmlns="http://www.w3.org/2000/svg" width="393px" height="503px" viewBox="0 0 3930 5030" preserveAspectRatio="xMidYMid meet">
<g id="layer101" fill="#000000" stroke="none">
 <path d="M1080 5007 c-16 -8 -28 -26 -34 -49 -10 -40 4 -99 72 -297 l35 -104 -7 -741 c-5 -408 -11 -768 -14 -801 l-7 -60 -54 -7 c-36 -4 -68 -16 -97 -36 l-42 -30 -48 30 c-87 55 -129 49 -197 -28 l-38 -43 -82 -3 c-80 -3 -82 -3 -104 -37 -13 -19 -30 -58 -39 -87 -8 -29 -25 -65 -37 -81 -19 -23 -22 -40 -22 -113 0 -78 3 -91 28 -129 15 -23 50 -55 77 -72 32 -19 64 -51 87 -86 45 -68 85 -88 233 -116 158 -30 172 -34 212 -67 l38 -31 0 -143 c0 -159 14 -223 70 -323 17 -29 30 -66 30 -81 0 -33 -59 -135 -218 -377 -133 -204 -112 -174 -219 -314 -51 -66 -93 -124 -93 -129 0 -12 -135 -172 -168 -200 -47 -39 -135 -79 -212 -96 -78 -18 -154 -55 -163 -80 -7 -18 57 -53 113 -62 33 -5 52 -1 103 24 76 38 267 188 348 274 73 77 289 324 289 330 0 2 39 44 88 94 48 49 139 145 203 214 64 69 120 122 123 119 4 -3 9 -35 12 -70 7 -88 -10 -114 -112 -164 -169 -82 -240 -161 -237 -266 0 -32 10 -76 21 -102 11 -25 26 -71 32 -101 12 -58 44 -96 82 -96 10 0 33 -6 51 -14 28 -11 36 -22 50 -72 9 -33 24 -101 32 -152 9 -51 20 -103 24 -115 10 -26 131 -87 178 -89 45 -2 214 12 258 22 128 27 181 46 237 82 55 35 66 39 103 33 26 -3 51 -15 65 -30 21 -22 32 -25 94 -25 123 0 215 60 305 198 l51 77 0 110 c0 102 -2 115 -31 175 -35 75 -69 114 -122 141 -21 11 -41 28 -44 37 -3 9 -22 53 -43 97 -69 152 -189 262 -363 333 -72 30 -176 35 -242 12 -72 -25 -146 -7 -170 41 -22 42 -19 60 8 55 20 -5 130 -19 242 -31 192 -21 501 -74 595 -103 45 -13 94 -15 276 -13 168 2 227 0 242 -10 18 -12 27 -9 69 20 105 74 149 134 122 167 -19 23 -59 14 -186 -42 -106 -47 -110 -48 -208 -48 -88 0 -129 7 -335 58 -129 31 -247 64 -262 72 -15 8 -40 17 -55 20 -70 11 -151 33 -178 47 -17 8 -64 25 -105 37 -41 13 -95 33 -120 46 -25 13 -65 30 -90 37 -51 14 -75 49 -64 92 7 30 83 95 110 95 25 0 63 -26 110 -75 22 -22 68 -58 104 -80 59 -36 71 -39 127 -37 34 1 87 11 117 23 31 11 65 18 75 14 75 -23 211 97 182 161 -9 19 -6 28 15 54 14 16 32 30 40 30 9 0 50 -18 92 -39 42 -22 89 -45 105 -50 15 -6 27 -15 27 -20 0 -5 10 -13 23 -17 12 -3 29 -12 37 -19 8 -7 33 -18 55 -25 22 -7 51 -20 65 -30 38 -25 244 -138 273 -149 14 -6 63 -34 109 -64 74 -48 90 -63 133 -133 51 -82 107 -146 138 -157 12 -4 45 5 87 23 38 16 79 30 93 30 22 0 89 -28 157 -66 35 -19 109 -29 122 -16 27 27 -101 174 -172 200 -19 7 -81 25 -136 41 -56 16 -128 42 -159 56 -65 31 -430 276 -596 401 -130 97 -167 123 -214 149 -27 16 -69 45 -91 66 -23 21 -59 48 -81 62 -39 25 -143 131 -143 147 0 16 -61 52 -113 66 -55 14 -77 34 -77 70 0 52 -87 117 -172 130 -52 8 -84 26 -93 53 -7 22 -59 41 -113 41 -25 0 -48 12 -92 49 -55 46 -148 91 -188 91 -34 0 -40 16 -52 145 -6 72 -22 218 -36 325 -30 244 -79 706 -99 951 l-15 186 32 79 c27 66 32 92 33 159 0 76 -1 80 -26 92 -32 16 -102 130 -119 195 -7 26 -18 52 -24 57 -21 17 -61 21 -86 8z"/>
 </g>

</svg>