<!-- <svg version="1.1" viewBox="0.0 0.0 608.3989501312336 593.8687664041995" fill="none" stroke="none" stroke-linecap="square" stroke-miterlimit="10" xmlns:xlink="http://www.w3.org/1999/xlink" xmlns="http://www.w3.org/2000/svg"> -->
<svg version="1.1" fill="none" stroke="none" stroke-linecap="square" stroke-miterlimit="10" xmlns:xlink="http://www.w3.org/1999/xlink" xmlns="http://www.w3.org/2000/svg">
    <!-- <clipPath id="p.0">
        <path d="m0 0l608.3989 0l0 593.8688l-608.3989 0l0 -593.8688z" clip-rule="nonzero"/>
    </clipPath> -->
    <g clip-path="url(#p.0)">
        <!-- <path fill="#000000" fill-opacity="0.0" d="m0 0l608.3989 0l0 593.8688l-608.3989 0z" fill-rule="evenodd"/> -->
        <path fill="#000000" fill-opacity="0.0" d="m316.30838 135.0614c-11.004791 9.798767 -24.873993 31.958878 -40.7034 35.27559c-15.829407 3.3167114 -43.117233 -1.506134 -54.272964 -15.375336c-11.155731 -13.869202 -9.646545 -53.21653 -12.661423 -67.83989c-3.0148773 -14.62336 -1.8097076 -11.910324 -5.427826 -19.900269c-3.618103 -7.989937 -9.805771 -19.446629 -16.280838 -28.039368c-6.475067 -8.592739 -16.094482 -18.692913 -22.56955 -23.51706c-6.475067 -4.824147 -9.044617 -6.7847767 -16.280838 -5.427821c-7.2362213 1.3569555 -4.515747 -0.45056915 -27.13649 13.569553c-22.620735 14.020123 -89.2839 50.651794 -108.58792 70.55118c-19.304024 19.899391 -11.306649 35.88015 -7.236221 48.845146c4.0704284 12.965012 17.789152 23.216537 31.658792 28.944885c13.86964 5.728348 40.55381 0.2996521 51.55906 5.4252014c11.005249 5.125534 11.909882 12.965866 14.472435 25.32808c2.562561 12.362198 1.3552094 34.674545 0.90289307 48.84514c-0.4523239 14.170593 -4.0691223 20.65091 -3.6167984 36.178467c0.45231628 15.527588 0.15003967 40.25287 6.3307037 56.986877c6.180664 16.73404 22.461502 32.56302 30.75328 43.417328c8.291779 10.85434 16.735779 11.005249 18.997375 21.70868c2.2615967 10.7034 3.466751 22.612427 -5.427826 42.51181c-8.894562 19.899384 -40.100166 57.73883 -47.93963 76.88449c-7.8394547 19.14569 -4.3735733 28.190735 0.90289307 37.989502c5.2764587 9.798767 17.489494 16.431335 30.755898 20.803162c13.266403 4.371826 34.973328 6.3320312 48.84253 5.4277954c13.869202 -0.9041748 25.32721 -2.260254 34.372696 -10.852966c9.045502 -8.592773 15.377518 -29.24585 19.900269 -40.70343c4.522751 -11.457581 5.578293 -19.297913 7.2362213 -28.041992c1.6579132 -8.74411 0.45013428 -14.4729 2.7112885 -24.422577c2.2611542 -9.949707 6.1819763 -25.175415 10.855621 -35.275604c4.6736755 -10.100159 7.990387 -19.295258 17.18637 -25.32544c9.195984 -6.030182 24.27121 -8.141754 37.989502 -10.855652c13.718292 -2.7138977 32.109344 -4.5231934 44.32019 -5.427826c12.210876 -0.90463257 22.612885 -1.8092651 28.944885 0c6.3320312 1.8092651 8.745422 4.3731384 9.047241 10.855652c0.30184937 6.482483 -3.7685852 16.582245 -7.236206 28.039368c-3.4676208 11.457123 -9.649597 27.889313 -13.56955 40.7034c-3.9199524 12.814087 -7.5380554 25.477234 -9.950134 36.18109c-2.4120789 10.703857 -5.426941 18.996521 -4.5223083 28.041992c0.90463257 9.045532 4.272461E-4 21.55774 9.950134 26.231018c9.9496765 4.673218 34.22046 1.9592896 49.748016 1.8083496c15.527557 -0.1508789 31.658356 -0.60321045 43.417328 -2.7138672c11.758972 -2.1107178 20.947937 -5.2769165 27.136475 -9.950134c6.1885376 -4.673218 6.9794617 -9.496521 9.994751 -18.089233c3.0153198 -8.592773 7.1999207 -20.049866 8.097137 -33.467224c0.8971863 -13.417297 -2.8644104 -31.207336 -2.7139282 -47.036743c0.15048218 -15.829376 -0.15179443 -34.522736 3.6167908 -47.939636c3.7686157 -13.41687 11.155334 -20.953613 18.994751 -32.561676c7.8394775 -11.608032 20.504395 -25.478546 28.041992 -37.08661c7.5376587 -11.608032 11.455383 -19.144775 17.183716 -32.561676c5.7283936 -13.41687 15.980347 -31.356506 17.186401 -47.939636c1.2059937 -16.5831 -3.015747 -36.634293 -9.950134 -51.55905c-6.934387 -14.924759 -18.69165 -27.437012 -31.656189 -37.989502c-12.964539 -10.55249 -35.57831 -15.526688 -46.131226 -25.325455c-10.552948 -9.798782 -9.346893 -22.61287 -17.18637 -33.467194c-7.839447 -10.854332 -17.940948 -23.970253 -29.850372 -31.65879c-11.909454 -7.6885376 -27.28479 -13.56781 -41.606323 -14.472443c-14.321503 -0.9046402 -32.11154 3.919075 -44.322815 9.044617c-12.211304 5.1255493 -19.899841 14.171043 -28.944885 21.708664c-9.045044 7.5376205 -14.320648 13.718285 -25.32547 23.517067z" fill-rule="evenodd"/>
        <path stroke="#000000" stroke-width="1.0" stroke-linejoin="round" stroke-linecap="butt" d="m316.30838 135.0614c-11.004791 9.798767 -24.873993 31.958878 -40.7034 35.27559c-15.829407 3.3167114 -43.117233 -1.506134 -54.272964 -15.375336c-11.155731 -13.869202 -9.646545 -53.21653 -12.661423 -67.83989c-3.0148773 -14.62336 -1.8097076 -11.910324 -5.427826 -19.900269c-3.618103 -7.989937 -9.805771 -19.446629 -16.280838 -28.039368c-6.475067 -8.592739 -16.094482 -18.692913 -22.56955 -23.51706c-6.475067 -4.824147 -9.044617 -6.7847767 -16.280838 -5.427821c-7.2362213 1.3569555 -4.515747 -0.45056915 -27.13649 13.569553c-22.620735 14.020123 -89.2839 50.651794 -108.58792 70.55118c-19.304024 19.899391 -11.306649 35.88015 -7.236221 48.845146c4.0704284 12.965012 17.789152 23.216537 31.658792 28.944885c13.86964 5.728348 40.55381 0.2996521 51.55906 5.4252014c11.005249 5.125534 11.909882 12.965866 14.472435 25.32808c2.562561 12.362198 1.3552094 34.674545 0.90289307 48.84514c-0.4523239 14.170593 -4.0691223 20.65091 -3.6167984 36.178467c0.45231628 15.527588 0.15003967 40.25287 6.3307037 56.986877c6.180664 16.73404 22.461502 32.56302 30.75328 43.417328c8.291779 10.85434 16.735779 11.005249 18.997375 21.70868c2.2615967 10.7034 3.466751 22.612427 -5.427826 42.51181c-8.894562 19.899384 -40.100166 57.73883 -47.93963 76.88449c-7.8394547 19.14569 -4.3735733 28.190735 0.90289307 37.989502c5.2764587 9.798767 17.489494 16.431335 30.755898 20.803162c13.266403 4.371826 34.973328 6.3320312 48.84253 5.4277954c13.869202 -0.9041748 25.32721 -2.260254 34.372696 -10.852966c9.045502 -8.592773 15.377518 -29.24585 19.900269 -40.70343c4.522751 -11.457581 5.578293 -19.297913 7.2362213 -28.041992c1.6579132 -8.74411 0.45013428 -14.4729 2.7112885 -24.422577c2.2611542 -9.949707 6.1819763 -25.175415 10.855621 -35.275604c4.6736755 -10.100159 7.990387 -19.295258 17.18637 -25.32544c9.195984 -6.030182 24.27121 -8.141754 37.989502 -10.855652c13.718292 -2.7138977 32.109344 -4.5231934 44.32019 -5.427826c12.210876 -0.90463257 22.612885 -1.8092651 28.944885 0c6.3320312 1.8092651 8.745422 4.3731384 9.047241 10.855652c0.30184937 6.482483 -3.7685852 16.582245 -7.236206 28.039368c-3.4676208 11.457123 -9.649597 27.889313 -13.56955 40.7034c-3.9199524 12.814087 -7.5380554 25.477234 -9.950134 36.18109c-2.4120789 10.703857 -5.426941 18.996521 -4.5223083 28.041992c0.90463257 9.045532 4.272461E-4 21.55774 9.950134 26.231018c9.9496765 4.673218 34.22046 1.9592896 49.748016 1.8083496c15.527557 -0.1508789 31.658356 -0.60321045 43.417328 -2.7138672c11.758972 -2.1107178 20.947937 -5.2769165 27.136475 -9.950134c6.1885376 -4.673218 6.9794617 -9.496521 9.994751 -18.089233c3.0153198 -8.592773 7.1999207 -20.049866 8.097137 -33.467224c0.8971863 -13.417297 -2.8644104 -31.207336 -2.7139282 -47.036743c0.15048218 -15.829376 -0.15179443 -34.522736 3.6167908 -47.939636c3.7686157 -13.41687 11.155334 -20.953613 18.994751 -32.561676c7.8394775 -11.608032 20.504395 -25.478546 28.041992 -37.08661c7.5376587 -11.608032 11.455383 -19.144775 17.183716 -32.561676c5.7283936 -13.41687 15.980347 -31.356506 17.186401 -47.939636c1.2059937 -16.5831 -3.015747 -36.634293 -9.950134 -51.55905c-6.934387 -14.924759 -18.69165 -27.437012 -31.656189 -37.989502c-12.964539 -10.55249 -35.57831 -15.526688 -46.131226 -25.325455c-10.552948 -9.798782 -9.346893 -22.61287 -17.18637 -33.467194c-7.839447 -10.854332 -17.940948 -23.970253 -29.850372 -31.65879c-11.909454 -7.6885376 -27.28479 -13.56781 -41.606323 -14.472443c-14.321503 -0.9046402 -32.11154 3.919075 -44.322815 9.044617c-12.211304 5.1255493 -19.899841 14.171043 -28.944885 21.708664c-9.045044 7.5376205 -14.320648 13.718285 -25.32547 23.517067z" fill-rule="evenodd"/>
    </g>
</svg>