<svg version="1.1" viewBox="0.0 0.0 746.3228346456693 616.2572178477691" fill="none" stroke="none" stroke-linecap="square" stroke-miterlimit="10" xmlns:xlink="http://www.w3.org/1999/xlink" xmlns="http://www.w3.org/2000/svg"><clipPath id="p.0"><path d="m0 0l746.3228 0l0 616.2572l-746.3228 0l0 -616.2572z" clip-rule="nonzero"/></clipPath><g clip-path="url(#p.0)"><path fill="#000000" fill-opacity="0.0" d="m0 0l746.3228 0l0 616.2572l-746.3228 0z" fill-rule="evenodd"/><path fill="#000000" d="m156.58551 254.23825c2.249771 6.587494 -6.7458496 31.0083 -9.637802 46.270355c-2.8919525 15.262024 -5.7856445 27.629456 -7.713913 45.30182c-1.9282532 17.672363 -4.1767273 41.61331 -3.8556366 60.7323c0.3210907 19.118988 2.0870514 36.309265 5.7821503 53.98163c3.6950989 17.672333 8.997818 37.11154 16.388458 52.05249c7.3906403 14.940918 15.102798 25.383179 27.955383 37.59314c12.85257 12.210022 30.524048 26.669739 49.160095 35.666687c18.636047 8.996948 42.251984 13.977234 62.65616 18.314941c20.404205 4.3377075 40.32898 6.908142 59.769043 7.7113037c19.440063 0.8031616 38.87796 -0.4824829 56.8714 -2.892395c17.993439 -2.409851 35.02362 -6.2650757 51.089233 -11.566895c16.065613 -5.30188 31.32721 -10.765564 45.304443 -20.24414c13.977264 -9.478516 27.955414 -22.168396 38.55905 -36.62726c10.603699 -14.458862 18.315002 -32.614197 25.062988 -50.126007c6.748047 -17.51181 12.372742 -36.147858 15.425232 -54.944885c3.0524902 -18.796997 4.0148315 -31.328522 2.8897705 -57.83725c-1.1251221 -26.508759 -13.1622925 -85.14963 -9.640442 -101.21524c3.5218506 -16.065613 16.954956 1.1264343 30.771667 4.821533c13.816711 3.6950989 35.08618 14.618103 52.1286 17.34909c17.04242 2.730957 37.594482 2.4107666 50.125977 -0.96325684c12.531494 -3.3740234 22.492554 -8.355652 25.062988 -19.280853c2.5704346 -10.925201 -3.695984 -31.650482 -9.640442 -46.27034c-5.944397 -14.619858 -16.065613 -29.238846 -26.026245 -41.448807c-9.960632 -12.209976 -20.884949 -22.171478 -33.737488 -31.811035c-12.8526 -9.639542 -30.52539 -20.081802 -43.37799 -26.026245c-12.852539 -5.9444427 -22.330688 -5.6237946 -33.737488 -9.640419c-11.40686 -4.0166245 -27.461975 -5.305771 -34.70343 -14.459312c-7.241455 -9.153549 -3.7537231 -29.38102 -8.745422 -40.461945c-4.991699 -11.080929 -11.737549 -19.9147 -21.204712 -26.023624c-9.467224 -6.108921 -24.685028 -9.179787 -35.59842 -10.629919c-10.913391 -1.4501324 -21.206482 4.9816265 -29.881897 1.9291325c-8.675415 -3.0524921 -13.807098 -15.590113 -22.170593 -20.244095c-8.363525 -4.6539803 -19.174103 -6.716098 -28.010498 -7.67979c-8.836395 -0.9636917 -17.465881 -0.506999 -25.007874 1.8976378c-7.5420227 2.4046373 -13.48819 12.685914 -20.24411 12.530185c-6.75589 -0.1557312 -11.13385 -10.893702 -20.291351 -13.464567c-9.157471 -2.5708663 -24.540222 -2.7589679 -34.653534 -1.9606299c-10.113281 0.79833746 -18.790009 2.8897634 -26.026245 6.750656c-7.236206 3.8608923 -10.32196 15.129484 -17.391083 16.414698c-7.069092 1.2852154 -15.551178 -8.216536 -25.023605 -8.703411c-9.472443 -0.48687744 -21.684174 1.2795277 -31.811035 5.782152c-10.126862 4.5026245 -22.685028 13.36133 -28.950119 21.233595c-6.265106 7.872265 -6.718292 17.971127 -8.640427 26.000004c-1.9221344 8.02887 0.48162842 16.710846 -2.892395 22.173225c-3.3740082 5.4623795 -9.800522 7.5485535 -17.3517 10.601051c-7.551178 3.0524902 -15.263336 2.4120712 -27.955383 7.7139053c-12.6920395 5.3018417 -34.70166 15.4217 -48.196846 24.097122c-13.4951935 8.675415 -23.134735 18.315826 -32.77428 27.955368c-9.639545 9.639557 -18.31496 20.402893 -25.062992 29.881897c-6.7480316 9.479004 -13.014873 18.316269 -15.425197 26.992126c-2.4103236 8.675858 -0.80446196 17.673233 0.96325445 25.062988c1.7677169 7.3897705 2.2524066 14.7773285 9.643045 19.275589c7.3906384 4.4982605 20.723534 6.9103394 34.700787 7.713928c13.977257 0.80358887 35.506996 -0.80358887 49.162727 -2.892395c13.655731 -2.0888062 23.453636 -6.9094543 32.771652 -9.640411c9.318024 -2.7309875 20.886703 -13.332916 23.13649 -6.7454224z" fill-rule="evenodd"/><path stroke="#000000" stroke-width="1.0" stroke-linejoin="round" stroke-linecap="butt" d="m156.58551 254.23825c2.249771 6.587494 -6.7458496 31.0083 -9.637802 46.270355c-2.8919525 15.262024 -5.7856445 27.629456 -7.713913 45.30182c-1.9282532 17.672363 -4.1767273 41.61331 -3.8556366 60.7323c0.3210907 19.118988 2.0870514 36.309265 5.7821503 53.98163c3.6950989 17.672333 8.997818 37.11154 16.388458 52.05249c7.3906403 14.940918 15.102798 25.383179 27.955383 37.59314c12.85257 12.210022 30.524048 26.669739 49.160095 35.666687c18.636047 8.996948 42.251984 13.977234 62.65616 18.314941c20.404205 4.3377075 40.32898 6.908142 59.769043 7.7113037c19.440063 0.8031616 38.87796 -0.4824829 56.8714 -2.892395c17.993439 -2.409851 35.02362 -6.2650757 51.089233 -11.566895c16.065613 -5.30188 31.32721 -10.765564 45.304443 -20.24414c13.977264 -9.478516 27.955414 -22.168396 38.55905 -36.62726c10.603699 -14.458862 18.315002 -32.614197 25.062988 -50.126007c6.748047 -17.51181 12.372742 -36.147858 15.425232 -54.944885c3.0524902 -18.796997 4.0148315 -31.328522 2.8897705 -57.83725c-1.1251221 -26.508759 -13.1622925 -85.14963 -9.640442 -101.21524c3.5218506 -16.065613 16.954956 1.1264343 30.771667 4.821533c13.816711 3.6950989 35.08618 14.618103 52.1286 17.34909c17.04242 2.730957 37.594482 2.4107666 50.125977 -0.96325684c12.531494 -3.3740234 22.492554 -8.355652 25.062988 -19.280853c2.5704346 -10.925201 -3.695984 -31.650482 -9.640442 -46.27034c-5.944397 -14.619858 -16.065613 -29.238846 -26.026245 -41.448807c-9.960632 -12.209976 -20.884949 -22.171478 -33.737488 -31.811035c-12.8526 -9.639542 -30.52539 -20.081802 -43.37799 -26.026245c-12.852539 -5.9444427 -22.330688 -5.6237946 -33.737488 -9.640419c-11.40686 -4.0166245 -27.461975 -5.305771 -34.70343 -14.459312c-7.241455 -9.153549 -3.7537231 -29.38102 -8.745422 -40.461945c-4.991699 -11.080929 -11.737549 -19.9147 -21.204712 -26.023624c-9.467224 -6.108921 -24.685028 -9.179787 -35.59842 -10.629919c-10.913391 -1.4501324 -21.206482 4.9816265 -29.881897 1.9291325c-8.675415 -3.0524921 -13.807098 -15.590113 -22.170593 -20.244095c-8.363525 -4.6539803 -19.174103 -6.716098 -28.010498 -7.67979c-8.836395 -0.9636917 -17.465881 -0.506999 -25.007874 1.8976378c-7.5420227 2.4046373 -13.48819 12.685914 -20.24411 12.530185c-6.75589 -0.1557312 -11.13385 -10.893702 -20.291351 -13.464567c-9.157471 -2.5708663 -24.540222 -2.7589679 -34.653534 -1.9606299c-10.113281 0.79833746 -18.790009 2.8897634 -26.026245 6.750656c-7.236206 3.8608923 -10.32196 15.129484 -17.391083 16.414698c-7.069092 1.2852154 -15.551178 -8.216536 -25.023605 -8.703411c-9.472443 -0.48687744 -21.684174 1.2795277 -31.811035 5.782152c-10.126862 4.5026245 -22.685028 13.36133 -28.950119 21.233595c-6.265106 7.872265 -6.718292 17.971127 -8.640427 26.000004c-1.9221344 8.02887 0.48162842 16.710846 -2.892395 22.173225c-3.3740082 5.4623795 -9.800522 7.5485535 -17.3517 10.601051c-7.551178 3.0524902 -15.263336 2.4120712 -27.955383 7.7139053c-12.6920395 5.3018417 -34.70166 15.4217 -48.196846 24.097122c-13.4951935 8.675415 -23.134735 18.315826 -32.77428 27.955368c-9.639545 9.639557 -18.31496 20.402893 -25.062992 29.881897c-6.7480316 9.479004 -13.014873 18.316269 -15.425197 26.992126c-2.4103236 8.675858 -0.80446196 17.673233 0.96325445 25.062988c1.7677169 7.3897705 2.2524066 14.7773285 9.643045 19.275589c7.3906384 4.4982605 20.723534 6.9103394 34.700787 7.713928c13.977257 0.80358887 35.506996 -0.80358887 49.162727 -2.892395c13.655731 -2.0888062 23.453636 -6.9094543 32.771652 -9.640411c9.318024 -2.7309875 20.886703 -13.332916 23.13649 -6.7454224z" fill-rule="evenodd"/></g></svg>