<svg xmlns="http://www.w3.org/2000/svg" viewBox="-70.00 -70.00 140.00 140.00" width="140" height="140" data-orb-view="turntable-25" data-projection="spherical">
  <rect x="-70.00" y="-70.00" width="140.00" height="140.00" fill="#ffffff" pointer-events="none" />
  <circle cx="0" cy="0" r="60.00" fill="none" stroke="#333333" stroke-width="0.4" data-orb-silhouette="true" />
  <path d="M-40.0971,35.6093 L-21.4188,18.4255 L13.8645,27.0764 L-1.7066,40.6256 L-18.5493,27.7076 L-21.3641,43.7340 L-40.0971,35.6093 Z" fill="#757575" stroke="#333333" stroke-width="0.4" data-face-index="0" data-sides="6" data-orb-view="turntable-25" data-projection="spherical" data-orb-base-face="0" data-orb-style="shaded" />
  <path d="M-1.7066,40.6256 L13.8645,27.0764 L18.9506,42.9490 L7.5034,45.3595 L-1.7066,40.6256 Z" fill="#747474" stroke="#333333" stroke-width="0.4" data-face-index="1" data-sides="4" data-orb-view="turntable-25" data-projection="spherical" data-orb-base-face="0" data-orb-style="shaded" />
  <path d="M-1.7066,40.6256 L-10.0388,45.7011 L-21.3641,43.7340 L-18.5493,27.7076 L-1.7066,40.6256 Z" fill="#737373" stroke="#333333" stroke-width="0.4" data-face-index="2" data-sides="4" data-orb-view="turntable-25" data-projection="spherical" data-orb-base-face="0" data-orb-style="shaded" />
  <path d="M-10.0388,45.7011 L-1.7066,40.6256 L7.5034,45.3595 L-10.0388,45.7011 Z" fill="#717171" stroke="#333333" stroke-width="0.4" data-face-index="3" data-sides="3" data-orb-view="turntable-25" data-projection="spherical" data-orb-base-face="0" data-orb-style="shaded" />
  <path d="M-10.0388,45.7011 L-21.7004,49.9775 L-21.3641,43.7340 L-10.0388,45.7011 Z" fill="#676767" stroke="#333333" stroke-width="0.4" data-face-index="4" data-sides="3" data-orb-view="turntable-25" data-projection="spherical" data-orb-base-face="0" data-orb-style="shaded" />
  <path d="M38.1566,34.0854 L28.5067,49.3431 L20.6502,49.1528 L18.9506,42.9490 L38.1566,34.0854 Z" fill="#626262" stroke="#333333" stroke-width="0.4" data-face-index="5" data-sides="4" data-orb-view="turntable-25" data-projection="spherical" data-orb-base-face="0" data-orb-style="shaded" />
  <path d="M18.9506,42.9490 L20.6502,49.1528 L7.5034,45.3595 L18.9506,42.9490 Z" fill="#6a6a6a" stroke="#333333" stroke-width="0.4" data-face-index="6" data-sides="3" data-orb-view="turntable-25" data-projection="spherical" data-orb-base-face="0" data-orb-style="shaded" />
  <path d="M-21.4188,18.4255 L-40.0971,35.6093 L-46.2995,15.9803 L-30.2934,14.6360 L-41.2488,-3.3859 L-26.2326,-17.5526 L-21.4188,18.4255 Z" fill="#757575" stroke="#333333" stroke-width="0.4" data-face-index="7" data-sides="6" data-orb-view="turntable-25" data-projection="spherical" data-orb-base-face="4" data-orb-style="shaded" />
  <path d="M-46.2995,15.9803 L-52.3894,15.8199 L-47.0837,4.4693 L-46.2995,15.9803 Z" fill="#676767" stroke="#333333" stroke-width="0.4" data-face-index="8" data-sides="3" data-orb-view="turntable-25" data-projection="spherical" data-orb-base-face="4" data-orb-style="shaded" />
  <path d="M-30.2934,14.6360 L-46.2995,15.9803 L-47.0837,4.4693 L-41.2488,-3.3859 L-30.2934,14.6360 Z" fill="#727272" stroke="#333333" stroke-width="0.4" data-face-index="9" data-sides="4" data-orb-view="turntable-25" data-projection="spherical" data-orb-base-face="4" data-orb-style="shaded" />
  <path d="M-41.2488,-3.3859 L-47.0837,4.4693 L-44.8860,-12.9511 L-41.2488,-3.3859 Z" fill="#707070" stroke="#333333" stroke-width="0.4" data-face-index="10" data-sides="3" data-orb-view="turntable-25" data-projection="spherical" data-orb-base-face="4" data-orb-style="shaded" />
  <path d="M-26.2326,-17.5526 L-41.2488,-3.3859 L-44.8860,-12.9511 L-41.2488,-24.0544 L-26.2326,-17.5526 Z" fill="#737373" stroke="#333333" stroke-width="0.4" data-face-index="11" data-sides="4" data-orb-view="turntable-25" data-projection="spherical" data-orb-base-face="4" data-orb-style="shaded" />
  <path d="M-41.2488,-24.0544 L-44.8860,-12.9511 L-47.0837,-26.2366 L-41.2488,-24.0544 Z" fill="#686868" stroke="#333333" stroke-width="0.4" data-face-index="12" data-sides="3" data-orb-view="turntable-25" data-projection="spherical" data-orb-base-face="4" data-orb-style="shaded" />
  <path d="M13.8645,27.0764 L-21.4188,18.4255 L-26.2326,-17.5526 L-7.6915,-8.6923 L-14.4885,12.1368 L6.9154,7.5654 L13.8645,27.0764 Z" fill="#848484" stroke="#333333" stroke-width="0.4" data-face-index="13" data-sides="6" data-orb-view="turntable-25" data-projection="spherical" data-orb-base-face="5" data-orb-style="shaded" />
  <path d="M44.0594,25.7900 L13.8645,27.0764 L27.5725,9.8888 L42.2174,18.5147 L42.1794,-3.0832 L53.9616,-8.5330 L44.0594,25.7900 Z" fill="#717171" stroke="#333333" stroke-width="0.4" data-face-index="14" data-sides="6" data-orb-view="turntable-25" data-projection="spherical" data-orb-base-face="5" data-orb-style="shaded" />
  <path d="M-21.4188,-47.0888 L13.8645,-53.1620 L6.9154,-42.3328 L-14.4885,-44.6003 L-7.6915,-29.3608 L-26.2326,-17.5526 L-21.4188,-47.0888 Z" fill="#707070" stroke="#333333" stroke-width="0.4" data-face-index="15" data-sides="6" data-orb-view="turntable-25" data-projection="spherical" data-orb-base-face="5" data-orb-style="shaded" />
  <path d="M-7.6915,-8.6923 L-26.2326,-17.5526 L-7.6915,-29.3608 L-3.5856,-19.4819 L-7.6915,-8.6923 Z" fill="#838383" stroke="#333333" stroke-width="0.4" data-face-index="16" data-sides="4" data-orb-view="turntable-25" data-projection="spherical" data-orb-base-face="5" data-orb-style="shaded" />
  <path d="M-7.6915,-8.6923 L2.7703,-3.4141 L6.9154,7.5654 L-14.4885,12.1368 L-7.6915,-8.6923 Z" fill="#888888" stroke="#333333" stroke-width="0.4" data-face-index="17" data-sides="4" data-orb-view="turntable-25" data-projection="spherical" data-orb-base-face="5" data-orb-style="shaded" />
  <path d="M2.7703,-3.4141 L-7.6915,-8.6923 L-3.5856,-19.4819 L2.7703,-3.4141 Z" fill="#888888" stroke="#333333" stroke-width="0.4" data-face-index="18" data-sides="3" data-orb-view="turntable-25" data-projection="spherical" data-orb-base-face="5" data-orb-style="shaded" />
  <path d="M2.7703,-3.4141 L18.1148,4.6711 L6.9154,7.5654 L2.7703,-3.4141 Z" fill="#888888" stroke="#333333" stroke-width="0.4" data-face-index="19" data-sides="3" data-orb-view="turntable-25" data-projection="spherical" data-orb-base-face="5" data-orb-style="shaded" />
  <path d="M18.1148,4.6711 L2.7703,-3.4141 L-3.5856,-19.4819 L2.7703,-34.1200 L18.1148,-38.7536 L33.4593,-30.6683 L39.8152,-14.6005 L33.4593,0.0375 L18.1148,4.6711 Z" fill="#7d7d7d" stroke="#333333" stroke-width="0.4" data-face-index="20" data-sides="8" data-orb-view="turntable-25" data-projection="spherical" data-orb-base-face="5" data-orb-style="shaded" />
  <path d="M18.1148,4.6711 L27.5725,9.8888 L13.8645,27.0764 L6.9154,7.5654 L18.1148,4.6711 Z" fill="#848484" stroke="#333333" stroke-width="0.4" data-face-index="21" data-sides="4" data-orb-view="turntable-25" data-projection="spherical" data-orb-base-face="5" data-orb-style="shaded" />
  <path d="M27.5725,9.8888 L18.1148,4.6711 L33.4593,0.0375 L27.5725,9.8888 Z" fill="#818181" stroke="#333333" stroke-width="0.4" data-face-index="22" data-sides="3" data-orb-view="turntable-25" data-projection="spherical" data-orb-base-face="5" data-orb-style="shaded" />
  <path d="M42.2174,18.5147 L27.5725,9.8888 L33.4593,0.0375 L42.1794,-3.0832 L42.2174,18.5147 Z" fill="#787878" stroke="#333333" stroke-width="0.4" data-face-index="23" data-sides="4" data-orb-view="turntable-25" data-projection="spherical" data-orb-base-face="5" data-orb-style="shaded" />
  <path d="M42.1794,-3.0832 L33.4593,0.0375 L39.8152,-14.6005 L42.1794,-3.0832 Z" fill="#777777" stroke="#333333" stroke-width="0.4" data-face-index="24" data-sides="3" data-orb-view="turntable-25" data-projection="spherical" data-orb-base-face="5" data-orb-style="shaded" />
  <path d="M53.9616,-8.5330 L42.1794,-3.0832 L39.8152,-14.6005 L42.1794,-23.7517 L53.9616,-8.5330 Z" fill="#6c6c6c" stroke="#333333" stroke-width="0.4" data-face-index="25" data-sides="4" data-orb-view="turntable-25" data-projection="spherical" data-orb-base-face="5" data-orb-style="shaded" />
  <path d="M42.1794,-23.7517 L39.8152,-14.6005 L33.4593,-30.6683 L42.1794,-23.7517 Z" fill="#6f6f6f" stroke="#333333" stroke-width="0.4" data-face-index="26" data-sides="3" data-orb-view="turntable-25" data-projection="spherical" data-orb-base-face="5" data-orb-style="shaded" />
  <path d="M42.2174,-38.2224 L42.1794,-23.7517 L33.4593,-30.6683 L27.5725,-40.0095 L42.2174,-38.2224 Z" fill="#676767" stroke="#333333" stroke-width="0.4" data-face-index="27" data-sides="4" data-orb-view="turntable-25" data-projection="spherical" data-orb-base-face="5" data-orb-style="shaded" />
  <path d="M27.5725,-40.0095 L33.4593,-30.6683 L18.1148,-38.7536 L27.5725,-40.0095 Z" fill="#6f6f6f" stroke="#333333" stroke-width="0.4" data-face-index="28" data-sides="3" data-orb-view="turntable-25" data-projection="spherical" data-orb-base-face="5" data-orb-style="shaded" />
  <path d="M13.8645,-53.1620 L27.5725,-40.0095 L18.1148,-38.7536 L6.9154,-42.3328 L13.8645,-53.1620 Z" fill="#6b6b6b" stroke="#333333" stroke-width="0.4" data-face-index="29" data-sides="4" data-orb-view="turntable-25" data-projection="spherical" data-orb-base-face="5" data-orb-style="shaded" />
  <path d="M6.9154,-42.3328 L18.1148,-38.7536 L2.7703,-34.1200 L6.9154,-42.3328 Z" fill="#767676" stroke="#333333" stroke-width="0.4" data-face-index="30" data-sides="3" data-orb-view="turntable-25" data-projection="spherical" data-orb-base-face="5" data-orb-style="shaded" />
  <path d="M-14.4885,-44.6003 L6.9154,-42.3328 L2.7703,-34.1200 L-7.6915,-29.3608 L-14.4885,-44.6003 Z" fill="#777777" stroke="#333333" stroke-width="0.4" data-face-index="31" data-sides="4" data-orb-view="turntable-25" data-projection="spherical" data-orb-base-face="5" data-orb-style="shaded" />
  <path d="M-7.6915,-29.3608 L2.7703,-34.1200 L-3.5856,-19.4819 L-7.6915,-29.3608 Z" fill="#818181" stroke="#333333" stroke-width="0.4" data-face-index="32" data-sides="3" data-orb-view="turntable-25" data-projection="spherical" data-orb-base-face="5" data-orb-style="shaded" />
</svg>