<svg xmlns="http://www.w3.org/2000/svg" viewBox="-70.00 -70.00 140.00 140.00" width="140" height="140" data-orb-view="turntable-33" data-projection="spherical">
  <rect x="-70.00" y="-70.00" width="140.00" height="140.00" fill="#ffffff" pointer-events="none" />
  <circle cx="0" cy="0" r="60.00" fill="none" stroke="#333333" stroke-width="0.4" data-orb-silhouette="true" />
  <clipPath id="orb-limb"><circle cx="0" cy="0" r="60.00" /></clipPath>
  <g clip-path="url(#orb-limb)">
  <path d="M-46.9985,37.2967 L-57.4654,14.4177 L-57.2019,14.9155 L-46.9985,37.2967 Z" fill="#3e3e3e" stroke="#333333" stroke-width="0.4" data-face-index="0" data-sides="3" data-orb-view="turntable-33" data-projection="spherical" data-orb-base-face="1" data-orb-style="shaded" />
  <path d="M-57.8916,-15.7224 L-57.4654,-3.7121 L-57.2019,14.9155 L-57.4654,14.4177 L-57.8916,-4.5175 L-57.8916,-15.7224 Z" fill="#3f3f3f" stroke="#333333" stroke-width="0.4" data-face-index="1" data-sides="5" data-orb-view="turntable-33" data-projection="spherical" data-orb-base-face="1" data-orb-style="shaded" />
  <path d="M-48.4933,-29.1014 L-47.9223,-28.0226 L-57.8916,-15.7224 L-48.4933,-29.1014 Z" fill="#404040" stroke="#333333" stroke-width="0.4" data-face-index="2" data-sides="3" data-orb-view="turntable-33" data-projection="spherical" data-orb-base-face="1" data-orb-style="shaded" />
  <path d="M-47.9223,-28.0226 L-48.4933,-29.1014 L-41.5882,-43.2171 L-47.9223,-28.0226 Z" fill="#404040" stroke="#333333" stroke-width="0.4" data-face-index="3" data-sides="3" data-orb-view="turntable-33" data-projection="spherical" data-orb-base-face="9" data-orb-style="shaded" />
  <path d="M-14.7824,-57.5645 L10.1710,-59.1161 L-14.5189,-57.0667 L-14.7824,-57.5645 Z" fill="#404040" stroke="#333333" stroke-width="0.4" data-face-index="4" data-sides="3" data-orb-view="turntable-33" data-projection="spherical" data-orb-base-face="9" data-orb-style="shaded" />
  <path d="M-31.5121,-49.0050 L-14.7824,-57.5645 L-14.5189,-57.0667 L-31.0858,-48.1996 L-41.5882,-43.2171 L-31.5121,-49.0050 Z" fill="#404040" stroke="#333333" stroke-width="0.4" data-face-index="5" data-sides="5" data-orb-view="turntable-33" data-projection="spherical" data-orb-base-face="9" data-orb-style="shaded" />
  <path d="M-10.1710,59.1161 L-46.9985,37.2967 L-29.2801,50.1412 L-10.1710,59.1161 Z" fill="#444444" stroke="#333333" stroke-width="0.4" data-face-index="6" data-sides="3" data-orb-view="turntable-33" data-projection="spherical" data-orb-base-face="0" data-orb-style="shaded" />
  <path d="M10.1710,-59.1161 L46.9985,-37.2967 L29.7063,-49.3358 L10.1710,-59.1161 Z" fill="#464646" stroke="#333333" stroke-width="0.4" data-face-index="7" data-sides="3" data-orb-view="turntable-33" data-projection="spherical" data-orb-base-face="4" data-orb-style="shaded" />
  <path d="M48.4933,29.1014 L41.5882,43.2171 L31.5121,49.0050 L48.4933,29.1014 Z" fill="#4c4c4c" stroke="#333333" stroke-width="0.4" data-face-index="8" data-sides="3" data-orb-view="turntable-33" data-projection="spherical" data-orb-base-face="10" data-orb-style="shaded" />
  <path d="M48.4933,29.1014 L57.8916,4.5175 L57.8916,15.7224 L48.4933,29.1014 Z" fill="#4c4c4c" stroke="#333333" stroke-width="0.4" data-face-index="9" data-sides="3" data-orb-view="turntable-33" data-projection="spherical" data-orb-base-face="2" data-orb-style="shaded" />
  <path d="M-10.1710,59.1161 L-29.2801,50.1412 L-12.2869,53.2842 L-10.1710,59.1161 Z" fill="#4e4e4e" stroke="#333333" stroke-width="0.4" data-face-index="10" data-sides="3" data-orb-view="turntable-33" data-projection="spherical" data-orb-base-face="0" data-orb-style="shaded" />
  <path d="M-10.1710,59.1161 L12.5896,48.3182 L14.7824,57.5645 L-10.1710,59.1161 Z" fill="#4f4f4f" stroke="#333333" stroke-width="0.4" data-face-index="11" data-sides="3" data-orb-view="turntable-33" data-projection="spherical" data-orb-base-face="10" data-orb-style="shaded" />
  <path d="M-46.9985,37.2967 L-39.7824,36.9938 L-29.2801,50.1412 L-46.9985,37.2967 Z" fill="#4f4f4f" stroke="#333333" stroke-width="0.4" data-face-index="12" data-sides="3" data-orb-view="turntable-33" data-projection="spherical" data-orb-base-face="0" data-orb-style="shaded" />
  <path d="M-57.4654,-3.7121 L-57.8916,-15.7224 L-47.9223,-28.0226 L-57.4654,-3.7121 Z" fill="#4f4f4f" stroke="#333333" stroke-width="0.4" data-face-index="13" data-sides="3" data-orb-view="turntable-33" data-projection="spherical" data-orb-base-face="1" data-orb-style="shaded" />
  <path d="M-47.9223,-28.0226 L-41.5882,-43.2171 L-31.0858,-48.1996 L-47.9223,-28.0226 Z" fill="#505050" stroke="#333333" stroke-width="0.4" data-face-index="14" data-sides="3" data-orb-view="turntable-33" data-projection="spherical" data-orb-base-face="9" data-orb-style="shaded" />
  <path d="M40.4722,-35.6906 L29.7063,-49.3358 L46.9985,-37.2967 L40.4722,-35.6906 Z" fill="#505050" stroke="#333333" stroke-width="0.4" data-face-index="15" data-sides="3" data-orb-view="turntable-33" data-projection="spherical" data-orb-base-face="4" data-orb-style="shaded" />
  <path d="M47.9223,-11.2682 L46.9985,-37.2967 L57.4654,-14.4177 L47.9223,-11.2682 Z" fill="#515151" stroke="#333333" stroke-width="0.4" data-face-index="16" data-sides="3" data-orb-view="turntable-33" data-projection="spherical" data-orb-base-face="2" data-orb-style="shaded" />
  <path d="M-46.9985,13.0136 L-46.9985,37.2967 L-57.2019,14.9155 L-46.9985,13.0136 Z" fill="#515151" stroke="#333333" stroke-width="0.4" data-face-index="17" data-sides="3" data-orb-view="turntable-33" data-projection="spherical" data-orb-base-face="1" data-orb-style="shaded" />
  <path d="M10.1710,-59.1161 L29.7063,-49.3358 L12.9766,-51.9811 L10.1710,-59.1161 Z" fill="#515151" stroke="#333333" stroke-width="0.4" data-face-index="18" data-sides="3" data-orb-view="turntable-33" data-projection="spherical" data-orb-base-face="4" data-orb-style="shaded" />
  <path d="M10.1710,-59.1161 L-11.6658,-46.5728 L-14.5189,-57.0667 L10.1710,-59.1161 Z" fill="#535353" stroke="#333333" stroke-width="0.4" data-face-index="19" data-sides="3" data-orb-view="turntable-33" data-projection="spherical" data-orb-base-face="9" data-orb-style="shaded" />
  <path d="M14.7824,57.5645 L12.5896,48.3182 L31.5121,49.0050 L14.7824,57.5645 Z" fill="#565656" stroke="#333333" stroke-width="0.4" data-face-index="20" data-sides="3" data-orb-view="turntable-33" data-projection="spherical" data-orb-base-face="10" data-orb-style="shaded" />
  <path d="M12.5896,48.3182 L-10.1710,59.1161 L-12.2869,53.2842 L12.5896,48.3182 Z" fill="#565656" stroke="#333333" stroke-width="0.4" data-face-index="21" data-sides="3" data-orb-view="turntable-33" data-projection="spherical" data-orb-base-face="0" data-orb-style="shaded" />
  <path d="M47.9223,-11.2682 L57.4654,-14.4177 L57.8916,4.5175 L47.9223,-11.2682 Z" fill="#575757" stroke="#333333" stroke-width="0.4" data-face-index="22" data-sides="3" data-orb-view="turntable-33" data-projection="spherical" data-orb-base-face="2" data-orb-style="shaded" />
  <path d="M-46.9985,37.2967 L-46.9985,13.0136 L-39.7824,36.9938 L-46.9985,37.2967 Z" fill="#575757" stroke="#333333" stroke-width="0.4" data-face-index="23" data-sides="3" data-orb-view="turntable-33" data-projection="spherical" data-orb-base-face="0" data-orb-style="shaded" />
  <path d="M46.9985,-37.2967 L47.9223,-11.2682 L40.4722,-35.6906 L46.9985,-37.2967 Z" fill="#585858" stroke="#333333" stroke-width="0.4" data-face-index="24" data-sides="3" data-orb-view="turntable-33" data-projection="spherical" data-orb-base-face="4" data-orb-style="shaded" />
  <path d="M-57.4654,-3.7121 L-46.9985,13.0136 L-57.2019,14.9155 L-57.4654,-3.7121 Z" fill="#585858" stroke="#333333" stroke-width="0.4" data-face-index="25" data-sides="3" data-orb-view="turntable-33" data-projection="spherical" data-orb-base-face="1" data-orb-style="shaded" />
  <path d="M-11.6658,-46.5728 L10.1710,-59.1161 L12.9766,-51.9811 L-11.6658,-46.5728 Z" fill="#595959" stroke="#333333" stroke-width="0.4" data-face-index="26" data-sides="3" data-orb-view="turntable-33" data-projection="spherical" data-orb-base-face="4" data-orb-style="shaded" />
  <path d="M-11.6658,-46.5728 L-31.0858,-48.1996 L-14.5189,-57.0667 L-11.6658,-46.5728 Z" fill="#5a5a5a" stroke="#333333" stroke-width="0.4" data-face-index="27" data-sides="3" data-orb-view="turntable-33" data-projection="spherical" data-orb-base-face="9" data-orb-style="shaded" />
  <path d="M12.5896,48.3182 L48.4933,29.1014 L31.5121,49.0050 L12.5896,48.3182 Z" fill="#5b5b5b" stroke="#333333" stroke-width="0.4" data-face-index="28" data-sides="3" data-orb-view="turntable-33" data-projection="spherical" data-orb-base-face="10" data-orb-style="shaded" />
  <path d="M48.4933,29.1014 L47.9223,-11.2682 L57.8916,4.5175 L48.4933,29.1014 Z" fill="#5b5b5b" stroke="#333333" stroke-width="0.4" data-face-index="29" data-sides="3" data-orb-view="turntable-33" data-projection="spherical" data-orb-base-face="2" data-orb-style="shaded" />
  <path d="M-47.9223,-28.0226 L-46.9985,13.0136 L-57.4654,-3.7121 L-47.9223,-28.0226 Z" fill="#5e5e5e" stroke="#333333" stroke-width="0.4" data-face-index="30" data-sides="3" data-orb-view="turntable-33" data-projection="spherical" data-orb-base-face="1" data-orb-style="shaded" />
  <path d="M-11.6658,-46.5728 L-47.9223,-28.0226 L-31.0858,-48.1996 L-11.6658,-46.5728 Z" fill="#5e5e5e" stroke="#333333" stroke-width="0.4" data-face-index="31" data-sides="3" data-orb-view="turntable-33" data-projection="spherical" data-orb-base-face="9" data-orb-style="shaded" />
  <path d="M-39.7824,36.9938 L-29.2801,32.0113 L-12.2869,42.0794 L-12.2869,53.2842 L-29.2801,50.1412 L-39.7824,36.9938 Z" fill="#636363" stroke="#333333" stroke-width="0.4" data-face-index="32" data-sides="5" data-orb-view="turntable-33" data-projection="spherical" data-orb-base-face="0" data-orb-style="shaded" />
  <path d="M29.7063,-49.3358 L40.4722,-35.6906 L30.3961,-29.9028 L13.4029,-39.9708 L12.9766,-51.9811 L29.7063,-49.3358 Z" fill="#656565" stroke="#333333" stroke-width="0.4" data-face-index="33" data-sides="5" data-orb-view="turntable-33" data-projection="spherical" data-orb-base-face="4" data-orb-style="shaded" />
  <path d="M48.4933,29.1014 L12.5896,48.3182 L31.5121,30.8751 L48.4933,29.1014 Z" fill="#666666" stroke="#333333" stroke-width="0.4" data-face-index="34" data-sides="3" data-orb-view="turntable-33" data-projection="spherical" data-orb-base-face="11" data-orb-style="shaded" />
  <path d="M47.9223,-11.2682 L48.4933,29.1014 L41.5882,13.8824 L47.9223,-11.2682 Z" fill="#666666" stroke="#333333" stroke-width="0.4" data-face-index="35" data-sides="3" data-orb-view="turntable-33" data-projection="spherical" data-orb-base-face="11" data-orb-style="shaded" />
  <path d="M12.5896,48.3182 L-12.2869,53.2842 L-12.2869,42.0794 L12.5896,48.3182 Z" fill="#686868" stroke="#333333" stroke-width="0.4" data-face-index="36" data-sides="3" data-orb-view="turntable-33" data-projection="spherical" data-orb-base-face="0" data-orb-style="shaded" />
  <path d="M-46.9985,13.0136 L-47.9223,-28.0226 L-40.4722,-11.7739 L-46.9985,13.0136 Z" fill="#686868" stroke="#333333" stroke-width="0.4" data-face-index="37" data-sides="3" data-orb-view="turntable-33" data-projection="spherical" data-orb-base-face="5" data-orb-style="shaded" />
  <path d="M41.5882,13.8824 L48.4933,29.1014 L31.5121,30.8751 L41.5882,13.8824 Z" fill="#696969" stroke="#333333" stroke-width="0.4" data-face-index="38" data-sides="3" data-orb-view="turntable-33" data-projection="spherical" data-orb-base-face="11" data-orb-style="shaded" />
  <path d="M-47.9223,-28.0226 L-11.6658,-46.5728 L-30.3961,-28.7666 L-47.9223,-28.0226 Z" fill="#696969" stroke="#333333" stroke-width="0.4" data-face-index="39" data-sides="3" data-orb-view="turntable-33" data-projection="spherical" data-orb-base-face="5" data-orb-style="shaded" />
  <path d="M-29.2801,32.0113 L-39.7824,36.9938 L-46.9985,13.0136 L-29.2801,32.0113 Z" fill="#696969" stroke="#333333" stroke-width="0.4" data-face-index="40" data-sides="3" data-orb-view="turntable-33" data-projection="spherical" data-orb-base-face="0" data-orb-style="shaded" />
  <path d="M40.4722,-35.6906 L47.9223,-11.2682 L30.3961,-29.9028 L40.4722,-35.6906 Z" fill="#696969" stroke="#333333" stroke-width="0.4" data-face-index="41" data-sides="3" data-orb-view="turntable-33" data-projection="spherical" data-orb-base-face="4" data-orb-style="shaded" />
  <path d="M-11.6658,-46.5728 L12.9766,-51.9811 L13.4029,-39.9708 L-11.6658,-46.5728 Z" fill="#6b6b6b" stroke="#333333" stroke-width="0.4" data-face-index="42" data-sides="3" data-orb-view="turntable-33" data-projection="spherical" data-orb-base-face="4" data-orb-style="shaded" />
  <path d="M-47.9223,-28.0226 L-30.3961,-28.7666 L-40.4722,-11.7739 L-47.9223,-28.0226 Z" fill="#6c6c6c" stroke="#333333" stroke-width="0.4" data-face-index="43" data-sides="3" data-orb-view="turntable-33" data-projection="spherical" data-orb-base-face="5" data-orb-style="shaded" />
  <path d="M12.5896,48.3182 L14.7824,28.2298 L31.5121,30.8751 L12.5896,48.3182 Z" fill="#737373" stroke="#333333" stroke-width="0.4" data-face-index="44" data-sides="3" data-orb-view="turntable-33" data-projection="spherical" data-orb-base-face="11" data-orb-style="shaded" />
  <path d="M41.5882,13.8824 L31.0858,0.7351 L47.9223,-11.2682 L41.5882,13.8824 Z" fill="#737373" stroke="#333333" stroke-width="0.4" data-face-index="45" data-sides="3" data-orb-view="turntable-33" data-projection="spherical" data-orb-base-face="11" data-orb-style="shaded" />
  <path d="M-46.9985,13.0136 L-40.4722,-11.7739 L-29.7063,1.8712 L-46.9985,13.0136 Z" fill="#757575" stroke="#333333" stroke-width="0.4" data-face-index="46" data-sides="3" data-orb-view="turntable-33" data-projection="spherical" data-orb-base-face="5" data-orb-style="shaded" />
  <path d="M-10.1710,19.8253 L12.5896,48.3182 L-12.2869,42.0794 L-10.1710,19.8253 Z" fill="#757575" stroke="#333333" stroke-width="0.4" data-face-index="47" data-sides="3" data-orb-view="turntable-33" data-projection="spherical" data-orb-base-face="0" data-orb-style="shaded" />
  <path d="M-13.4029,-25.6235 L-30.3961,-28.7666 L-11.6658,-46.5728 L-13.4029,-25.6235 Z" fill="#767676" stroke="#333333" stroke-width="0.4" data-face-index="48" data-sides="3" data-orb-view="turntable-33" data-projection="spherical" data-orb-base-face="5" data-orb-style="shaded" />
  <path d="M-46.9985,13.0136 L-10.1710,19.8253 L-29.2801,32.0113 L-46.9985,13.0136 Z" fill="#767676" stroke="#333333" stroke-width="0.4" data-face-index="49" data-sides="3" data-orb-view="turntable-33" data-projection="spherical" data-orb-base-face="0" data-orb-style="shaded" />
  <path d="M47.9223,-11.2682 L11.6658,-17.0011 L30.3961,-29.9028 L47.9223,-11.2682 Z" fill="#767676" stroke="#333333" stroke-width="0.4" data-face-index="50" data-sides="3" data-orb-view="turntable-33" data-projection="spherical" data-orb-base-face="4" data-orb-style="shaded" />
  <path d="M11.6658,-17.0011 L-11.6658,-46.5728 L13.4029,-39.9708 L11.6658,-17.0011 Z" fill="#777777" stroke="#333333" stroke-width="0.4" data-face-index="51" data-sides="3" data-orb-view="turntable-33" data-projection="spherical" data-orb-base-face="4" data-orb-style="shaded" />
  <path d="M-29.2801,32.0113 L-10.1710,19.8253 L-12.2869,42.0794 L-29.2801,32.0113 Z" fill="#787878" stroke="#333333" stroke-width="0.4" data-face-index="52" data-sides="3" data-orb-view="turntable-33" data-projection="spherical" data-orb-base-face="0" data-orb-style="shaded" />
  <path d="M12.5896,48.3182 L-10.1710,19.8253 L14.7824,28.2298 L12.5896,48.3182 Z" fill="#797979" stroke="#333333" stroke-width="0.4" data-face-index="53" data-sides="3" data-orb-view="turntable-33" data-projection="spherical" data-orb-base-face="11" data-orb-style="shaded" />
  <path d="M11.6658,-17.0011 L13.4029,-39.9708 L30.3961,-29.9028 L11.6658,-17.0011 Z" fill="#7a7a7a" stroke="#333333" stroke-width="0.4" data-face-index="54" data-sides="3" data-orb-view="turntable-33" data-projection="spherical" data-orb-base-face="4" data-orb-style="shaded" />
  <path d="M11.6658,-17.0011 L47.9223,-11.2682 L31.0858,0.7351 L11.6658,-17.0011 Z" fill="#7a7a7a" stroke="#333333" stroke-width="0.4" data-face-index="55" data-sides="3" data-orb-view="turntable-33" data-projection="spherical" data-orb-base-face="11" data-orb-style="shaded" />
  <path d="M-10.1710,19.8253 L-46.9985,13.0136 L-29.7063,1.8712 L-10.1710,19.8253 Z" fill="#7a7a7a" stroke="#333333" stroke-width="0.4" data-face-index="56" data-sides="3" data-orb-view="turntable-33" data-projection="spherical" data-orb-base-face="5" data-orb-style="shaded" />
  <path d="M31.0858,0.7351 L41.5882,13.8824 L31.5121,30.8751 L14.7824,28.2298 L14.5189,9.6022 L31.0858,0.7351 Z" fill="#7b7b7b" stroke="#333333" stroke-width="0.4" data-face-index="57" data-sides="5" data-orb-view="turntable-33" data-projection="spherical" data-orb-base-face="11" data-orb-style="shaded" />
  <path d="M-11.6658,-46.5728 L11.6658,-17.0011 L-13.4029,-25.6235 L-11.6658,-46.5728 Z" fill="#7b7b7b" stroke="#333333" stroke-width="0.4" data-face-index="58" data-sides="3" data-orb-view="turntable-33" data-projection="spherical" data-orb-base-face="5" data-orb-style="shaded" />
  <path d="M-30.3961,-28.7666 L-13.4029,-25.6235 L-12.9766,-6.6883 L-29.7063,1.8712 L-40.4722,-11.7739 L-30.3961,-28.7666 Z" fill="#7d7d7d" stroke="#333333" stroke-width="0.4" data-face-index="59" data-sides="5" data-orb-view="turntable-33" data-projection="spherical" data-orb-base-face="5" data-orb-style="shaded" />
  <path d="M-10.1710,19.8253 L14.5189,9.6022 L14.7824,28.2298 L-10.1710,19.8253 Z" fill="#838383" stroke="#333333" stroke-width="0.4" data-face-index="60" data-sides="3" data-orb-view="turntable-33" data-projection="spherical" data-orb-base-face="11" data-orb-style="shaded" />
  <path d="M11.6658,-17.0011 L31.0858,0.7351 L14.5189,9.6022 L11.6658,-17.0011 Z" fill="#848484" stroke="#333333" stroke-width="0.4" data-face-index="61" data-sides="3" data-orb-view="turntable-33" data-projection="spherical" data-orb-base-face="11" data-orb-style="shaded" />
  <path d="M-10.1710,19.8253 L-29.7063,1.8712 L-12.9766,-6.6883 L-10.1710,19.8253 Z" fill="#848484" stroke="#333333" stroke-width="0.4" data-face-index="62" data-sides="3" data-orb-view="turntable-33" data-projection="spherical" data-orb-base-face="5" data-orb-style="shaded" />
  <path d="M-13.4029,-25.6235 L11.6658,-17.0011 L-12.9766,-6.6883 L-13.4029,-25.6235 Z" fill="#858585" stroke="#333333" stroke-width="0.4" data-face-index="63" data-sides="3" data-orb-view="turntable-33" data-projection="spherical" data-orb-base-face="5" data-orb-style="shaded" />
  <path d="M-10.1710,19.8253 L11.6658,-17.0011 L14.5189,9.6022 L-10.1710,19.8253 Z" fill="#868686" stroke="#333333" stroke-width="0.4" data-face-index="64" data-sides="3" data-orb-view="turntable-33" data-projection="spherical" data-orb-base-face="11" data-orb-style="shaded" />
  <path d="M11.6658,-17.0011 L-10.1710,19.8253 L-12.9766,-6.6883 L11.6658,-17.0011 Z" fill="#868686" stroke="#333333" stroke-width="0.4" data-face-index="65" data-sides="3" data-orb-view="turntable-33" data-projection="spherical" data-orb-base-face="5" data-orb-style="shaded" />
  </g>
</svg>