<svg xmlns="http://www.w3.org/2000/svg" viewBox="-70.00 -70.00 140.00 140.00" width="140" height="140" data-orb-view="transition-1" data-projection="spherical">
  <rect x="-70.00" y="-70.00" width="140.00" height="140.00" fill="#ffffff" pointer-events="none" />
  <circle cx="0" cy="0" r="60.00" fill="none" stroke="#333333" stroke-width="0.4" data-orb-silhouette="true" />
  <path d="M8.0396,-4.6662 L34.5165,16.5341 L20.5400,13.7436 L8.0396,-4.6662 Z" fill="#898989" stroke="#333333" stroke-width="0.4" data-face-index="0" data-sides="3" data-orb-view="transition-1" data-projection="spherical" data-orb-base-face="0" data-orb-style="shaded" />
  <path d="M-24.6700,10.1872 L8.0396,-4.6662 L-8.7686,10.6007 L-24.6700,10.1872 Z" fill="#898989" stroke="#333333" stroke-width="0.4" data-face-index="1" data-sides="3" data-orb-view="transition-1" data-projection="spherical" data-orb-base-face="0" data-orb-style="shaded" />
  <path d="M-48.3256,21.3018 L-24.6700,10.1872 L-32.9406,21.7370 L-48.3256,21.3018 Z" fill="#868686" stroke="#333333" stroke-width="0.4" data-face-index="2" data-sides="3" data-orb-view="transition-1" data-projection="spherical" data-orb-base-face="0" data-orb-style="shaded" />
  <path d="M-48.3256,21.3018 L-32.9406,21.7370 L-28.0175,37.4021 L-37.8165,40.6290 L-48.3256,21.3018 Z" fill="#848484" stroke="#333333" stroke-width="0.4" data-face-index="3" data-sides="4" data-orb-view="transition-1" data-projection="spherical" data-orb-base-face="0" data-orb-style="shaded" />
  <path d="M-24.6700,10.1872 L-8.7686,10.6007 L-16.5155,25.5119 L-32.9406,21.7370 L-24.6700,10.1872 Z" fill="#888888" stroke="#333333" stroke-width="0.4" data-face-index="4" data-sides="4" data-orb-view="transition-1" data-projection="spherical" data-orb-base-face="0" data-orb-style="shaded" />
  <path d="M8.0396,-4.6662 L20.5400,13.7436 L4.6611,22.3468 L-8.7686,10.6007 L8.0396,-4.6662 Z" fill="#898989" stroke="#333333" stroke-width="0.4" data-face-index="5" data-sides="4" data-orb-view="transition-1" data-projection="spherical" data-orb-base-face="0" data-orb-style="shaded" />
  <path d="M34.5165,16.5341 L37.8165,29.3247 L23.1072,29.7609 L20.5400,13.7436 L34.5165,16.5341 Z" fill="#878787" stroke="#333333" stroke-width="0.4" data-face-index="6" data-sides="4" data-orb-view="transition-1" data-projection="spherical" data-orb-base-face="0" data-orb-style="shaded" />
  <path d="M34.5165,16.5341 L8.0396,-4.6662 L28.5818,2.4815 L34.5165,16.5341 Z" fill="#888888" stroke="#333333" stroke-width="0.4" data-face-index="7" data-sides="3" data-orb-view="transition-1" data-projection="spherical" data-orb-base-face="2" data-orb-style="shaded" />
  <path d="M8.0396,-4.6662 L9.8465,-38.1511 L16.3655,-24.5981 L8.0396,-4.6662 Z" fill="#888888" stroke="#333333" stroke-width="0.4" data-face-index="8" data-sides="3" data-orb-view="transition-1" data-projection="spherical" data-orb-base-face="2" data-orb-style="shaded" />
  <path d="M8.0396,-4.6662 L16.3655,-24.5981 L31.3199,-14.9873 L28.5818,2.4815 L8.0396,-4.6662 Z" fill="#898989" stroke="#333333" stroke-width="0.4" data-face-index="9" data-sides="4" data-orb-view="transition-1" data-projection="spherical" data-orb-base-face="2" data-orb-style="shaded" />
  <path d="M9.8465,-38.1511 L16.3655,-47.3133 L26.4826,-34.7043 L16.3655,-24.5981 L9.8465,-38.1511 Z" fill="#868686" stroke="#333333" stroke-width="0.4" data-face-index="10" data-sides="4" data-orb-view="transition-1" data-projection="spherical" data-orb-base-face="2" data-orb-style="shaded" />
  <path d="M34.5165,16.5341 L28.5818,2.4815 L42.9981,1.9049 L45.8584,18.0625 L34.5165,16.5341 Z" fill="#878787" stroke="#333333" stroke-width="0.4" data-face-index="11" data-sides="4" data-orb-view="transition-1" data-projection="spherical" data-orb-base-face="2" data-orb-style="shaded" />
  <path d="M-24.6700,10.1872 L-48.3256,21.3018 L-38.6884,8.9961 L-24.6700,10.1872 Z" fill="#868686" stroke="#333333" stroke-width="0.4" data-face-index="12" data-sides="3" data-orb-view="transition-1" data-projection="spherical" data-orb-base-face="5" data-orb-style="shaded" />
  <path d="M8.0396,-4.6662 L-24.6700,10.1872 L-14.5164,-2.1402 L8.0396,-4.6662 Z" fill="#898989" stroke="#333333" stroke-width="0.4" data-face-index="13" data-sides="3" data-orb-view="transition-1" data-projection="spherical" data-orb-base-face="5" data-orb-style="shaded" />
  <path d="M9.8465,-38.1511 L8.0396,-4.6662 L2.5758,-26.0768 L9.8465,-38.1511 Z" fill="#888888" stroke="#333333" stroke-width="0.4" data-face-index="14" data-sides="3" data-orb-view="transition-1" data-projection="spherical" data-orb-base-face="5" data-orb-style="shaded" />
  <path d="M-48.3256,21.3018 L-55.7806,0.8086 L-47.0714,-4.8340 L-38.6884,8.9961 L-48.3256,21.3018 Z" fill="#848484" stroke="#333333" stroke-width="0.4" data-face-index="15" data-sides="4" data-orb-view="transition-1" data-projection="spherical" data-orb-base-face="5" data-orb-style="shaded" />
  <path d="M8.0396,-4.6662 L-14.5164,-2.1402 L-14.3928,-19.8893 L2.5758,-26.0768 L8.0396,-4.6662 Z" fill="#898989" stroke="#333333" stroke-width="0.4" data-face-index="16" data-sides="4" data-orb-view="transition-1" data-projection="spherical" data-orb-base-face="5" data-orb-style="shaded" />
  <path d="M-24.6700,10.1872 L-38.6884,8.9961 L-30.7321,-6.0016 L-14.5164,-2.1402 L-24.6700,10.1872 Z" fill="#888888" stroke="#333333" stroke-width="0.4" data-face-index="17" data-sides="4" data-orb-view="transition-1" data-projection="spherical" data-orb-base-face="5" data-orb-style="shaded" />
  <path d="M9.8465,-38.1511 L2.5758,-26.0768 L-7.6249,-38.3619 L2.5758,-48.7920 L9.8465,-38.1511 Z" fill="#878787" stroke="#333333" stroke-width="0.4" data-face-index="18" data-sides="4" data-orb-view="transition-1" data-projection="spherical" data-orb-base-face="5" data-orb-style="shaded" />
</svg>