<svg xmlns="http://www.w3.org/2000/svg" viewBox="-70.00 -70.00 140.00 140.00" width="140" height="140" data-orb-view="turntable-2" data-projection="spherical">
  <rect x="-70.00" y="-70.00" width="140.00" height="140.00" fill="#dfe3e5" pointer-events="none" />
  <circle cx="0" cy="0" r="60.00" fill="none" stroke="#333333" stroke-width="0.4" data-orb-silhouette="true" />
  <clipPath id="orb-limb"><circle cx="0" cy="0" r="60.00" /></clipPath>
  <g clip-path="url(#orb-limb)">
  <path d="M20.4264,50.4190 L43.4999,36.9322 L38.9075,45.0721 L20.4264,50.4190 Z" fill="#4d4d4d" stroke="#333333" stroke-width="0.4" data-face-index="0" data-sides="3" data-orb-view="turntable-2" data-projection="spherical" data-orb-base-face="0" data-orb-style="shaded" />
  <path d="M-41.3250,38.8759 L-17.5084,51.2883 L-36.9622,46.8106 L-41.3250,38.8759 Z" fill="#4e4e4e" stroke="#333333" stroke-width="0.4" data-face-index="1" data-sides="3" data-orb-view="turntable-2" data-projection="spherical" data-orb-base-face="0" data-orb-style="shaded" />
  <path d="M-1.2557,-59.3100 L41.3250,-38.8759 L36.9622,-46.8106 L13.0500,-56.1745 L18.4811,-41.4636 L0.0000,-26.9198 L-1.2557,-59.3100 Z" fill="#545454" stroke="#333333" stroke-width="0.4" data-face-index="2" data-sides="6" data-orb-view="turntable-2" data-projection="spherical" data-orb-base-face="2" data-orb-style="shaded" />
  <path d="M-1.2557,-59.3100 L0.0000,-26.9198 L-19.4538,-40.5944 L-15.2250,-55.5266 L-38.9075,-45.0721 L-43.4999,-36.9322 L-1.2557,-59.3100 Z" fill="#555555" stroke="#333333" stroke-width="0.4" data-face-index="3" data-sides="6" data-orb-view="turntable-2" data-projection="spherical" data-orb-base-face="1" data-orb-style="shaded" />
  <path d="M13.0500,-56.1745 L36.9622,-46.8106 L18.4811,-41.4636 L13.0500,-56.1745 Z" fill="#585858" stroke="#333333" stroke-width="0.4" data-face-index="4" data-sides="3" data-orb-view="turntable-2" data-projection="spherical" data-orb-base-face="2" data-orb-style="shaded" />
  <path d="M-15.2250,-55.5266 L-19.4538,-40.5944 L-38.9075,-45.0721 L-15.2250,-55.5266 Z" fill="#595959" stroke="#333333" stroke-width="0.4" data-face-index="5" data-sides="3" data-orb-view="turntable-2" data-projection="spherical" data-orb-base-face="1" data-orb-style="shaded" />
  <path d="M43.4999,36.9322 L38.9075,20.9943 L57.3886,15.6473 L43.4999,36.9322 Z" fill="#5a5a5a" stroke="#333333" stroke-width="0.4" data-face-index="6" data-sides="3" data-orb-view="turntable-2" data-projection="spherical" data-orb-base-face="2" data-orb-style="shaded" />
  <path d="M-36.9622,22.7328 L-41.3250,38.8759 L-56.4160,18.2551 L-36.9622,22.7328 Z" fill="#5c5c5c" stroke="#333333" stroke-width="0.4" data-face-index="7" data-sides="3" data-orb-view="turntable-2" data-projection="spherical" data-orb-base-face="1" data-orb-style="shaded" />
  <path d="M38.9075,20.9943 L19.4538,-7.5612 L18.4811,-41.4636 L36.9622,-46.8106 L56.4160,-18.2551 L57.3886,15.6473 L38.9075,20.9943 Z" fill="#5c5c5c" stroke="#333333" stroke-width="0.4" data-face-index="8" data-sides="6" data-orb-view="turntable-2" data-projection="spherical" data-orb-base-face="2" data-orb-style="shaded" />
  <path d="M-18.4811,-6.6920 L-36.9622,22.7328 L-56.4160,18.2551 L-57.3886,-15.6473 L-38.9075,-45.0721 L-19.4538,-40.5944 L-18.4811,-6.6920 Z" fill="#5d5d5d" stroke="#333333" stroke-width="0.4" data-face-index="9" data-sides="6" data-orb-view="turntable-2" data-projection="spherical" data-orb-base-face="1" data-orb-style="shaded" />
  <path d="M-41.3250,38.8759 L1.2557,28.2257 L43.4999,36.9322 L20.4264,50.4190 L1.4500,41.5655 L-17.5084,51.2883 L-41.3250,38.8759 Z" fill="#656565" stroke="#333333" stroke-width="0.4" data-face-index="10" data-sides="6" data-orb-view="turntable-2" data-projection="spherical" data-orb-base-face="0" data-orb-style="shaded" />
  <path d="M20.4264,50.4190 L-17.5084,51.2883 L1.4500,41.5655 L20.4264,50.4190 Z" fill="#666666" stroke="#333333" stroke-width="0.4" data-face-index="11" data-sides="3" data-orb-view="turntable-2" data-projection="spherical" data-orb-base-face="0" data-orb-style="shaded" />
  <path d="M43.4999,36.9322 L1.2557,28.2257 L0.0000,-26.9198 L19.4538,-7.5612 L15.2250,19.6336 L38.9075,20.9943 L43.4999,36.9322 Z" fill="#787878" stroke="#333333" stroke-width="0.4" data-face-index="12" data-sides="6" data-orb-view="turntable-2" data-projection="spherical" data-orb-base-face="2" data-orb-style="shaded" />
  <path d="M0.0000,-26.9198 L1.2557,28.2257 L-41.3250,38.8759 L-36.9622,22.7328 L-13.0500,20.2815 L-18.4811,-6.6920 L0.0000,-26.9198 Z" fill="#797979" stroke="#333333" stroke-width="0.4" data-face-index="13" data-sides="6" data-orb-view="turntable-2" data-projection="spherical" data-orb-base-face="1" data-orb-style="shaded" />
  <path d="M19.4538,-7.5612 L0.0000,-26.9198 L18.4811,-41.4636 L19.4538,-7.5612 Z" fill="#7d7d7d" stroke="#333333" stroke-width="0.4" data-face-index="14" data-sides="3" data-orb-view="turntable-2" data-projection="spherical" data-orb-base-face="2" data-orb-style="shaded" />
  <path d="M0.0000,-26.9198 L-18.4811,-6.6920 L-19.4538,-40.5944 L0.0000,-26.9198 Z" fill="#7d7d7d" stroke="#333333" stroke-width="0.4" data-face-index="15" data-sides="3" data-orb-view="turntable-2" data-projection="spherical" data-orb-base-face="1" data-orb-style="shaded" />
  <path d="M19.4538,-7.5612 L38.9075,20.9943 L15.2250,19.6336 L19.4538,-7.5612 Z" fill="#7e7e7e" stroke="#333333" stroke-width="0.4" data-face-index="16" data-sides="3" data-orb-view="turntable-2" data-projection="spherical" data-orb-base-face="2" data-orb-style="shaded" />
  <path d="M-36.9622,22.7328 L-18.4811,-6.6920 L-13.0500,20.2815 L-36.9622,22.7328 Z" fill="#7f7f7f" stroke="#333333" stroke-width="0.4" data-face-index="17" data-sides="3" data-orb-view="turntable-2" data-projection="spherical" data-orb-base-face="1" data-orb-style="shaded" />
  </g>
</svg>