solid OpenSCAD_Model
  facet normal 0 0 -1
    outer loop
      vertex 11.718 0 0
      vertex 14.518 0 0
      vertex 14.4568 -0.58215 0
    endloop
  endfacet
  facet normal 0 0 -1
    outer loop
      vertex 14.518 0 0
      vertex 11.718 0 0
      vertex 14.518 47.774 0
    endloop
  endfacet
  facet normal 0 0 -1
    outer loop
      vertex 11.718 0 0
      vertex 14.4568 -0.58215 0
      vertex 14.2759 -1.13886 0
    endloop
  endfacet
  facet normal 0 0 -1
    outer loop
      vertex 11.718 47.774 0
      vertex 14.518 47.774 0
      vertex 11.718 0 0
    endloop
  endfacet
  facet normal 0 0 -1
    outer loop
      vertex 11.718 0 0
      vertex 14.2759 -1.13886 0
      vertex 13.9832 -1.6458 0
    endloop
  endfacet
  facet normal 0 0 -1
    outer loop
      vertex 14.518 47.774 0
      vertex 11.718 47.774 0
      vertex 14.4568 48.3561 0
    endloop
  endfacet
  facet normal 0 0 -1
    outer loop
      vertex 11.718 0 0
      vertex 13.9832 -1.6458 0
      vertex 13.5915 -2.0808 0
    endloop
  endfacet
  facet normal -0 0 -1
    outer loop
      vertex 14.4568 48.3561 0
      vertex 11.718 47.774 0
      vertex 14.2759 48.9128 0
    endloop
  endfacet
  facet normal 0 0 -1
    outer loop
      vertex 11.718 0 0
      vertex 13.5915 -2.0808 0
      vertex 13.118 -2.42487 0
    endloop
  endfacet
  facet normal -0 0 -1
    outer loop
      vertex 14.2759 48.9128 0
      vertex 11.718 47.774 0
      vertex 13.9832 49.4198 0
    endloop
  endfacet
  facet normal 0 0 -1
    outer loop
      vertex 11.718 0 0
      vertex 13.118 -2.42487 0
      vertex 12.5832 -2.66296 0
    endloop
  endfacet
  facet normal -0 0 -1
    outer loop
      vertex 13.9832 49.4198 0
      vertex 11.718 47.774 0
      vertex 13.5915 49.8548 0
    endloop
  endfacet
  facet normal 0 0 -1
    outer loop
      vertex 11.718 0 0
      vertex 12.5832 -2.66296 0
      vertex 12.0106 -2.78466 0
    endloop
  endfacet
  facet normal -0 0 -1
    outer loop
      vertex 13.5915 49.8548 0
      vertex 11.718 47.774 0
      vertex 13.118 50.1988 0
    endloop
  endfacet
  facet normal -0 0 -1
    outer loop
      vertex 13.118 50.1988 0
      vertex 11.718 47.774 0
      vertex 12.5832 50.4369 0
    endloop
  endfacet
  facet normal 0 0 -1
    outer loop
      vertex 12.0106 -2.78466 0
      vertex 3.71594 0 0
      vertex 11.718 0 0
    endloop
  endfacet
  facet normal 0 0 -1
    outer loop
      vertex 2.8507 -2.66296 0
      vertex 3.71594 0 0
      vertex 3.42326 -2.78466 0
    endloop
  endfacet
  facet normal 0 0 -1
    outer loop
      vertex 3.42326 -2.78466 0
      vertex 3.71594 0 0
      vertex 12.0106 -2.78466 0
    endloop
  endfacet
  facet normal -0 0 -1
    outer loop
      vertex 12.5832 50.4369 0
      vertex 11.718 47.774 0
      vertex 12.0106 50.5586 0
    endloop
  endfacet
  facet normal 0 0 -1
    outer loop
      vertex 3.71594 47.774 0
      vertex 12.0106 50.5586 0
      vertex 11.718 47.774 0
    endloop
  endfacet
  facet normal 0 0 -1
    outer loop
      vertex 3.71594 47.774 0
      vertex 3.42326 50.5586 0
      vertex 12.0106 50.5586 0
    endloop
  endfacet
  facet normal 0 0 -1
    outer loop
      vertex 3.71594 0 0
      vertex 0.915942 0 0
      vertex 3.71594 47.774 0
    endloop
  endfacet
  facet normal 0 0 -1
    outer loop
      vertex 2.31594 -2.42487 0
      vertex 3.71594 0 0
      vertex 2.8507 -2.66296 0
    endloop
  endfacet
  facet normal 0 0 -1
    outer loop
      vertex 0.915942 47.774 0
      vertex 3.71594 47.774 0
      vertex 0.915942 0 0
    endloop
  endfacet
  facet normal 0 0 -1
    outer loop
      vertex 1.84238 -2.0808 0
      vertex 3.71594 0 0
      vertex 2.31594 -2.42487 0
    endloop
  endfacet
  facet normal 0 -0 -1
    outer loop
      vertex 0.97713 48.3561 0
      vertex 3.71594 47.774 0
      vertex 0.915942 47.774 0
    endloop
  endfacet
  facet normal 0 0 -1
    outer loop
      vertex 1.4507 -1.6458 0
      vertex 3.71594 0 0
      vertex 1.84238 -2.0808 0
    endloop
  endfacet
  facet normal 0 0 -1
    outer loop
      vertex 3.71594 47.774 0
      vertex 2.8507 50.4369 0
      vertex 3.42326 50.5586 0
    endloop
  endfacet
  facet normal 0 0 -1
    outer loop
      vertex 1.15802 -1.13886 0
      vertex 3.71594 0 0
      vertex 1.4507 -1.6458 0
    endloop
  endfacet
  facet normal 0 0 -1
    outer loop
      vertex 3.71594 47.774 0
      vertex 2.31594 50.1988 0
      vertex 2.8507 50.4369 0
    endloop
  endfacet
  facet normal 0 0 -1
    outer loop
      vertex 0.97713 -0.58215 0
      vertex 3.71594 0 0
      vertex 1.15802 -1.13886 0
    endloop
  endfacet
  facet normal 0 0 -1
    outer loop
      vertex 3.71594 47.774 0
      vertex 1.84238 49.8548 0
      vertex 2.31594 50.1988 0
    endloop
  endfacet
  facet normal -0 0 -1
    outer loop
      vertex 3.71594 0 0
      vertex 0.97713 -0.58215 0
      vertex 0.915942 0 0
    endloop
  endfacet
  facet normal 0 0 -1
    outer loop
      vertex 3.71594 47.774 0
      vertex 1.4507 49.4198 0
      vertex 1.84238 49.8548 0
    endloop
  endfacet
  facet normal 0 0 -1
    outer loop
      vertex 3.71594 47.774 0
      vertex 1.15802 48.9128 0
      vertex 1.4507 49.4198 0
    endloop
  endfacet
  facet normal 0 0 -1
    outer loop
      vertex 3.71594 47.774 0
      vertex 0.97713 48.3561 0
      vertex 1.15802 48.9128 0
    endloop
  endfacet
  facet normal 0 0 1
    outer loop
      vertex 12.718 47.774 2.25
      vertex 14.518 47.774 2.25
      vertex 14.4568 48.3561 2.25
    endloop
  endfacet
  facet normal 0 0 1
    outer loop
      vertex 14.518 47.774 2.25
      vertex 12.718 47.774 2.25
      vertex 14.518 0 2.25
    endloop
  endfacet
  facet normal 0 0 1
    outer loop
      vertex 12.6418 48.1567 2.25
      vertex 14.4568 48.3561 2.25
      vertex 14.2759 48.9128 2.25
    endloop
  endfacet
  facet normal 0 0 1
    outer loop
      vertex 12.718 0 2.25
      vertex 14.518 0 2.25
      vertex 12.718 47.774 2.25
    endloop
  endfacet
  facet normal 0 0 1
    outer loop
      vertex 12.6418 48.1567 2.25
      vertex 14.2759 48.9128 2.25
      vertex 13.9832 49.4198 2.25
    endloop
  endfacet
  facet normal 0 0 1
    outer loop
      vertex 14.518 0 2.25
      vertex 12.718 0 2.25
      vertex 14.4568 -0.58215 2.25
    endloop
  endfacet
  facet normal 0 0 1
    outer loop
      vertex 12.4251 48.4811 2.25
      vertex 13.9832 49.4198 2.25
      vertex 13.5915 49.8548 2.25
    endloop
  endfacet
  facet normal -0 0 1
    outer loop
      vertex 12.6418 -0.382681 2.25
      vertex 14.4568 -0.58215 2.25
      vertex 12.718 0 2.25
    endloop
  endfacet
  facet normal 0 0 1
    outer loop
      vertex 12.4251 48.4811 2.25
      vertex 13.5915 49.8548 2.25
      vertex 13.118 50.1988 2.25
    endloop
  endfacet
  facet normal 0 0 1
    outer loop
      vertex 14.4568 -0.58215 2.25
      vertex 12.6418 -0.382681 2.25
      vertex 14.2759 -1.13886 2.25
    endloop
  endfacet
  facet normal 0 0 1
    outer loop
      vertex 14.2759 -1.13886 2.25
      vertex 12.6418 -0.382681 2.25
      vertex 13.9832 -1.6458 2.25
    endloop
  endfacet
  facet normal 0 0 1
    outer loop
      vertex 14.4568 48.3561 2.25
      vertex 12.6418 48.1567 2.25
      vertex 12.718 47.774 2.25
    endloop
  endfacet
  facet normal 0 0 1
    outer loop
      vertex 12.1006 48.6978 2.25
      vertex 13.118 50.1988 2.25
      vertex 12.5832 50.4369 2.25
    endloop
  endfacet
  facet normal 0 0 1
    outer loop
      vertex 13.9832 49.4198 2.25
      vertex 12.4251 48.4811 2.25
      vertex 12.6418 48.1567 2.25
    endloop
  endfacet
  facet normal 0 0 1
    outer loop
      vertex 13.118 50.1988 2.25
      vertex 12.1006 48.6978 2.25
      vertex 12.4251 48.4811 2.25
    endloop
  endfacet
  facet normal 0 0 1
    outer loop
      vertex 12.0106 50.5586 2.25
      vertex 12.1006 48.6978 2.25
      vertex 12.5832 50.4369 2.25
    endloop
  endfacet
  facet normal 0 0 1
    outer loop
      vertex 12.0106 50.5586 2.25
      vertex 11.718 48.774 2.25
      vertex 12.1006 48.6978 2.25
    endloop
  endfacet
  facet normal 0 0 1
    outer loop
      vertex 12.0106 50.5586 2.25
      vertex 3.71594 48.774 2.25
      vertex 11.718 48.774 2.25
    endloop
  endfacet
  facet normal -0 0 1
    outer loop
      vertex 3.42326 50.5586 2.25
      vertex 3.71594 48.774 2.25
      vertex 12.0106 50.5586 2.25
    endloop
  endfacet
  facet normal 0 0 1
    outer loop
      vertex 3.42326 50.5586 2.25
      vertex 3.33326 48.6978 2.25
      vertex 3.71594 48.774 2.25
    endloop
  endfacet
  facet normal -0 0 1
    outer loop
      vertex 2.8507 50.4369 2.25
      vertex 3.33326 48.6978 2.25
      vertex 3.42326 50.5586 2.25
    endloop
  endfacet
  facet normal -0 0 1
    outer loop
      vertex 2.31594 50.1988 2.25
      vertex 3.33326 48.6978 2.25
      vertex 2.8507 50.4369 2.25
    endloop
  endfacet
  facet normal 0 0 1
    outer loop
      vertex 3.33326 48.6978 2.25
      vertex 2.31594 50.1988 2.25
      vertex 3.00884 48.4811 2.25
    endloop
  endfacet
  facet normal -0 0 1
    outer loop
      vertex 1.84238 49.8548 2.25
      vertex 3.00884 48.4811 2.25
      vertex 2.31594 50.1988 2.25
    endloop
  endfacet
  facet normal 0 0 1
    outer loop
      vertex 3.00884 48.4811 2.25
      vertex 1.4507 49.4198 2.25
      vertex 2.79206 48.1567 2.25
    endloop
  endfacet
  facet normal -0 0 1
    outer loop
      vertex 1.4507 49.4198 2.25
      vertex 3.00884 48.4811 2.25
      vertex 1.84238 49.8548 2.25
    endloop
  endfacet
  facet normal -0 0 1
    outer loop
      vertex 12.4251 -0.707104 2.25
      vertex 13.9832 -1.6458 2.25
      vertex 12.6418 -0.382681 2.25
    endloop
  endfacet
  facet normal 0 0 1
    outer loop
      vertex 13.9832 -1.6458 2.25
      vertex 12.4251 -0.707104 2.25
      vertex 13.5915 -2.0808 2.25
    endloop
  endfacet
  facet normal 0 0 1
    outer loop
      vertex 13.5915 -2.0808 2.25
      vertex 12.4251 -0.707104 2.25
      vertex 13.118 -2.42487 2.25
    endloop
  endfacet
  facet normal -0 0 1
    outer loop
      vertex 12.1006 -0.923877 2.25
      vertex 13.118 -2.42487 2.25
      vertex 12.4251 -0.707104 2.25
    endloop
  endfacet
  facet normal 0 0 1
    outer loop
      vertex 13.118 -2.42487 2.25
      vertex 12.1006 -0.923877 2.25
      vertex 12.5832 -2.66296 2.25
    endloop
  endfacet
  facet normal 0 0 1
    outer loop
      vertex 12.1006 -0.923877 2.25
      vertex 12.0106 -2.78466 2.25
      vertex 12.5832 -2.66296 2.25
    endloop
  endfacet
  facet normal -0 0 1
    outer loop
      vertex 11.718 -1 2.25
      vertex 12.0106 -2.78466 2.25
      vertex 12.1006 -0.923877 2.25
    endloop
  endfacet
  facet normal -0 0 1
    outer loop
      vertex 3.71594 -1 2.25
      vertex 12.0106 -2.78466 2.25
      vertex 11.718 -1 2.25
    endloop
  endfacet
  facet normal 0 0 1
    outer loop
      vertex 3.71594 -1 2.25
      vertex 3.42326 -2.78466 2.25
      vertex 12.0106 -2.78466 2.25
    endloop
  endfacet
  facet normal 0 0 1
    outer loop
      vertex 3.33326 -0.923877 2.25
      vertex 3.42326 -2.78466 2.25
      vertex 3.71594 -1 2.25
    endloop
  endfacet
  facet normal 0 0 1
    outer loop
      vertex 2.31594 -2.42487 2.25
      vertex 3.33326 -0.923877 2.25
      vertex 3.00884 -0.707104 2.25
    endloop
  endfacet
  facet normal 0 0 1
    outer loop
      vertex 3.33326 -0.923877 2.25
      vertex 2.8507 -2.66296 2.25
      vertex 3.42326 -2.78466 2.25
    endloop
  endfacet
  facet normal 0 0 1
    outer loop
      vertex 1.4507 -1.6458 2.25
      vertex 3.00884 -0.707104 2.25
      vertex 2.79206 -0.382681 2.25
    endloop
  endfacet
  facet normal 0 0 1
    outer loop
      vertex 0.97713 -0.58215 2.25
      vertex 2.79206 -0.382681 2.25
      vertex 2.71594 0 2.25
    endloop
  endfacet
  facet normal 0 0 1
    outer loop
      vertex 3.33326 -0.923877 2.25
      vertex 2.31594 -2.42487 2.25
      vertex 2.8507 -2.66296 2.25
    endloop
  endfacet
  facet normal 0 0 1
    outer loop
      vertex 2.71594 47.774 2.25
      vertex 0.915942 47.774 2.25
      vertex 2.71594 0 2.25
    endloop
  endfacet
  facet normal -0 0 1
    outer loop
      vertex 1.15802 48.9128 2.25
      vertex 2.79206 48.1567 2.25
      vertex 1.4507 49.4198 2.25
    endloop
  endfacet
  facet normal 0 0 1
    outer loop
      vertex 0.915942 0 2.25
      vertex 2.71594 0 2.25
      vertex 0.915942 47.774 2.25
    endloop
  endfacet
  facet normal -0 0 1
    outer loop
      vertex 0.97713 48.3561 2.25
      vertex 2.79206 48.1567 2.25
      vertex 1.15802 48.9128 2.25
    endloop
  endfacet
  facet normal 0 -0 1
    outer loop
      vertex 0.97713 -0.58215 2.25
      vertex 2.71594 0 2.25
      vertex 0.915942 0 2.25
    endloop
  endfacet
  facet normal 0 0 1
    outer loop
      vertex 2.79206 48.1567 2.25
      vertex 0.97713 48.3561 2.25
      vertex 2.71594 47.774 2.25
    endloop
  endfacet
  facet normal 0 0 1
    outer loop
      vertex 3.00884 -0.707104 2.25
      vertex 1.84238 -2.0808 2.25
      vertex 2.31594 -2.42487 2.25
    endloop
  endfacet
  facet normal 0 0 1
    outer loop
      vertex 2.71594 47.774 2.25
      vertex 0.97713 48.3561 2.25
      vertex 0.915942 47.774 2.25
    endloop
  endfacet
  facet normal 0 0 1
    outer loop
      vertex 3.00884 -0.707104 2.25
      vertex 1.4507 -1.6458 2.25
      vertex 1.84238 -2.0808 2.25
    endloop
  endfacet
  facet normal 0 0 1
    outer loop
      vertex 2.79206 -0.382681 2.25
      vertex 1.15802 -1.13886 2.25
      vertex 1.4507 -1.6458 2.25
    endloop
  endfacet
  facet normal 0 0 1
    outer loop
      vertex 2.79206 -0.382681 2.25
      vertex 0.97713 -0.58215 2.25
      vertex 1.15802 -1.13886 2.25
    endloop
  endfacet
  facet normal 0.406711 -0.913557 0
    outer loop
      vertex 12.5832 -2.66296 0
      vertex 13.118 -2.42487 2.25
      vertex 12.5832 -2.66296 2.25
    endloop
  endfacet
  facet normal 0.406711 -0.913557 0
    outer loop
      vertex 13.118 -2.42487 2.25
      vertex 12.5832 -2.66296 0
      vertex 13.118 -2.42487 0
    endloop
  endfacet
  facet normal 0.587844 -0.808975 0
    outer loop
      vertex 13.118 -2.42487 0
      vertex 13.5915 -2.0808 2.25
      vertex 13.118 -2.42487 2.25
    endloop
  endfacet
  facet normal 0.587844 -0.808975 0
    outer loop
      vertex 13.5915 -2.0808 2.25
      vertex 13.118 -2.42487 0
      vertex 13.5915 -2.0808 0
    endloop
  endfacet
  facet normal 0.743124 -0.669153 0
    outer loop
      vertex 13.5915 -2.0808 2.25
      vertex 13.9832 -1.6458 0
      vertex 13.9832 -1.6458 2.25
    endloop
  endfacet
  facet normal 0.743124 -0.669153 0
    outer loop
      vertex 13.9832 -1.6458 0
      vertex 13.5915 -2.0808 2.25
      vertex 13.5915 -2.0808 0
    endloop
  endfacet
  facet normal 0.866012 -0.500023 0
    outer loop
      vertex 13.9832 -1.6458 2.25
      vertex 14.2759 -1.13886 0
      vertex 14.2759 -1.13886 2.25
    endloop
  endfacet
  facet normal 0.866012 -0.500023 0
    outer loop
      vertex 14.2759 -1.13886 0
      vertex 13.9832 -1.6458 2.25
      vertex 13.9832 -1.6458 0
    endloop
  endfacet
  facet normal 0.95105 -0.309039 0
    outer loop
      vertex 14.2759 -1.13886 2.25
      vertex 14.4568 -0.58215 0
      vertex 14.4568 -0.58215 2.25
    endloop
  endfacet
  facet normal 0.95105 -0.309039 0
    outer loop
      vertex 14.4568 -0.58215 0
      vertex 14.2759 -1.13886 2.25
      vertex 14.2759 -1.13886 0
    endloop
  endfacet
  facet normal 0.994519 -0.104551 0
    outer loop
      vertex 14.4568 -0.58215 2.25
      vertex 14.518 0 0
      vertex 14.518 0 2.25
    endloop
  endfacet
  facet normal 0.994519 -0.104551 0
    outer loop
      vertex 14.518 0 0
      vertex 14.4568 -0.58215 2.25
      vertex 14.4568 -0.58215 0
    endloop
  endfacet
  facet normal 1 -0 0
    outer loop
      vertex 14.518 0 2.25
      vertex 14.518 47.774 0
      vertex 14.518 47.774 2.25
    endloop
  endfacet
  facet normal 1 0 0
    outer loop
      vertex 14.518 47.774 0
      vertex 14.518 0 2.25
      vertex 14.518 0 0
    endloop
  endfacet
  facet normal 0.994519 0.10456 0
    outer loop
      vertex 14.518 47.774 2.25
      vertex 14.4568 48.3561 0
      vertex 14.4568 48.3561 2.25
    endloop
  endfacet
  facet normal 0.994519 0.10456 0
    outer loop
      vertex 14.4568 48.3561 0
      vertex 14.518 47.774 2.25
      vertex 14.518 47.774 0
    endloop
  endfacet
  facet normal 0.951048 0.309044 0
    outer loop
      vertex 14.4568 48.3561 2.25
      vertex 14.2759 48.9128 0
      vertex 14.2759 48.9128 2.25
    endloop
  endfacet
  facet normal 0.951048 0.309044 0
    outer loop
      vertex 14.2759 48.9128 0
      vertex 14.4568 48.3561 2.25
      vertex 14.4568 48.3561 0
    endloop
  endfacet
  facet normal 0.866038 0.499979 0
    outer loop
      vertex 14.2759 48.9128 2.25
      vertex 13.9832 49.4198 0
      vertex 13.9832 49.4198 2.25
    endloop
  endfacet
  facet normal 0.866038 0.499979 0
    outer loop
      vertex 13.9832 49.4198 0
      vertex 14.2759 48.9128 2.25
      vertex 14.2759 48.9128 0
    endloop
  endfacet
  facet normal 0.743124 0.669153 0
    outer loop
      vertex 13.9832 49.4198 2.25
      vertex 13.5915 49.8548 0
      vertex 13.5915 49.8548 2.25
    endloop
  endfacet
  facet normal 0.743124 0.669153 0
    outer loop
      vertex 13.5915 49.8548 0
      vertex 13.9832 49.4198 2.25
      vertex 13.9832 49.4198 0
    endloop
  endfacet
  facet normal 0.587765 0.809032 -0
    outer loop
      vertex 13.5915 49.8548 0
      vertex 13.118 50.1988 2.25
      vertex 13.5915 49.8548 2.25
    endloop
  endfacet
  facet normal 0.587765 0.809032 0
    outer loop
      vertex 13.118 50.1988 2.25
      vertex 13.5915 49.8548 0
      vertex 13.118 50.1988 0
    endloop
  endfacet
  facet normal 0.406725 0.913551 -0
    outer loop
      vertex 13.118 50.1988 0
      vertex 12.5832 50.4369 2.25
      vertex 13.118 50.1988 2.25
    endloop
  endfacet
  facet normal 0.406725 0.913551 0
    outer loop
      vertex 12.5832 50.4369 2.25
      vertex 13.118 50.1988 0
      vertex 12.5832 50.4369 0
    endloop
  endfacet
  facet normal 0.207896 0.978151 -0
    outer loop
      vertex 12.5832 50.4369 0
      vertex 12.0106 50.5586 2.25
      vertex 12.5832 50.4369 2.25
    endloop
  endfacet
  facet normal 0.207896 0.978151 0
    outer loop
      vertex 12.0106 50.5586 2.25
      vertex 12.5832 50.4369 0
      vertex 12.0106 50.5586 0
    endloop
  endfacet
  facet normal 0 1 -0
    outer loop
      vertex 12.0106 50.5586 0
      vertex 3.42326 50.5586 2.25
      vertex 12.0106 50.5586 2.25
    endloop
  endfacet
  facet normal 0 1 0
    outer loop
      vertex 3.42326 50.5586 2.25
      vertex 12.0106 50.5586 0
      vertex 3.42326 50.5586 0
    endloop
  endfacet
  facet normal -0.207909 0.978148 0
    outer loop
      vertex 3.42326 50.5586 0
      vertex 2.8507 50.4369 2.25
      vertex 3.42326 50.5586 2.25
    endloop
  endfacet
  facet normal -0.207909 0.978148 0
    outer loop
      vertex 2.8507 50.4369 2.25
      vertex 3.42326 50.5586 0
      vertex 2.8507 50.4369 0
    endloop
  endfacet
  facet normal -0.40675 0.913539 0
    outer loop
      vertex 2.8507 50.4369 0
      vertex 2.31594 50.1988 2.25
      vertex 2.8507 50.4369 2.25
    endloop
  endfacet
  facet normal -0.40675 0.913539 0
    outer loop
      vertex 2.31594 50.1988 2.25
      vertex 2.8507 50.4369 0
      vertex 2.31594 50.1988 0
    endloop
  endfacet
  facet normal -0.587717 0.809067 0
    outer loop
      vertex 2.31594 50.1988 0
      vertex 1.84238 49.8548 2.25
      vertex 2.31594 50.1988 2.25
    endloop
  endfacet
  facet normal -0.587717 0.809067 0
    outer loop
      vertex 1.84238 49.8548 2.25
      vertex 2.31594 50.1988 0
      vertex 1.84238 49.8548 0
    endloop
  endfacet
  facet normal -0.743141 0.669135 0
    outer loop
      vertex 1.4507 49.4198 0
      vertex 1.84238 49.8548 2.25
      vertex 1.84238 49.8548 0
    endloop
  endfacet
  facet normal -0.743141 0.669135 0
    outer loop
      vertex 1.84238 49.8548 2.25
      vertex 1.4507 49.4198 0
      vertex 1.4507 49.4198 2.25
    endloop
  endfacet
  facet normal -0.866052 0.499953 0
    outer loop
      vertex 1.15802 48.9128 0
      vertex 1.4507 49.4198 2.25
      vertex 1.4507 49.4198 0
    endloop
  endfacet
  facet normal -0.866052 0.499953 0
    outer loop
      vertex 1.4507 49.4198 2.25
      vertex 1.15802 48.9128 0
      vertex 1.15802 48.9128 2.25
    endloop
  endfacet
  facet normal -0.951053 0.309028 0
    outer loop
      vertex 0.97713 48.3561 0
      vertex 1.15802 48.9128 2.25
      vertex 1.15802 48.9128 0
    endloop
  endfacet
  facet normal -0.951053 0.309028 0
    outer loop
      vertex 1.15802 48.9128 2.25
      vertex 0.97713 48.3561 0
      vertex 0.97713 48.3561 2.25
    endloop
  endfacet
  facet normal -0.994521 0.10454 0
    outer loop
      vertex 0.915942 47.774 0
      vertex 0.97713 48.3561 2.25
      vertex 0.97713 48.3561 0
    endloop
  endfacet
  facet normal -0.994521 0.10454 0
    outer loop
      vertex 0.97713 48.3561 2.25
      vertex 0.915942 47.774 0
      vertex 0.915942 47.774 2.25
    endloop
  endfacet
  facet normal -1 0 0
    outer loop
      vertex 0.915942 0 0
      vertex 0.915942 47.774 2.25
      vertex 0.915942 47.774 0
    endloop
  endfacet
  facet normal -1 -0 0
    outer loop
      vertex 0.915942 47.774 2.25
      vertex 0.915942 0 0
      vertex 0.915942 0 2.25
    endloop
  endfacet
  facet normal -0.994522 -0.104531 0
    outer loop
      vertex 0.97713 -0.58215 0
      vertex 0.915942 0 2.25
      vertex 0.915942 0 0
    endloop
  endfacet
  facet normal -0.994522 -0.104531 0
    outer loop
      vertex 0.915942 0 2.25
      vertex 0.97713 -0.58215 0
      vertex 0.97713 -0.58215 2.25
    endloop
  endfacet
  facet normal -0.951055 -0.309023 0
    outer loop
      vertex 1.15802 -1.13886 0
      vertex 0.97713 -0.58215 2.25
      vertex 0.97713 -0.58215 0
    endloop
  endfacet
  facet normal -0.951055 -0.309023 0
    outer loop
      vertex 0.97713 -0.58215 2.25
      vertex 1.15802 -1.13886 0
      vertex 1.15802 -1.13886 2.25
    endloop
  endfacet
  facet normal -0.866027 -0.499998 0
    outer loop
      vertex 1.4507 -1.6458 0
      vertex 1.15802 -1.13886 2.25
      vertex 1.15802 -1.13886 0
    endloop
  endfacet
  facet normal -0.866027 -0.499998 0
    outer loop
      vertex 1.15802 -1.13886 2.25
      vertex 1.4507 -1.6458 0
      vertex 1.4507 -1.6458 2.25
    endloop
  endfacet
  facet normal -0.743141 -0.669135 0
    outer loop
      vertex 1.84238 -2.0808 0
      vertex 1.4507 -1.6458 2.25
      vertex 1.4507 -1.6458 0
    endloop
  endfacet
  facet normal -0.743141 -0.669135 0
    outer loop
      vertex 1.4507 -1.6458 2.25
      vertex 1.84238 -2.0808 0
      vertex 1.84238 -2.0808 2.25
    endloop
  endfacet
  facet normal -0.587795 -0.80901 0
    outer loop
      vertex 1.84238 -2.0808 0
      vertex 2.31594 -2.42487 2.25
      vertex 1.84238 -2.0808 2.25
    endloop
  endfacet
  facet normal -0.587795 -0.80901 -0
    outer loop
      vertex 2.31594 -2.42487 2.25
      vertex 1.84238 -2.0808 0
      vertex 2.31594 -2.42487 0
    endloop
  endfacet
  facet normal -0.406736 -0.913546 0
    outer loop
      vertex 2.31594 -2.42487 0
      vertex 2.8507 -2.66296 2.25
      vertex 2.31594 -2.42487 2.25
    endloop
  endfacet
  facet normal -0.406736 -0.913546 -0
    outer loop
      vertex 2.8507 -2.66296 2.25
      vertex 2.31594 -2.42487 0
      vertex 2.8507 -2.66296 0
    endloop
  endfacet
  facet normal -0.207909 -0.978148 0
    outer loop
      vertex 2.8507 -2.66296 0
      vertex 3.42326 -2.78466 2.25
      vertex 2.8507 -2.66296 2.25
    endloop
  endfacet
  facet normal -0.207909 -0.978148 -0
    outer loop
      vertex 3.42326 -2.78466 2.25
      vertex 2.8507 -2.66296 0
      vertex 3.42326 -2.78466 0
    endloop
  endfacet
  facet normal 0 -1 0
    outer loop
      vertex 3.42326 -2.78466 0
      vertex 12.0106 -2.78466 2.25
      vertex 3.42326 -2.78466 2.25
    endloop
  endfacet
  facet normal 0 -1 -0
    outer loop
      vertex 12.0106 -2.78466 2.25
      vertex 3.42326 -2.78466 0
      vertex 12.0106 -2.78466 0
    endloop
  endfacet
  facet normal 0.207896 -0.978151 0
    outer loop
      vertex 12.0106 -2.78466 0
      vertex 12.5832 -2.66296 2.25
      vertex 12.0106 -2.78466 2.25
    endloop
  endfacet
  facet normal 0.207896 -0.978151 0
    outer loop
      vertex 12.5832 -2.66296 2.25
      vertex 12.0106 -2.78466 0
      vertex 12.5832 -2.66296 0
    endloop
  endfacet
  facet normal 1 -0 0
    outer loop
      vertex 3.71594 0 13.5
      vertex 3.71594 47.774 0
      vertex 3.71594 47.774 13.5
    endloop
  endfacet
  facet normal 1 0 0
    outer loop
      vertex 3.71594 47.774 0
      vertex 3.71594 0 13.5
      vertex 3.71594 0 0
    endloop
  endfacet
  facet normal 0 -1 0
    outer loop
      vertex 3.71594 47.774 0
      vertex 11.718 47.774 13.5
      vertex 3.71594 47.774 13.5
    endloop
  endfacet
  facet normal 0 -1 -0
    outer loop
      vertex 11.718 47.774 13.5
      vertex 3.71594 47.774 0
      vertex 11.718 47.774 0
    endloop
  endfacet
  facet normal -1 0 0
    outer loop
      vertex 11.718 0 0
      vertex 11.718 47.774 13.5
      vertex 11.718 47.774 0
    endloop
  endfacet
  facet normal -1 -0 0
    outer loop
      vertex 11.718 47.774 13.5
      vertex 11.718 0 0
      vertex 11.718 0 13.5
    endloop
  endfacet
  facet normal 0 1 -0
    outer loop
      vertex 11.718 0 0
      vertex 3.71594 0 13.5
      vertex 11.718 0 13.5
    endloop
  endfacet
  facet normal 0 1 0
    outer loop
      vertex 3.71594 0 13.5
      vertex 11.718 0 0
      vertex 3.71594 0 0
    endloop
  endfacet
  facet normal -0 0 1
    outer loop
      vertex 3.71594 48.774 13.5
      vertex 11.718 47.774 13.5
      vertex 11.718 48.774 13.5
    endloop
  endfacet
  facet normal 0 0 1
    outer loop
      vertex 3.71594 48.774 13.5
      vertex 3.71594 47.774 13.5
      vertex 11.718 47.774 13.5
    endloop
  endfacet
  facet normal -0 0 1
    outer loop
      vertex 3.33326 48.6978 13.5
      vertex 3.71594 47.774 13.5
      vertex 3.71594 48.774 13.5
    endloop
  endfacet
  facet normal 0 0 1
    outer loop
      vertex 3.71594 47.774 13.5
      vertex 2.71594 47.774 13.5
      vertex 3.71594 0 13.5
    endloop
  endfacet
  facet normal -0 0 1
    outer loop
      vertex 3.00884 48.4811 13.5
      vertex 3.71594 47.774 13.5
      vertex 3.33326 48.6978 13.5
    endloop
  endfacet
  facet normal 0 0 1
    outer loop
      vertex 2.71594 0 13.5
      vertex 3.71594 0 13.5
      vertex 2.71594 47.774 13.5
    endloop
  endfacet
  facet normal -0 0 1
    outer loop
      vertex 2.79206 48.1567 13.5
      vertex 3.71594 47.774 13.5
      vertex 3.00884 48.4811 13.5
    endloop
  endfacet
  facet normal 0 -0 1
    outer loop
      vertex 2.79206 -0.382681 13.5
      vertex 3.71594 0 13.5
      vertex 2.71594 0 13.5
    endloop
  endfacet
  facet normal 0 0 1
    outer loop
      vertex 3.71594 47.774 13.5
      vertex 2.79206 48.1567 13.5
      vertex 2.71594 47.774 13.5
    endloop
  endfacet
  facet normal 0 0 1
    outer loop
      vertex 3.71594 0 13.5
      vertex 3.33326 -0.923877 13.5
      vertex 3.71594 -1 13.5
    endloop
  endfacet
  facet normal 0 0 1
    outer loop
      vertex 3.71594 0 13.5
      vertex 3.00884 -0.707104 13.5
      vertex 3.33326 -0.923877 13.5
    endloop
  endfacet
  facet normal 0 0 1
    outer loop
      vertex 3.71594 0 13.5
      vertex 2.79206 -0.382681 13.5
      vertex 3.00884 -0.707104 13.5
    endloop
  endfacet
  facet normal 0 0 1
    outer loop
      vertex 11.718 47.774 13.5
      vertex 12.718 47.774 13.5
      vertex 12.6418 48.1567 13.5
    endloop
  endfacet
  facet normal 0 0 1
    outer loop
      vertex 12.718 47.774 13.5
      vertex 11.718 47.774 13.5
      vertex 12.718 0 13.5
    endloop
  endfacet
  facet normal 0 0 1
    outer loop
      vertex 11.718 47.774 13.5
      vertex 12.6418 48.1567 13.5
      vertex 12.4251 48.4811 13.5
    endloop
  endfacet
  facet normal 0 0 1
    outer loop
      vertex 11.718 0 13.5
      vertex 12.718 0 13.5
      vertex 11.718 47.774 13.5
    endloop
  endfacet
  facet normal 0 0 1
    outer loop
      vertex 11.718 47.774 13.5
      vertex 12.4251 48.4811 13.5
      vertex 12.1006 48.6978 13.5
    endloop
  endfacet
  facet normal 0 0 1
    outer loop
      vertex 12.718 0 13.5
      vertex 11.718 0 13.5
      vertex 12.6418 -0.382681 13.5
    endloop
  endfacet
  facet normal 0 0 1
    outer loop
      vertex 11.718 47.774 13.5
      vertex 12.1006 48.6978 13.5
      vertex 11.718 48.774 13.5
    endloop
  endfacet
  facet normal 0 0 1
    outer loop
      vertex 12.6418 -0.382681 13.5
      vertex 11.718 0 13.5
      vertex 12.4251 -0.707104 13.5
    endloop
  endfacet
  facet normal 0 0 1
    outer loop
      vertex 12.4251 -0.707104 13.5
      vertex 11.718 0 13.5
      vertex 12.1006 -0.923877 13.5
    endloop
  endfacet
  facet normal 0 0 1
    outer loop
      vertex 11.718 0 13.5
      vertex 11.718 -1 13.5
      vertex 12.1006 -0.923877 13.5
    endloop
  endfacet
  facet normal -0 0 1
    outer loop
      vertex 3.71594 0 13.5
      vertex 11.718 -1 13.5
      vertex 11.718 0 13.5
    endloop
  endfacet
  facet normal 0 0 1
    outer loop
      vertex 11.718 -1 13.5
      vertex 3.71594 0 13.5
      vertex 3.71594 -1 13.5
    endloop
  endfacet
  facet normal 0.55548 -0.83153 0
    outer loop
      vertex 12.1006 -0.923877 2.25
      vertex 12.4251 -0.707104 13.5
      vertex 12.1006 -0.923877 13.5
    endloop
  endfacet
  facet normal 0.55548 -0.83153 0
    outer loop
      vertex 12.4251 -0.707104 13.5
      vertex 12.1006 -0.923877 2.25
      vertex 12.4251 -0.707104 2.25
    endloop
  endfacet
  facet normal 0.831555 -0.555442 0
    outer loop
      vertex 12.4251 -0.707104 13.5
      vertex 12.6418 -0.382681 2.25
      vertex 12.6418 -0.382681 13.5
    endloop
  endfacet
  facet normal 0.831555 -0.555442 0
    outer loop
      vertex 12.6418 -0.382681 2.25
      vertex 12.4251 -0.707104 13.5
      vertex 12.4251 -0.707104 2.25
    endloop
  endfacet
  facet normal 0.980746 -0.195288 0
    outer loop
      vertex 12.6418 -0.382681 13.5
      vertex 12.718 0 2.25
      vertex 12.718 0 13.5
    endloop
  endfacet
  facet normal 0.980746 -0.195288 0
    outer loop
      vertex 12.718 0 2.25
      vertex 12.6418 -0.382681 13.5
      vertex 12.6418 -0.382681 2.25
    endloop
  endfacet
  facet normal 1 -0 0
    outer loop
      vertex 12.718 0 13.5
      vertex 12.718 47.774 2.25
      vertex 12.718 47.774 13.5
    endloop
  endfacet
  facet normal 1 0 0
    outer loop
      vertex 12.718 47.774 2.25
      vertex 12.718 0 13.5
      vertex 12.718 0 2.25
    endloop
  endfacet
  facet normal 0.980748 0.195278 0
    outer loop
      vertex 12.718 47.774 13.5
      vertex 12.6418 48.1567 2.25
      vertex 12.6418 48.1567 13.5
    endloop
  endfacet
  facet normal 0.980748 0.195278 0
    outer loop
      vertex 12.6418 48.1567 2.25
      vertex 12.718 47.774 13.5
      vertex 12.718 47.774 2.25
    endloop
  endfacet
  facet normal 0.831537 0.555469 0
    outer loop
      vertex 12.6418 48.1567 13.5
      vertex 12.4251 48.4811 2.25
      vertex 12.4251 48.4811 13.5
    endloop
  endfacet
  facet normal 0.831537 0.555469 0
    outer loop
      vertex 12.4251 48.4811 2.25
      vertex 12.6418 48.1567 13.5
      vertex 12.6418 48.1567 2.25
    endloop
  endfacet
  facet normal 0.555351 0.831616 -0
    outer loop
      vertex 12.4251 48.4811 2.25
      vertex 12.1006 48.6978 13.5
      vertex 12.4251 48.4811 13.5
    endloop
  endfacet
  facet normal 0.555351 0.831616 0
    outer loop
      vertex 12.1006 48.6978 13.5
      vertex 12.4251 48.4811 2.25
      vertex 12.1006 48.6978 2.25
    endloop
  endfacet
  facet normal 0.195327 0.980738 -0
    outer loop
      vertex 12.1006 48.6978 2.25
      vertex 11.718 48.774 13.5
      vertex 12.1006 48.6978 13.5
    endloop
  endfacet
  facet normal 0.195327 0.980738 0
    outer loop
      vertex 11.718 48.774 13.5
      vertex 12.1006 48.6978 2.25
      vertex 11.718 48.774 2.25
    endloop
  endfacet
  facet normal 0 1 -0
    outer loop
      vertex 11.718 48.774 2.25
      vertex 3.71594 48.774 13.5
      vertex 11.718 48.774 13.5
    endloop
  endfacet
  facet normal 0 1 0
    outer loop
      vertex 3.71594 48.774 13.5
      vertex 11.718 48.774 2.25
      vertex 3.71594 48.774 2.25
    endloop
  endfacet
  facet normal -0.195288 0.980746 0
    outer loop
      vertex 3.71594 48.774 2.25
      vertex 3.33326 48.6978 13.5
      vertex 3.71594 48.774 13.5
    endloop
  endfacet
  facet normal -0.195288 0.980746 0
    outer loop
      vertex 3.33326 48.6978 13.5
      vertex 3.71594 48.774 2.25
      vertex 3.33326 48.6978 2.25
    endloop
  endfacet
  facet normal -0.555445 0.831553 0
    outer loop
      vertex 3.33326 48.6978 2.25
      vertex 3.00884 48.4811 13.5
      vertex 3.33326 48.6978 13.5
    endloop
  endfacet
  facet normal -0.555445 0.831553 0
    outer loop
      vertex 3.00884 48.4811 13.5
      vertex 3.33326 48.6978 2.25
      vertex 3.00884 48.4811 2.25
    endloop
  endfacet
  facet normal -0.831443 0.555611 0
    outer loop
      vertex 2.79206 48.1567 2.25
      vertex 3.00884 48.4811 13.5
      vertex 3.00884 48.4811 2.25
    endloop
  endfacet
  facet normal -0.831443 0.555611 0
    outer loop
      vertex 3.00884 48.4811 13.5
      vertex 2.79206 48.1567 2.25
      vertex 2.79206 48.1567 13.5
    endloop
  endfacet
  facet normal -0.980787 0.195081 0
    outer loop
      vertex 2.71594 47.774 2.25
      vertex 2.79206 48.1567 13.5
      vertex 2.79206 48.1567 2.25
    endloop
  endfacet
  facet normal -0.980787 0.195081 0
    outer loop
      vertex 2.79206 48.1567 13.5
      vertex 2.71594 47.774 2.25
      vertex 2.71594 47.774 13.5
    endloop
  endfacet
  facet normal -1 0 0
    outer loop
      vertex 2.71594 0 2.25
      vertex 2.71594 47.774 13.5
      vertex 2.71594 47.774 2.25
    endloop
  endfacet
  facet normal -1 -0 0
    outer loop
      vertex 2.71594 47.774 13.5
      vertex 2.71594 0 2.25
      vertex 2.71594 0 13.5
    endloop
  endfacet
  facet normal -0.980785 -0.19509 0
    outer loop
      vertex 2.79206 -0.382681 2.25
      vertex 2.71594 0 13.5
      vertex 2.71594 0 2.25
    endloop
  endfacet
  facet normal -0.980785 -0.19509 0
    outer loop
      vertex 2.71594 0 13.5
      vertex 2.79206 -0.382681 2.25
      vertex 2.79206 -0.382681 13.5
    endloop
  endfacet
  facet normal -0.831461 -0.555583 0
    outer loop
      vertex 3.00884 -0.707104 2.25
      vertex 2.79206 -0.382681 13.5
      vertex 2.79206 -0.382681 2.25
    endloop
  endfacet
  facet normal -0.831461 -0.555583 0
    outer loop
      vertex 2.79206 -0.382681 13.5
      vertex 3.00884 -0.707104 2.25
      vertex 3.00884 -0.707104 13.5
    endloop
  endfacet
  facet normal -0.555575 -0.831467 0
    outer loop
      vertex 3.00884 -0.707104 2.25
      vertex 3.33326 -0.923877 13.5
      vertex 3.00884 -0.707104 13.5
    endloop
  endfacet
  facet normal -0.555575 -0.831467 -0
    outer loop
      vertex 3.33326 -0.923877 13.5
      vertex 3.00884 -0.707104 2.25
      vertex 3.33326 -0.923877 2.25
    endloop
  endfacet
  facet normal -0.195098 -0.980784 0
    outer loop
      vertex 3.33326 -0.923877 2.25
      vertex 3.71594 -1 13.5
      vertex 3.33326 -0.923877 13.5
    endloop
  endfacet
  facet normal -0.195098 -0.980784 -0
    outer loop
      vertex 3.71594 -1 13.5
      vertex 3.33326 -0.923877 2.25
      vertex 3.71594 -1 2.25
    endloop
  endfacet
  facet normal 0 -1 0
    outer loop
      vertex 3.71594 -1 2.25
      vertex 11.718 -1 13.5
      vertex 3.71594 -1 13.5
    endloop
  endfacet
  facet normal 0 -1 -0
    outer loop
      vertex 11.718 -1 13.5
      vertex 3.71594 -1 2.25
      vertex 11.718 -1 2.25
    endloop
  endfacet
  facet normal 0.195137 -0.980776 0
    outer loop
      vertex 11.718 -1 2.25
      vertex 12.1006 -0.923877 13.5
      vertex 11.718 -1 13.5
    endloop
  endfacet
  facet normal 0.195137 -0.980776 0
    outer loop
      vertex 12.1006 -0.923877 13.5
      vertex 11.718 -1 2.25
      vertex 12.1006 -0.923877 2.25
    endloop
  endfacet
endsolid OpenSCAD_Model
