solid OpenSCAD_Model
  facet normal 0 0 -1
    outer loop
      vertex 15.2 -15.08 0
      vertex 18 -15.08 0
      vertex 17.9388 -15.6621 0
    endloop
  endfacet
  facet normal 0 0 -1
    outer loop
      vertex 18 -15.08 0
      vertex 15.2 -15.08 0
      vertex 18 15.08 0
    endloop
  endfacet
  facet normal 0 0 -1
    outer loop
      vertex 15.2 -15.08 0
      vertex 17.9388 -15.6621 0
      vertex 17.7579 -16.2189 0
    endloop
  endfacet
  facet normal 0 0 -1
    outer loop
      vertex 15.2 15.08 0
      vertex 18 15.08 0
      vertex 15.2 -15.08 0
    endloop
  endfacet
  facet normal 0 0 -1
    outer loop
      vertex 15.2 -15.08 0
      vertex 17.7579 -16.2189 0
      vertex 17.4652 -16.7258 0
    endloop
  endfacet
  facet normal 0 0 -1
    outer loop
      vertex 18 15.08 0
      vertex 15.2 15.08 0
      vertex 17.9388 15.6621 0
    endloop
  endfacet
  facet normal 0 0 -1
    outer loop
      vertex 15.2 -15.08 0
      vertex 17.4652 -16.7258 0
      vertex 17.0736 -17.1608 0
    endloop
  endfacet
  facet normal -0 0 -1
    outer loop
      vertex 17.9388 15.6621 0
      vertex 15.2 15.08 0
      vertex 17.7579 16.2189 0
    endloop
  endfacet
  facet normal 0 0 -1
    outer loop
      vertex 15.08 -15.2 0
      vertex 17.0736 -17.1608 0
      vertex 16.9536 -17.2808 0
    endloop
  endfacet
  facet normal -0 0 -1
    outer loop
      vertex 17.7579 16.2189 0
      vertex 15.2 15.08 0
      vertex 17.4652 16.7258 0
    endloop
  endfacet
  facet normal 0 0 -1
    outer loop
      vertex 15.08 -15.2 0
      vertex 16.9536 -17.2808 0
      vertex 16.48 -17.6249 0
    endloop
  endfacet
  facet normal -0 0 -1
    outer loop
      vertex 17.4652 16.7258 0
      vertex 15.2 15.08 0
      vertex 17.0736 17.1608 0
    endloop
  endfacet
  facet normal 0 0 -1
    outer loop
      vertex 15.08 -15.2 0
      vertex 16.48 -17.6249 0
      vertex 15.9452 -17.863 0
    endloop
  endfacet
  facet normal 0 0 -1
    outer loop
      vertex 15.08 15.2 0
      vertex 17.0736 17.1608 0
      vertex 15.2 15.08 0
    endloop
  endfacet
  facet normal 0 0 -1
    outer loop
      vertex 15.08 -15.2 0
      vertex 15.9452 -17.863 0
      vertex 15.3727 -17.9847 0
    endloop
  endfacet
  facet normal -0 0 -1
    outer loop
      vertex 17.0736 17.1608 0
      vertex 15.08 15.2 0
      vertex 16.9536 17.2808 0
    endloop
  endfacet
  facet normal -0 0 -1
    outer loop
      vertex 16.9536 17.2808 0
      vertex 15.08 15.2 0
      vertex 16.48 17.6249 0
    endloop
  endfacet
  facet normal 0 0 -1
    outer loop
      vertex 17.0736 -17.1608 0
      vertex 15.08 -15.2 0
      vertex 15.2 -15.08 0
    endloop
  endfacet
  facet normal 0 0 -1
    outer loop
      vertex 15.3727 -17.9847 0
      vertex -15.08 -15.2 0
      vertex 15.08 -15.2 0
    endloop
  endfacet
  facet normal 0 0 -1
    outer loop
      vertex -16.48 -17.6249 0
      vertex -15.08 -15.2 0
      vertex -15.9452 -17.863 0
    endloop
  endfacet
  facet normal 0 0 -1
    outer loop
      vertex -15.9452 -17.863 0
      vertex -15.08 -15.2 0
      vertex -15.3727 -17.9847 0
    endloop
  endfacet
  facet normal 0 0 -1
    outer loop
      vertex -15.3727 -17.9847 0
      vertex -15.08 -15.2 0
      vertex 15.3727 -17.9847 0
    endloop
  endfacet
  facet normal -0 0 -1
    outer loop
      vertex 16.48 17.6249 0
      vertex 15.08 15.2 0
      vertex 15.9452 17.863 0
    endloop
  endfacet
  facet normal -0 0 -1
    outer loop
      vertex 15.9452 17.863 0
      vertex 15.08 15.2 0
      vertex 15.3727 17.9847 0
    endloop
  endfacet
  facet normal 0 0 -1
    outer loop
      vertex -15.08 15.2 0
      vertex 15.3727 17.9847 0
      vertex 15.08 15.2 0
    endloop
  endfacet
  facet normal 0 0 -1
    outer loop
      vertex -15.08 15.2 0
      vertex -15.3727 17.9847 0
      vertex 15.3727 17.9847 0
    endloop
  endfacet
  facet normal 0 0 -1
    outer loop
      vertex -17.0736 17.1608 0
      vertex -15.08 15.2 0
      vertex -15.2 15.08 0
    endloop
  endfacet
  facet normal 0 0 -1
    outer loop
      vertex -15.2 -15.08 0
      vertex -18 -15.08 0
      vertex -15.2 15.08 0
    endloop
  endfacet
  facet normal 0 0 -1
    outer loop
      vertex -16.9536 -17.2808 0
      vertex -15.08 -15.2 0
      vertex -16.48 -17.6249 0
    endloop
  endfacet
  facet normal 0 0 -1
    outer loop
      vertex -18 15.08 0
      vertex -15.2 15.08 0
      vertex -18 -15.08 0
    endloop
  endfacet
  facet normal 0 0 -1
    outer loop
      vertex -17.0736 -17.1608 0
      vertex -15.08 -15.2 0
      vertex -16.9536 -17.2808 0
    endloop
  endfacet
  facet normal 0 -0 -1
    outer loop
      vertex -17.9388 15.6621 0
      vertex -15.2 15.08 0
      vertex -18 15.08 0
    endloop
  endfacet
  facet normal -0 0 -1
    outer loop
      vertex -15.08 -15.2 0
      vertex -17.0736 -17.1608 0
      vertex -15.2 -15.08 0
    endloop
  endfacet
  facet normal 0 0 -1
    outer loop
      vertex -15.08 15.2 0
      vertex -17.0736 17.1608 0
      vertex -16.9536 17.2808 0
    endloop
  endfacet
  facet normal 0 0 -1
    outer loop
      vertex -17.4652 -16.7258 0
      vertex -15.2 -15.08 0
      vertex -17.0736 -17.1608 0
    endloop
  endfacet
  facet normal 0 0 -1
    outer loop
      vertex -15.08 15.2 0
      vertex -15.9452 17.863 0
      vertex -15.3727 17.9847 0
    endloop
  endfacet
  facet normal 0 0 -1
    outer loop
      vertex -17.7579 -16.2189 0
      vertex -15.2 -15.08 0
      vertex -17.4652 -16.7258 0
    endloop
  endfacet
  facet normal 0 0 -1
    outer loop
      vertex -15.08 15.2 0
      vertex -16.48 17.6249 0
      vertex -15.9452 17.863 0
    endloop
  endfacet
  facet normal 0 0 -1
    outer loop
      vertex -17.9388 -15.6621 0
      vertex -15.2 -15.08 0
      vertex -17.7579 -16.2189 0
    endloop
  endfacet
  facet normal 0 0 -1
    outer loop
      vertex -15.08 15.2 0
      vertex -16.9536 17.2808 0
      vertex -16.48 17.6249 0
    endloop
  endfacet
  facet normal -0 0 -1
    outer loop
      vertex -15.2 -15.08 0
      vertex -17.9388 -15.6621 0
      vertex -18 -15.08 0
    endloop
  endfacet
  facet normal 0 0 -1
    outer loop
      vertex -15.2 15.08 0
      vertex -17.4652 16.7258 0
      vertex -17.0736 17.1608 0
    endloop
  endfacet
  facet normal 0 0 -1
    outer loop
      vertex -15.2 15.08 0
      vertex -17.7579 16.2189 0
      vertex -17.4652 16.7258 0
    endloop
  endfacet
  facet normal 0 0 -1
    outer loop
      vertex -15.2 15.08 0
      vertex -17.9388 15.6621 0
      vertex -17.7579 16.2189 0
    endloop
  endfacet
  facet normal 0 0 1
    outer loop
      vertex 16.2 15.08 2.25
      vertex 18 15.08 2.25
      vertex 17.9388 15.6621 2.25
    endloop
  endfacet
  facet normal 0 0 1
    outer loop
      vertex 18 15.08 2.25
      vertex 16.2 15.08 2.25
      vertex 18 -15.08 2.25
    endloop
  endfacet
  facet normal 0 0 1
    outer loop
      vertex 16.1239 15.4627 2.25
      vertex 17.9388 15.6621 2.25
      vertex 17.7579 16.2189 2.25
    endloop
  endfacet
  facet normal 0 0 1
    outer loop
      vertex 16.2 -15.08 2.25
      vertex 18 -15.08 2.25
      vertex 16.2 15.08 2.25
    endloop
  endfacet
  facet normal 0 0 1
    outer loop
      vertex 16.1239 15.4627 2.25
      vertex 17.7579 16.2189 2.25
      vertex 17.4652 16.7258 2.25
    endloop
  endfacet
  facet normal 0 0 1
    outer loop
      vertex 18 -15.08 2.25
      vertex 16.2 -15.08 2.25
      vertex 17.9388 -15.6621 2.25
    endloop
  endfacet
  facet normal 0 0 1
    outer loop
      vertex 15.9071 15.7871 2.25
      vertex 17.4652 16.7258 2.25
      vertex 17.0736 17.1608 2.25
    endloop
  endfacet
  facet normal -0 0 1
    outer loop
      vertex 16.1239 -15.4627 2.25
      vertex 17.9388 -15.6621 2.25
      vertex 16.2 -15.08 2.25
    endloop
  endfacet
  facet normal 0 0 1
    outer loop
      vertex 15.7871 15.9071 2.25
      vertex 17.0736 17.1608 2.25
      vertex 16.9536 17.2808 2.25
    endloop
  endfacet
  facet normal 0 0 1
    outer loop
      vertex 17.9388 -15.6621 2.25
      vertex 16.1239 -15.4627 2.25
      vertex 17.7579 -16.2189 2.25
    endloop
  endfacet
  facet normal 0 0 1
    outer loop
      vertex 15.7871 15.9071 2.25
      vertex 16.9536 17.2808 2.25
      vertex 16.48 17.6249 2.25
    endloop
  endfacet
  facet normal 0 0 1
    outer loop
      vertex 17.7579 -16.2189 2.25
      vertex 16.1239 -15.4627 2.25
      vertex 17.4652 -16.7258 2.25
    endloop
  endfacet
  facet normal -0 0 1
    outer loop
      vertex 15.9071 -15.7871 2.25
      vertex 17.4652 -16.7258 2.25
      vertex 16.1239 -15.4627 2.25
    endloop
  endfacet
  facet normal 0 0 1
    outer loop
      vertex 17.9388 15.6621 2.25
      vertex 16.1239 15.4627 2.25
      vertex 16.2 15.08 2.25
    endloop
  endfacet
  facet normal 0 0 1
    outer loop
      vertex 15.4627 16.1239 2.25
      vertex 16.48 17.6249 2.25
      vertex 15.9452 17.863 2.25
    endloop
  endfacet
  facet normal 0 0 1
    outer loop
      vertex 17.4652 16.7258 2.25
      vertex 15.9071 15.7871 2.25
      vertex 16.1239 15.4627 2.25
    endloop
  endfacet
  facet normal 0 0 1
    outer loop
      vertex 17.0736 17.1608 2.25
      vertex 15.7871 15.9071 2.25
      vertex 15.9071 15.7871 2.25
    endloop
  endfacet
  facet normal 0 0 1
    outer loop
      vertex 16.48 17.6249 2.25
      vertex 15.4627 16.1239 2.25
      vertex 15.7871 15.9071 2.25
    endloop
  endfacet
  facet normal 0 0 1
    outer loop
      vertex 15.3727 17.9847 2.25
      vertex 15.4627 16.1239 2.25
      vertex 15.9452 17.863 2.25
    endloop
  endfacet
  facet normal 0 0 1
    outer loop
      vertex 15.3727 17.9847 2.25
      vertex 15.08 16.2 2.25
      vertex 15.4627 16.1239 2.25
    endloop
  endfacet
  facet normal 0 0 1
    outer loop
      vertex 15.3727 17.9847 2.25
      vertex -15.08 16.2 2.25
      vertex 15.08 16.2 2.25
    endloop
  endfacet
  facet normal -0 0 1
    outer loop
      vertex -15.3727 17.9847 2.25
      vertex -15.08 16.2 2.25
      vertex 15.3727 17.9847 2.25
    endloop
  endfacet
  facet normal 0 0 1
    outer loop
      vertex -15.3727 17.9847 2.25
      vertex -15.4627 16.1239 2.25
      vertex -15.08 16.2 2.25
    endloop
  endfacet
  facet normal -0 0 1
    outer loop
      vertex -15.9452 17.863 2.25
      vertex -15.4627 16.1239 2.25
      vertex -15.3727 17.9847 2.25
    endloop
  endfacet
  facet normal -0 0 1
    outer loop
      vertex -16.48 17.6249 2.25
      vertex -15.4627 16.1239 2.25
      vertex -15.9452 17.863 2.25
    endloop
  endfacet
  facet normal 0 0 1
    outer loop
      vertex -15.4627 16.1239 2.25
      vertex -16.48 17.6249 2.25
      vertex -15.7871 15.9071 2.25
    endloop
  endfacet
  facet normal -0 0 1
    outer loop
      vertex -16.9536 17.2808 2.25
      vertex -15.7871 15.9071 2.25
      vertex -16.48 17.6249 2.25
    endloop
  endfacet
  facet normal -0 0 1
    outer loop
      vertex -17.0736 17.1608 2.25
      vertex -15.7871 15.9071 2.25
      vertex -16.9536 17.2808 2.25
    endloop
  endfacet
  facet normal -0 0 1
    outer loop
      vertex -17.4652 16.7258 2.25
      vertex -15.9071 15.7871 2.25
      vertex -17.0736 17.1608 2.25
    endloop
  endfacet
  facet normal 0 0 1
    outer loop
      vertex -15.7871 15.9071 2.25
      vertex -17.0736 17.1608 2.25
      vertex -15.9071 15.7871 2.25
    endloop
  endfacet
  facet normal 0 0 1
    outer loop
      vertex 17.4652 -16.7258 2.25
      vertex 15.9071 -15.7871 2.25
      vertex 17.0736 -17.1608 2.25
    endloop
  endfacet
  facet normal -0 0 1
    outer loop
      vertex 15.7871 -15.9071 2.25
      vertex 17.0736 -17.1608 2.25
      vertex 15.9071 -15.7871 2.25
    endloop
  endfacet
  facet normal 0 0 1
    outer loop
      vertex 17.0736 -17.1608 2.25
      vertex 15.7871 -15.9071 2.25
      vertex 16.9536 -17.2808 2.25
    endloop
  endfacet
  facet normal 0 0 1
    outer loop
      vertex 16.9536 -17.2808 2.25
      vertex 15.7871 -15.9071 2.25
      vertex 16.48 -17.6249 2.25
    endloop
  endfacet
  facet normal -0 0 1
    outer loop
      vertex 15.4627 -16.1239 2.25
      vertex 16.48 -17.6249 2.25
      vertex 15.7871 -15.9071 2.25
    endloop
  endfacet
  facet normal 0 0 1
    outer loop
      vertex 16.48 -17.6249 2.25
      vertex 15.4627 -16.1239 2.25
      vertex 15.9452 -17.863 2.25
    endloop
  endfacet
  facet normal 0 0 1
    outer loop
      vertex 15.4627 -16.1239 2.25
      vertex 15.3727 -17.9847 2.25
      vertex 15.9452 -17.863 2.25
    endloop
  endfacet
  facet normal -0 0 1
    outer loop
      vertex 15.08 -16.2 2.25
      vertex 15.3727 -17.9847 2.25
      vertex 15.4627 -16.1239 2.25
    endloop
  endfacet
  facet normal -0 0 1
    outer loop
      vertex -15.08 -16.2 2.25
      vertex 15.3727 -17.9847 2.25
      vertex 15.08 -16.2 2.25
    endloop
  endfacet
  facet normal 0 0 1
    outer loop
      vertex -15.08 -16.2 2.25
      vertex -15.3727 -17.9847 2.25
      vertex 15.3727 -17.9847 2.25
    endloop
  endfacet
  facet normal 0 0 1
    outer loop
      vertex -15.4627 -16.1239 2.25
      vertex -15.3727 -17.9847 2.25
      vertex -15.08 -16.2 2.25
    endloop
  endfacet
  facet normal 0 0 1
    outer loop
      vertex -16.48 -17.6249 2.25
      vertex -15.4627 -16.1239 2.25
      vertex -15.7871 -15.9071 2.25
    endloop
  endfacet
  facet normal 0 0 1
    outer loop
      vertex -17.0736 -17.1608 2.25
      vertex -15.7871 -15.9071 2.25
      vertex -15.9071 -15.7871 2.25
    endloop
  endfacet
  facet normal 0 0 1
    outer loop
      vertex -15.4627 -16.1239 2.25
      vertex -15.9452 -17.863 2.25
      vertex -15.3727 -17.9847 2.25
    endloop
  endfacet
  facet normal 0 0 1
    outer loop
      vertex -17.4652 -16.7258 2.25
      vertex -15.9071 -15.7871 2.25
      vertex -16.1239 -15.4627 2.25
    endloop
  endfacet
  facet normal 0 0 1
    outer loop
      vertex -17.9388 -15.6621 2.25
      vertex -16.1239 -15.4627 2.25
      vertex -16.2 -15.08 2.25
    endloop
  endfacet
  facet normal 0 0 1
    outer loop
      vertex -15.4627 -16.1239 2.25
      vertex -16.48 -17.6249 2.25
      vertex -15.9452 -17.863 2.25
    endloop
  endfacet
  facet normal 0 0 1
    outer loop
      vertex -16.2 15.08 2.25
      vertex -18 15.08 2.25
      vertex -16.2 -15.08 2.25
    endloop
  endfacet
  facet normal 0 0 1
    outer loop
      vertex -15.9071 15.7871 2.25
      vertex -17.4652 16.7258 2.25
      vertex -16.1239 15.4627 2.25
    endloop
  endfacet
  facet normal 0 0 1
    outer loop
      vertex -18 -15.08 2.25
      vertex -16.2 -15.08 2.25
      vertex -18 15.08 2.25
    endloop
  endfacet
  facet normal -0 0 1
    outer loop
      vertex -17.7579 16.2189 2.25
      vertex -16.1239 15.4627 2.25
      vertex -17.4652 16.7258 2.25
    endloop
  endfacet
  facet normal 0 -0 1
    outer loop
      vertex -17.9388 -15.6621 2.25
      vertex -16.2 -15.08 2.25
      vertex -18 -15.08 2.25
    endloop
  endfacet
  facet normal -0 0 1
    outer loop
      vertex -17.9388 15.6621 2.25
      vertex -16.1239 15.4627 2.25
      vertex -17.7579 16.2189 2.25
    endloop
  endfacet
  facet normal 0 0 1
    outer loop
      vertex -15.7871 -15.9071 2.25
      vertex -17.0736 -17.1608 2.25
      vertex -16.9536 -17.2808 2.25
    endloop
  endfacet
  facet normal 0 0 1
    outer loop
      vertex -16.1239 15.4627 2.25
      vertex -17.9388 15.6621 2.25
      vertex -16.2 15.08 2.25
    endloop
  endfacet
  facet normal 0 0 1
    outer loop
      vertex -15.7871 -15.9071 2.25
      vertex -16.9536 -17.2808 2.25
      vertex -16.48 -17.6249 2.25
    endloop
  endfacet
  facet normal 0 0 1
    outer loop
      vertex -16.2 15.08 2.25
      vertex -17.9388 15.6621 2.25
      vertex -18 15.08 2.25
    endloop
  endfacet
  facet normal 0 0 1
    outer loop
      vertex -15.9071 -15.7871 2.25
      vertex -17.4652 -16.7258 2.25
      vertex -17.0736 -17.1608 2.25
    endloop
  endfacet
  facet normal 0 0 1
    outer loop
      vertex -16.1239 -15.4627 2.25
      vertex -17.7579 -16.2189 2.25
      vertex -17.4652 -16.7258 2.25
    endloop
  endfacet
  facet normal 0 0 1
    outer loop
      vertex -16.1239 -15.4627 2.25
      vertex -17.9388 -15.6621 2.25
      vertex -17.7579 -16.2189 2.25
    endloop
  endfacet
  facet normal 0.406725 -0.913551 0
    outer loop
      vertex 15.9452 -17.863 0
      vertex 16.48 -17.6249 2.25
      vertex 15.9452 -17.863 2.25
    endloop
  endfacet
  facet normal 0.406725 -0.913551 0
    outer loop
      vertex 16.48 -17.6249 2.25
      vertex 15.9452 -17.863 0
      vertex 16.48 -17.6249 0
    endloop
  endfacet
  facet normal 0.587796 -0.809009 0
    outer loop
      vertex 16.48 -17.6249 0
      vertex 16.9536 -17.2808 2.25
      vertex 16.48 -17.6249 2.25
    endloop
  endfacet
  facet normal 0.587796 -0.809009 0
    outer loop
      vertex 16.9536 -17.2808 2.25
      vertex 16.48 -17.6249 0
      vertex 16.9536 -17.2808 0
    endloop
  endfacet
  facet normal 0.707107 -0.707107 0
    outer loop
      vertex 16.9536 -17.2808 0
      vertex 17.0736 -17.1608 2.25
      vertex 16.9536 -17.2808 2.25
    endloop
  endfacet
  facet normal 0.707107 -0.707107 0
    outer loop
      vertex 17.0736 -17.1608 2.25
      vertex 16.9536 -17.2808 0
      vertex 17.0736 -17.1608 0
    endloop
  endfacet
  facet normal 0.743209 -0.669059 0
    outer loop
      vertex 17.0736 -17.1608 2.25
      vertex 17.4652 -16.7258 0
      vertex 17.4652 -16.7258 2.25
    endloop
  endfacet
  facet normal 0.743209 -0.669059 0
    outer loop
      vertex 17.4652 -16.7258 0
      vertex 17.0736 -17.1608 2.25
      vertex 17.0736 -17.1608 0
    endloop
  endfacet
  facet normal 0.865995 -0.500053 0
    outer loop
      vertex 17.4652 -16.7258 2.25
      vertex 17.7579 -16.2189 0
      vertex 17.7579 -16.2189 2.25
    endloop
  endfacet
  facet normal 0.865995 -0.500053 0
    outer loop
      vertex 17.7579 -16.2189 0
      vertex 17.4652 -16.7258 2.25
      vertex 17.4652 -16.7258 0
    endloop
  endfacet
  facet normal 0.951064 -0.308993 0
    outer loop
      vertex 17.7579 -16.2189 2.25
      vertex 17.9388 -15.6621 0
      vertex 17.9388 -15.6621 2.25
    endloop
  endfacet
  facet normal 0.951064 -0.308993 0
    outer loop
      vertex 17.9388 -15.6621 0
      vertex 17.7579 -16.2189 2.25
      vertex 17.7579 -16.2189 0
    endloop
  endfacet
  facet normal 0.994519 -0.10456 0
    outer loop
      vertex 17.9388 -15.6621 2.25
      vertex 18 -15.08 0
      vertex 18 -15.08 2.25
    endloop
  endfacet
  facet normal 0.994519 -0.10456 0
    outer loop
      vertex 18 -15.08 0
      vertex 17.9388 -15.6621 2.25
      vertex 17.9388 -15.6621 0
    endloop
  endfacet
  facet normal 1 -0 0
    outer loop
      vertex 18 -15.08 2.25
      vertex 18 15.08 0
      vertex 18 15.08 2.25
    endloop
  endfacet
  facet normal 1 0 0
    outer loop
      vertex 18 15.08 0
      vertex 18 -15.08 2.25
      vertex 18 -15.08 0
    endloop
  endfacet
  facet normal 0.994519 0.10456 0
    outer loop
      vertex 18 15.08 2.25
      vertex 17.9388 15.6621 0
      vertex 17.9388 15.6621 2.25
    endloop
  endfacet
  facet normal 0.994519 0.10456 0
    outer loop
      vertex 17.9388 15.6621 0
      vertex 18 15.08 2.25
      vertex 18 15.08 0
    endloop
  endfacet
  facet normal 0.951064 0.308993 0
    outer loop
      vertex 17.9388 15.6621 2.25
      vertex 17.7579 16.2189 0
      vertex 17.7579 16.2189 2.25
    endloop
  endfacet
  facet normal 0.951064 0.308993 0
    outer loop
      vertex 17.7579 16.2189 0
      vertex 17.9388 15.6621 2.25
      vertex 17.9388 15.6621 0
    endloop
  endfacet
  facet normal 0.865995 0.500053 0
    outer loop
      vertex 17.7579 16.2189 2.25
      vertex 17.4652 16.7258 0
      vertex 17.4652 16.7258 2.25
    endloop
  endfacet
  facet normal 0.865995 0.500053 0
    outer loop
      vertex 17.4652 16.7258 0
      vertex 17.7579 16.2189 2.25
      vertex 17.7579 16.2189 0
    endloop
  endfacet
  facet normal 0.743209 0.669059 0
    outer loop
      vertex 17.4652 16.7258 2.25
      vertex 17.0736 17.1608 0
      vertex 17.0736 17.1608 2.25
    endloop
  endfacet
  facet normal 0.743209 0.669059 0
    outer loop
      vertex 17.0736 17.1608 0
      vertex 17.4652 16.7258 2.25
      vertex 17.4652 16.7258 0
    endloop
  endfacet
  facet normal 0.707107 0.707107 -0
    outer loop
      vertex 17.0736 17.1608 0
      vertex 16.9536 17.2808 2.25
      vertex 17.0736 17.1608 2.25
    endloop
  endfacet
  facet normal 0.707107 0.707107 0
    outer loop
      vertex 16.9536 17.2808 2.25
      vertex 17.0736 17.1608 0
      vertex 16.9536 17.2808 0
    endloop
  endfacet
  facet normal 0.587796 0.809009 -0
    outer loop
      vertex 16.9536 17.2808 0
      vertex 16.48 17.6249 2.25
      vertex 16.9536 17.2808 2.25
    endloop
  endfacet
  facet normal 0.587796 0.809009 0
    outer loop
      vertex 16.48 17.6249 2.25
      vertex 16.9536 17.2808 0
      vertex 16.48 17.6249 0
    endloop
  endfacet
  facet normal 0.406725 0.913551 -0
    outer loop
      vertex 16.48 17.6249 0
      vertex 15.9452 17.863 2.25
      vertex 16.48 17.6249 2.25
    endloop
  endfacet
  facet normal 0.406725 0.913551 0
    outer loop
      vertex 15.9452 17.863 2.25
      vertex 16.48 17.6249 0
      vertex 15.9452 17.863 0
    endloop
  endfacet
  facet normal 0.20793 0.978144 -0
    outer loop
      vertex 15.9452 17.863 0
      vertex 15.3727 17.9847 2.25
      vertex 15.9452 17.863 2.25
    endloop
  endfacet
  facet normal 0.20793 0.978144 0
    outer loop
      vertex 15.3727 17.9847 2.25
      vertex 15.9452 17.863 0
      vertex 15.3727 17.9847 0
    endloop
  endfacet
  facet normal 0 1 -0
    outer loop
      vertex 15.3727 17.9847 0
      vertex -15.3727 17.9847 2.25
      vertex 15.3727 17.9847 2.25
    endloop
  endfacet
  facet normal 0 1 0
    outer loop
      vertex -15.3727 17.9847 2.25
      vertex 15.3727 17.9847 0
      vertex -15.3727 17.9847 0
    endloop
  endfacet
  facet normal -0.20793 0.978144 0
    outer loop
      vertex -15.3727 17.9847 0
      vertex -15.9452 17.863 2.25
      vertex -15.3727 17.9847 2.25
    endloop
  endfacet
  facet normal -0.20793 0.978144 0
    outer loop
      vertex -15.9452 17.863 2.25
      vertex -15.3727 17.9847 0
      vertex -15.9452 17.863 0
    endloop
  endfacet
  facet normal -0.406725 0.913551 0
    outer loop
      vertex -15.9452 17.863 0
      vertex -16.48 17.6249 2.25
      vertex -15.9452 17.863 2.25
    endloop
  endfacet
  facet normal -0.406725 0.913551 0
    outer loop
      vertex -16.48 17.6249 2.25
      vertex -15.9452 17.863 0
      vertex -16.48 17.6249 0
    endloop
  endfacet
  facet normal -0.587796 0.809009 0
    outer loop
      vertex -16.48 17.6249 0
      vertex -16.9536 17.2808 2.25
      vertex -16.48 17.6249 2.25
    endloop
  endfacet
  facet normal -0.587796 0.809009 0
    outer loop
      vertex -16.9536 17.2808 2.25
      vertex -16.48 17.6249 0
      vertex -16.9536 17.2808 0
    endloop
  endfacet
  facet normal -0.707107 0.707107 0
    outer loop
      vertex -16.9536 17.2808 0
      vertex -17.0736 17.1608 2.25
      vertex -16.9536 17.2808 2.25
    endloop
  endfacet
  facet normal -0.707107 0.707107 0
    outer loop
      vertex -17.0736 17.1608 2.25
      vertex -16.9536 17.2808 0
      vertex -17.0736 17.1608 0
    endloop
  endfacet
  facet normal -0.743209 0.669059 0
    outer loop
      vertex -17.4652 16.7258 0
      vertex -17.0736 17.1608 2.25
      vertex -17.0736 17.1608 0
    endloop
  endfacet
  facet normal -0.743209 0.669059 0
    outer loop
      vertex -17.0736 17.1608 2.25
      vertex -17.4652 16.7258 0
      vertex -17.4652 16.7258 2.25
    endloop
  endfacet
  facet normal -0.865995 0.500053 0
    outer loop
      vertex -17.7579 16.2189 0
      vertex -17.4652 16.7258 2.25
      vertex -17.4652 16.7258 0
    endloop
  endfacet
  facet normal -0.865995 0.500053 0
    outer loop
      vertex -17.4652 16.7258 2.25
      vertex -17.7579 16.2189 0
      vertex -17.7579 16.2189 2.25
    endloop
  endfacet
  facet normal -0.951064 0.308993 0
    outer loop
      vertex -17.9388 15.6621 0
      vertex -17.7579 16.2189 2.25
      vertex -17.7579 16.2189 0
    endloop
  endfacet
  facet normal -0.951064 0.308993 0
    outer loop
      vertex -17.7579 16.2189 2.25
      vertex -17.9388 15.6621 0
      vertex -17.9388 15.6621 2.25
    endloop
  endfacet
  facet normal -0.994519 0.10456 0
    outer loop
      vertex -18 15.08 0
      vertex -17.9388 15.6621 2.25
      vertex -17.9388 15.6621 0
    endloop
  endfacet
  facet normal -0.994519 0.10456 0
    outer loop
      vertex -17.9388 15.6621 2.25
      vertex -18 15.08 0
      vertex -18 15.08 2.25
    endloop
  endfacet
  facet normal -1 0 0
    outer loop
      vertex -18 -15.08 0
      vertex -18 15.08 2.25
      vertex -18 15.08 0
    endloop
  endfacet
  facet normal -1 -0 0
    outer loop
      vertex -18 15.08 2.25
      vertex -18 -15.08 0
      vertex -18 -15.08 2.25
    endloop
  endfacet
  facet normal -0.994519 -0.10456 0
    outer loop
      vertex -17.9388 -15.6621 0
      vertex -18 -15.08 2.25
      vertex -18 -15.08 0
    endloop
  endfacet
  facet normal -0.994519 -0.10456 0
    outer loop
      vertex -18 -15.08 2.25
      vertex -17.9388 -15.6621 0
      vertex -17.9388 -15.6621 2.25
    endloop
  endfacet
  facet normal -0.951064 -0.308993 0
    outer loop
      vertex -17.7579 -16.2189 0
      vertex -17.9388 -15.6621 2.25
      vertex -17.9388 -15.6621 0
    endloop
  endfacet
  facet normal -0.951064 -0.308993 0
    outer loop
      vertex -17.9388 -15.6621 2.25
      vertex -17.7579 -16.2189 0
      vertex -17.7579 -16.2189 2.25
    endloop
  endfacet
  facet normal -0.865995 -0.500053 0
    outer loop
      vertex -17.4652 -16.7258 0
      vertex -17.7579 -16.2189 2.25
      vertex -17.7579 -16.2189 0
    endloop
  endfacet
  facet normal -0.865995 -0.500053 0
    outer loop
      vertex -17.7579 -16.2189 2.25
      vertex -17.4652 -16.7258 0
      vertex -17.4652 -16.7258 2.25
    endloop
  endfacet
  facet normal -0.743209 -0.669059 0
    outer loop
      vertex -17.0736 -17.1608 0
      vertex -17.4652 -16.7258 2.25
      vertex -17.4652 -16.7258 0
    endloop
  endfacet
  facet normal -0.743209 -0.669059 0
    outer loop
      vertex -17.4652 -16.7258 2.25
      vertex -17.0736 -17.1608 0
      vertex -17.0736 -17.1608 2.25
    endloop
  endfacet
  facet normal -0.707107 -0.707107 0
    outer loop
      vertex -17.0736 -17.1608 0
      vertex -16.9536 -17.2808 2.25
      vertex -17.0736 -17.1608 2.25
    endloop
  endfacet
  facet normal -0.707107 -0.707107 -0
    outer loop
      vertex -16.9536 -17.2808 2.25
      vertex -17.0736 -17.1608 0
      vertex -16.9536 -17.2808 0
    endloop
  endfacet
  facet normal -0.587796 -0.809009 0
    outer loop
      vertex -16.9536 -17.2808 0
      vertex -16.48 -17.6249 2.25
      vertex -16.9536 -17.2808 2.25
    endloop
  endfacet
  facet normal -0.587796 -0.809009 -0
    outer loop
      vertex -16.48 -17.6249 2.25
      vertex -16.9536 -17.2808 0
      vertex -16.48 -17.6249 0
    endloop
  endfacet
  facet normal -0.406725 -0.913551 0
    outer loop
      vertex -16.48 -17.6249 0
      vertex -15.9452 -17.863 2.25
      vertex -16.48 -17.6249 2.25
    endloop
  endfacet
  facet normal -0.406725 -0.913551 -0
    outer loop
      vertex -15.9452 -17.863 2.25
      vertex -16.48 -17.6249 0
      vertex -15.9452 -17.863 0
    endloop
  endfacet
  facet normal -0.20793 -0.978144 0
    outer loop
      vertex -15.9452 -17.863 0
      vertex -15.3727 -17.9847 2.25
      vertex -15.9452 -17.863 2.25
    endloop
  endfacet
  facet normal -0.20793 -0.978144 -0
    outer loop
      vertex -15.3727 -17.9847 2.25
      vertex -15.9452 -17.863 0
      vertex -15.3727 -17.9847 0
    endloop
  endfacet
  facet normal 0 -1 0
    outer loop
      vertex -15.3727 -17.9847 0
      vertex 15.3727 -17.9847 2.25
      vertex -15.3727 -17.9847 2.25
    endloop
  endfacet
  facet normal 0 -1 -0
    outer loop
      vertex 15.3727 -17.9847 2.25
      vertex -15.3727 -17.9847 0
      vertex 15.3727 -17.9847 0
    endloop
  endfacet
  facet normal 0.20793 -0.978144 0
    outer loop
      vertex 15.3727 -17.9847 0
      vertex 15.9452 -17.863 2.25
      vertex 15.3727 -17.9847 2.25
    endloop
  endfacet
  facet normal 0.20793 -0.978144 0
    outer loop
      vertex 15.9452 -17.863 2.25
      vertex 15.3727 -17.9847 0
      vertex 15.9452 -17.863 0
    endloop
  endfacet
  facet normal 0.707107 0.707107 0
    outer loop
      vertex -15.08 -15.2 13.5
      vertex -15.2 -15.08 0
      vertex -15.2 -15.08 13.5
    endloop
  endfacet
  facet normal 0.707107 0.707107 0
    outer loop
      vertex -15.2 -15.08 0
      vertex -15.08 -15.2 13.5
      vertex -15.08 -15.2 0
    endloop
  endfacet
  facet normal 1 -0 0
    outer loop
      vertex -15.2 -15.08 13.5
      vertex -15.2 15.08 0
      vertex -15.2 15.08 13.5
    endloop
  endfacet
  facet normal 1 0 0
    outer loop
      vertex -15.2 15.08 0
      vertex -15.2 -15.08 13.5
      vertex -15.2 -15.08 0
    endloop
  endfacet
  facet normal 0.707107 -0.707107 0
    outer loop
      vertex -15.2 15.08 13.5
      vertex -15.08 15.2 0
      vertex -15.08 15.2 13.5
    endloop
  endfacet
  facet normal 0.707107 -0.707107 0
    outer loop
      vertex -15.08 15.2 0
      vertex -15.2 15.08 13.5
      vertex -15.2 15.08 0
    endloop
  endfacet
  facet normal 0 -1 0
    outer loop
      vertex -15.08 15.2 0
      vertex 15.08 15.2 13.5
      vertex -15.08 15.2 13.5
    endloop
  endfacet
  facet normal 0 -1 -0
    outer loop
      vertex 15.08 15.2 13.5
      vertex -15.08 15.2 0
      vertex 15.08 15.2 0
    endloop
  endfacet
  facet normal -0.707107 -0.707107 0
    outer loop
      vertex 15.2 15.08 0
      vertex 15.08 15.2 13.5
      vertex 15.08 15.2 0
    endloop
  endfacet
  facet normal -0.707107 -0.707107 0
    outer loop
      vertex 15.08 15.2 13.5
      vertex 15.2 15.08 0
      vertex 15.2 15.08 13.5
    endloop
  endfacet
  facet normal -1 0 0
    outer loop
      vertex 15.2 -15.08 0
      vertex 15.2 15.08 13.5
      vertex 15.2 15.08 0
    endloop
  endfacet
  facet normal -1 -0 0
    outer loop
      vertex 15.2 15.08 13.5
      vertex 15.2 -15.08 0
      vertex 15.2 -15.08 13.5
    endloop
  endfacet
  facet normal -0.707107 0.707107 0
    outer loop
      vertex 15.08 -15.2 0
      vertex 15.2 -15.08 13.5
      vertex 15.2 -15.08 0
    endloop
  endfacet
  facet normal -0.707107 0.707107 0
    outer loop
      vertex 15.2 -15.08 13.5
      vertex 15.08 -15.2 0
      vertex 15.08 -15.2 13.5
    endloop
  endfacet
  facet normal 0 1 -0
    outer loop
      vertex 15.08 -15.2 0
      vertex -15.08 -15.2 13.5
      vertex 15.08 -15.2 13.5
    endloop
  endfacet
  facet normal 0 1 0
    outer loop
      vertex -15.08 -15.2 13.5
      vertex 15.08 -15.2 0
      vertex -15.08 -15.2 0
    endloop
  endfacet
  facet normal 0 0 1
    outer loop
      vertex 15.2 15.08 13.5
      vertex 16.2 15.08 13.5
      vertex 16.1239 15.4627 13.5
    endloop
  endfacet
  facet normal 0 0 1
    outer loop
      vertex 16.2 15.08 13.5
      vertex 15.2 15.08 13.5
      vertex 16.2 -15.08 13.5
    endloop
  endfacet
  facet normal 0 0 1
    outer loop
      vertex 15.2 15.08 13.5
      vertex 16.1239 15.4627 13.5
      vertex 15.9071 15.7871 13.5
    endloop
  endfacet
  facet normal 0 0 1
    outer loop
      vertex 15.2 -15.08 13.5
      vertex 16.2 -15.08 13.5
      vertex 15.2 15.08 13.5
    endloop
  endfacet
  facet normal 0 0 1
    outer loop
      vertex 15.2 15.08 13.5
      vertex 15.9071 15.7871 13.5
      vertex 15.7871 15.9071 13.5
    endloop
  endfacet
  facet normal 0 0 1
    outer loop
      vertex 16.2 -15.08 13.5
      vertex 15.2 -15.08 13.5
      vertex 16.1239 -15.4627 13.5
    endloop
  endfacet
  facet normal 0 0 1
    outer loop
      vertex 15.08 15.2 13.5
      vertex 15.7871 15.9071 13.5
      vertex 15.4627 16.1239 13.5
    endloop
  endfacet
  facet normal 0 0 1
    outer loop
      vertex 16.1239 -15.4627 13.5
      vertex 15.2 -15.08 13.5
      vertex 15.9071 -15.7871 13.5
    endloop
  endfacet
  facet normal 0 0 1
    outer loop
      vertex 15.9071 -15.7871 13.5
      vertex 15.2 -15.08 13.5
      vertex 15.7871 -15.9071 13.5
    endloop
  endfacet
  facet normal 0 0 1
    outer loop
      vertex 15.08 15.2 13.5
      vertex 15.4627 16.1239 13.5
      vertex 15.08 16.2 13.5
    endloop
  endfacet
  facet normal 0 0 1
    outer loop
      vertex 15.7871 15.9071 13.5
      vertex 15.08 15.2 13.5
      vertex 15.2 15.08 13.5
    endloop
  endfacet
  facet normal -0 0 1
    outer loop
      vertex -15.08 16.2 13.5
      vertex 15.08 15.2 13.5
      vertex 15.08 16.2 13.5
    endloop
  endfacet
  facet normal 0 0 1
    outer loop
      vertex -15.08 16.2 13.5
      vertex -15.08 15.2 13.5
      vertex 15.08 15.2 13.5
    endloop
  endfacet
  facet normal -0 0 1
    outer loop
      vertex -15.4627 16.1239 13.5
      vertex -15.08 15.2 13.5
      vertex -15.08 16.2 13.5
    endloop
  endfacet
  facet normal 0 0 1
    outer loop
      vertex -15.08 15.2 13.5
      vertex -15.7871 15.9071 13.5
      vertex -15.2 15.08 13.5
    endloop
  endfacet
  facet normal -0 0 1
    outer loop
      vertex -15.7871 15.9071 13.5
      vertex -15.08 15.2 13.5
      vertex -15.4627 16.1239 13.5
    endloop
  endfacet
  facet normal -0 0 1
    outer loop
      vertex 15.08 -15.2 13.5
      vertex 15.7871 -15.9071 13.5
      vertex 15.2 -15.08 13.5
    endloop
  endfacet
  facet normal 0 0 1
    outer loop
      vertex 15.7871 -15.9071 13.5
      vertex 15.08 -15.2 13.5
      vertex 15.4627 -16.1239 13.5
    endloop
  endfacet
  facet normal 0 0 1
    outer loop
      vertex 15.08 -15.2 13.5
      vertex 15.08 -16.2 13.5
      vertex 15.4627 -16.1239 13.5
    endloop
  endfacet
  facet normal -0 0 1
    outer loop
      vertex -15.08 -15.2 13.5
      vertex 15.08 -16.2 13.5
      vertex 15.08 -15.2 13.5
    endloop
  endfacet
  facet normal 0 0 1
    outer loop
      vertex -15.08 -15.2 13.5
      vertex -15.08 -16.2 13.5
      vertex 15.08 -16.2 13.5
    endloop
  endfacet
  facet normal 0 0 1
    outer loop
      vertex -15.7871 -15.9071 13.5
      vertex -15.08 -15.2 13.5
      vertex -15.2 -15.08 13.5
    endloop
  endfacet
  facet normal 0 0 1
    outer loop
      vertex -15.08 -15.2 13.5
      vertex -15.4627 -16.1239 13.5
      vertex -15.08 -16.2 13.5
    endloop
  endfacet
  facet normal 0 0 1
    outer loop
      vertex -15.2 15.08 13.5
      vertex -16.2 15.08 13.5
      vertex -15.2 -15.08 13.5
    endloop
  endfacet
  facet normal -0 0 1
    outer loop
      vertex -15.9071 15.7871 13.5
      vertex -15.2 15.08 13.5
      vertex -15.7871 15.9071 13.5
    endloop
  endfacet
  facet normal 0 0 1
    outer loop
      vertex -16.2 -15.08 13.5
      vertex -15.2 -15.08 13.5
      vertex -16.2 15.08 13.5
    endloop
  endfacet
  facet normal -0 0 1
    outer loop
      vertex -16.1239 15.4627 13.5
      vertex -15.2 15.08 13.5
      vertex -15.9071 15.7871 13.5
    endloop
  endfacet
  facet normal 0 -0 1
    outer loop
      vertex -16.1239 -15.4627 13.5
      vertex -15.2 -15.08 13.5
      vertex -16.2 -15.08 13.5
    endloop
  endfacet
  facet normal 0 0 1
    outer loop
      vertex -15.2 15.08 13.5
      vertex -16.1239 15.4627 13.5
      vertex -16.2 15.08 13.5
    endloop
  endfacet
  facet normal 0 0 1
    outer loop
      vertex -15.08 -15.2 13.5
      vertex -15.7871 -15.9071 13.5
      vertex -15.4627 -16.1239 13.5
    endloop
  endfacet
  facet normal 0 0 1
    outer loop
      vertex -15.2 -15.08 13.5
      vertex -15.9071 -15.7871 13.5
      vertex -15.7871 -15.9071 13.5
    endloop
  endfacet
  facet normal 0 0 1
    outer loop
      vertex -15.2 -15.08 13.5
      vertex -16.1239 -15.4627 13.5
      vertex -15.9071 -15.7871 13.5
    endloop
  endfacet
  facet normal 0.555646 -0.831419 0
    outer loop
      vertex 15.4627 -16.1239 2.25
      vertex 15.7871 -15.9071 13.5
      vertex 15.4627 -16.1239 13.5
    endloop
  endfacet
  facet normal 0.555646 -0.831419 0
    outer loop
      vertex 15.7871 -15.9071 13.5
      vertex 15.4627 -16.1239 2.25
      vertex 15.7871 -15.9071 2.25
    endloop
  endfacet
  facet normal 0.707107 -0.707107 0
    outer loop
      vertex 15.7871 -15.9071 13.5
      vertex 15.9071 -15.7871 2.25
      vertex 15.9071 -15.7871 13.5
    endloop
  endfacet
  facet normal 0.707107 -0.707107 0
    outer loop
      vertex 15.9071 -15.7871 2.25
      vertex 15.7871 -15.9071 13.5
      vertex 15.7871 -15.9071 2.25
    endloop
  endfacet
  facet normal 0.831419 -0.555646 0
    outer loop
      vertex 15.9071 -15.7871 13.5
      vertex 16.1239 -15.4627 2.25
      vertex 16.1239 -15.4627 13.5
    endloop
  endfacet
  facet normal 0.831419 -0.555646 0
    outer loop
      vertex 16.1239 -15.4627 2.25
      vertex 15.9071 -15.7871 13.5
      vertex 15.9071 -15.7871 2.25
    endloop
  endfacet
  facet normal 0.980797 -0.195032 0
    outer loop
      vertex 16.1239 -15.4627 13.5
      vertex 16.2 -15.08 2.25
      vertex 16.2 -15.08 13.5
    endloop
  endfacet
  facet normal 0.980797 -0.195032 0
    outer loop
      vertex 16.2 -15.08 2.25
      vertex 16.1239 -15.4627 13.5
      vertex 16.1239 -15.4627 2.25
    endloop
  endfacet
  facet normal 1 -0 0
    outer loop
      vertex 16.2 -15.08 13.5
      vertex 16.2 15.08 2.25
      vertex 16.2 15.08 13.5
    endloop
  endfacet
  facet normal 1 0 0
    outer loop
      vertex 16.2 15.08 2.25
      vertex 16.2 -15.08 13.5
      vertex 16.2 -15.08 2.25
    endloop
  endfacet
  facet normal 0.980797 0.195032 0
    outer loop
      vertex 16.2 15.08 13.5
      vertex 16.1239 15.4627 2.25
      vertex 16.1239 15.4627 13.5
    endloop
  endfacet
  facet normal 0.980797 0.195032 0
    outer loop
      vertex 16.1239 15.4627 2.25
      vertex 16.2 15.08 13.5
      vertex 16.2 15.08 2.25
    endloop
  endfacet
  facet normal 0.831419 0.555646 0
    outer loop
      vertex 16.1239 15.4627 13.5
      vertex 15.9071 15.7871 2.25
      vertex 15.9071 15.7871 13.5
    endloop
  endfacet
  facet normal 0.831419 0.555646 0
    outer loop
      vertex 15.9071 15.7871 2.25
      vertex 16.1239 15.4627 13.5
      vertex 16.1239 15.4627 2.25
    endloop
  endfacet
  facet normal 0.707107 0.707107 0
    outer loop
      vertex 15.9071 15.7871 13.5
      vertex 15.7871 15.9071 2.25
      vertex 15.7871 15.9071 13.5
    endloop
  endfacet
  facet normal 0.707107 0.707107 0
    outer loop
      vertex 15.7871 15.9071 2.25
      vertex 15.9071 15.7871 13.5
      vertex 15.9071 15.7871 2.25
    endloop
  endfacet
  facet normal 0.555646 0.831419 -0
    outer loop
      vertex 15.7871 15.9071 2.25
      vertex 15.4627 16.1239 13.5
      vertex 15.7871 15.9071 13.5
    endloop
  endfacet
  facet normal 0.555646 0.831419 0
    outer loop
      vertex 15.4627 16.1239 13.5
      vertex 15.7871 15.9071 2.25
      vertex 15.4627 16.1239 2.25
    endloop
  endfacet
  facet normal 0.195032 0.980797 -0
    outer loop
      vertex 15.4627 16.1239 2.25
      vertex 15.08 16.2 13.5
      vertex 15.4627 16.1239 13.5
    endloop
  endfacet
  facet normal 0.195032 0.980797 0
    outer loop
      vertex 15.08 16.2 13.5
      vertex 15.4627 16.1239 2.25
      vertex 15.08 16.2 2.25
    endloop
  endfacet
  facet normal 0 1 -0
    outer loop
      vertex 15.08 16.2 2.25
      vertex -15.08 16.2 13.5
      vertex 15.08 16.2 13.5
    endloop
  endfacet
  facet normal 0 1 0
    outer loop
      vertex -15.08 16.2 13.5
      vertex 15.08 16.2 2.25
      vertex -15.08 16.2 2.25
    endloop
  endfacet
  facet normal -0.195032 0.980797 0
    outer loop
      vertex -15.08 16.2 2.25
      vertex -15.4627 16.1239 13.5
      vertex -15.08 16.2 13.5
    endloop
  endfacet
  facet normal -0.195032 0.980797 0
    outer loop
      vertex -15.4627 16.1239 13.5
      vertex -15.08 16.2 2.25
      vertex -15.4627 16.1239 2.25
    endloop
  endfacet
  facet normal -0.555646 0.831419 0
    outer loop
      vertex -15.4627 16.1239 2.25
      vertex -15.7871 15.9071 13.5
      vertex -15.4627 16.1239 13.5
    endloop
  endfacet
  facet normal -0.555646 0.831419 0
    outer loop
      vertex -15.7871 15.9071 13.5
      vertex -15.4627 16.1239 2.25
      vertex -15.7871 15.9071 2.25
    endloop
  endfacet
  facet normal -0.707107 0.707107 0
    outer loop
      vertex -15.9071 15.7871 2.25
      vertex -15.7871 15.9071 13.5
      vertex -15.7871 15.9071 2.25
    endloop
  endfacet
  facet normal -0.707107 0.707107 0
    outer loop
      vertex -15.7871 15.9071 13.5
      vertex -15.9071 15.7871 2.25
      vertex -15.9071 15.7871 13.5
    endloop
  endfacet
  facet normal -0.831419 0.555646 0
    outer loop
      vertex -16.1239 15.4627 2.25
      vertex -15.9071 15.7871 13.5
      vertex -15.9071 15.7871 2.25
    endloop
  endfacet
  facet normal -0.831419 0.555646 0
    outer loop
      vertex -15.9071 15.7871 13.5
      vertex -16.1239 15.4627 2.25
      vertex -16.1239 15.4627 13.5
    endloop
  endfacet
  facet normal -0.980797 0.195032 0
    outer loop
      vertex -16.2 15.08 2.25
      vertex -16.1239 15.4627 13.5
      vertex -16.1239 15.4627 2.25
    endloop
  endfacet
  facet normal -0.980797 0.195032 0
    outer loop
      vertex -16.1239 15.4627 13.5
      vertex -16.2 15.08 2.25
      vertex -16.2 15.08 13.5
    endloop
  endfacet
  facet normal -1 0 0
    outer loop
      vertex -16.2 -15.08 2.25
      vertex -16.2 15.08 13.5
      vertex -16.2 15.08 2.25
    endloop
  endfacet
  facet normal -1 -0 0
    outer loop
      vertex -16.2 15.08 13.5
      vertex -16.2 -15.08 2.25
      vertex -16.2 -15.08 13.5
    endloop
  endfacet
  facet normal -0.980797 -0.195032 0
    outer loop
      vertex -16.1239 -15.4627 2.25
      vertex -16.2 -15.08 13.5
      vertex -16.2 -15.08 2.25
    endloop
  endfacet
  facet normal -0.980797 -0.195032 0
    outer loop
      vertex -16.2 -15.08 13.5
      vertex -16.1239 -15.4627 2.25
      vertex -16.1239 -15.4627 13.5
    endloop
  endfacet
  facet normal -0.831419 -0.555646 0
    outer loop
      vertex -15.9071 -15.7871 2.25
      vertex -16.1239 -15.4627 13.5
      vertex -16.1239 -15.4627 2.25
    endloop
  endfacet
  facet normal -0.831419 -0.555646 0
    outer loop
      vertex -16.1239 -15.4627 13.5
      vertex -15.9071 -15.7871 2.25
      vertex -15.9071 -15.7871 13.5
    endloop
  endfacet
  facet normal -0.707107 -0.707107 0
    outer loop
      vertex -15.7871 -15.9071 2.25
      vertex -15.9071 -15.7871 13.5
      vertex -15.9071 -15.7871 2.25
    endloop
  endfacet
  facet normal -0.707107 -0.707107 0
    outer loop
      vertex -15.9071 -15.7871 13.5
      vertex -15.7871 -15.9071 2.25
      vertex -15.7871 -15.9071 13.5
    endloop
  endfacet
  facet normal -0.555646 -0.831419 0
    outer loop
      vertex -15.7871 -15.9071 2.25
      vertex -15.4627 -16.1239 13.5
      vertex -15.7871 -15.9071 13.5
    endloop
  endfacet
  facet normal -0.555646 -0.831419 -0
    outer loop
      vertex -15.4627 -16.1239 13.5
      vertex -15.7871 -15.9071 2.25
      vertex -15.4627 -16.1239 2.25
    endloop
  endfacet
  facet normal -0.195032 -0.980797 0
    outer loop
      vertex -15.4627 -16.1239 2.25
      vertex -15.08 -16.2 13.5
      vertex -15.4627 -16.1239 13.5
    endloop
  endfacet
  facet normal -0.195032 -0.980797 -0
    outer loop
      vertex -15.08 -16.2 13.5
      vertex -15.4627 -16.1239 2.25
      vertex -15.08 -16.2 2.25
    endloop
  endfacet
  facet normal 0 -1 0
    outer loop
      vertex -15.08 -16.2 2.25
      vertex 15.08 -16.2 13.5
      vertex -15.08 -16.2 13.5
    endloop
  endfacet
  facet normal 0 -1 -0
    outer loop
      vertex 15.08 -16.2 13.5
      vertex -15.08 -16.2 2.25
      vertex 15.08 -16.2 2.25
    endloop
  endfacet
  facet normal 0.195032 -0.980797 0
    outer loop
      vertex 15.08 -16.2 2.25
      vertex 15.4627 -16.1239 13.5
      vertex 15.08 -16.2 13.5
    endloop
  endfacet
  facet normal 0.195032 -0.980797 0
    outer loop
      vertex 15.4627 -16.1239 13.5
      vertex 15.08 -16.2 2.25
      vertex 15.4627 -16.1239 2.25
    endloop
  endfacet
endsolid OpenSCAD_Model
