<svg xmlns="http://www.w3.org/2000/svg" viewBox="-70.00 -70.00 140.00 140.00" width="140" height="140" data-orb-view="turntable-9" data-projection="spherical">
  <rect x="-70.00" y="-70.00" width="140.00" height="140.00" fill="#dfe3e5" pointer-events="none" />
  <circle cx="0" cy="0" r="60.00" fill="none" stroke="#333333" stroke-width="0.4" data-orb-silhouette="true" />
  <clipPath id="orb-limb"><circle cx="0" cy="0" r="60.00" /></clipPath>
  <g clip-path="url(#orb-limb)">
  <path d="M51.8947,-30.0000 L58.2886,-0.0000 L57.0634,0.0000 L57.8501,-10.4535 L59.1602,-10.0000 L56.0491,-20.9070 L51.8947,-30.0000 Z" fill="#424242" stroke="#333333" stroke-width="0.4" data-face-index="0" data-sides="6" data-orb-view="turntable-9" data-projection="spherical" data-orb-base-face="1" data-orb-style="shaded" />
  <path d="M57.0634,-0.0000 L58.2886,-0.0000 L51.8947,30.0000 L56.0491,20.9070 L59.1602,10.0000 L57.8501,10.4535 L57.0634,-0.0000 Z" fill="#424242" stroke="#333333" stroke-width="0.4" data-face-index="1" data-sides="6" data-orb-view="turntable-9" data-projection="spherical" data-orb-base-face="2" data-orb-style="shaded" />
  <path d="M51.8947,-30.0000 L56.0491,-20.9070 L50.2552,-31.3605 L51.8947,-30.0000 Z" fill="#434343" stroke="#333333" stroke-width="0.4" data-face-index="2" data-sides="3" data-orb-view="turntable-9" data-projection="spherical" data-orb-base-face="1" data-orb-style="shaded" />
  <path d="M56.0491,20.9070 L51.8947,30.0000 L50.2552,31.3605 L56.0491,20.9070 Z" fill="#434343" stroke="#333333" stroke-width="0.4" data-face-index="3" data-sides="3" data-orb-view="turntable-9" data-projection="spherical" data-orb-base-face="2" data-orb-style="shaded" />
  <path d="M57.8501,-10.4535 L56.0491,-20.9070 L59.1602,-10.0000 L57.8501,-10.4535 Z" fill="#454545" stroke="#333333" stroke-width="0.4" data-face-index="4" data-sides="3" data-orb-view="turntable-9" data-projection="spherical" data-orb-base-face="1" data-orb-style="shaded" />
  <path d="M56.0491,20.9070 L57.8501,10.4535 L59.1602,10.0000 L56.0491,20.9070 Z" fill="#454545" stroke="#333333" stroke-width="0.4" data-face-index="5" data-sides="3" data-orb-view="turntable-9" data-projection="spherical" data-orb-base-face="2" data-orb-style="shaded" />
  <path d="M-9.3747,-58.7281 L-0.0000,-60.0000 L2.9141,-58.7281 L-9.3747,-58.7281 Z" fill="#464646" stroke="#333333" stroke-width="0.4" data-face-index="6" data-sides="3" data-orb-view="turntable-9" data-projection="spherical" data-orb-base-face="15" data-orb-style="shaded" />
  <path d="M-0.0000,60.0000 L-9.3747,58.7281 L2.9141,58.7281 L-0.0000,60.0000 Z" fill="#464646" stroke="#333333" stroke-width="0.4" data-face-index="7" data-sides="3" data-orb-view="turntable-9" data-projection="spherical" data-orb-base-face="18" data-orb-style="shaded" />
  <path d="M-26.9041,-48.5410 L-30.0000,-51.0390 L-0.0000,-60.0000 L-9.3747,-58.7281 L-20.7237,-56.1803 L-18.7494,-54.7352 L-26.9041,-48.5410 Z" fill="#474747" stroke="#333333" stroke-width="0.4" data-face-index="8" data-sides="6" data-orb-view="turntable-9" data-projection="spherical" data-orb-base-face="15" data-orb-style="shaded" />
  <path d="M-30.0000,51.0390 L-26.9041,48.5410 L-18.7494,54.7352 L-20.7237,56.1803 L-9.3747,58.7281 L-0.0000,60.0000 L-30.0000,51.0390 Z" fill="#474747" stroke="#333333" stroke-width="0.4" data-face-index="9" data-sides="6" data-orb-view="turntable-9" data-projection="spherical" data-orb-base-face="18" data-orb-style="shaded" />
  <path d="M-30.0000,51.0390 L-51.8947,30.0000 L-45.5401,37.8211 L-38.0220,46.1803 L-36.8321,44.2817 L-26.9041,48.5410 L-30.0000,51.0390 Z" fill="#484848" stroke="#333333" stroke-width="0.4" data-face-index="10" data-sides="6" data-orb-view="turntable-9" data-projection="spherical" data-orb-base-face="13" data-orb-style="shaded" />
  <path d="M-30.0000,-51.0390 L-26.9041,-48.5410 L-36.8321,-44.2817 L-38.0220,-46.1803 L-45.5401,-37.8211 L-51.8947,-30.0000 L-30.0000,-51.0390 Z" fill="#484848" stroke="#333333" stroke-width="0.4" data-face-index="11" data-sides="6" data-orb-view="turntable-9" data-projection="spherical" data-orb-base-face="10" data-orb-style="shaded" />
  <path d="M-51.8947,30.0000 L-51.3340,27.3676 L-45.5401,37.8211 L-51.8947,30.0000 Z" fill="#4a4a4a" stroke="#333333" stroke-width="0.4" data-face-index="12" data-sides="3" data-orb-view="turntable-9" data-projection="spherical" data-orb-base-face="13" data-orb-style="shaded" />
  <path d="M-51.3340,-27.3676 L-51.8947,-30.0000 L-45.5401,-37.8211 L-51.3340,-27.3676 Z" fill="#4a4a4a" stroke="#333333" stroke-width="0.4" data-face-index="13" data-sides="3" data-orb-view="turntable-9" data-projection="spherical" data-orb-base-face="10" data-orb-style="shaded" />
  <path d="M-9.3747,-58.7281 L-18.7494,-54.7352 L-20.7237,-56.1803 L-9.3747,-58.7281 Z" fill="#4a4a4a" stroke="#333333" stroke-width="0.4" data-face-index="14" data-sides="3" data-orb-view="turntable-9" data-projection="spherical" data-orb-base-face="15" data-orb-style="shaded" />
  <path d="M-20.7237,56.1803 L-18.7494,54.7352 L-9.3747,58.7281 L-20.7237,56.1803 Z" fill="#4a4a4a" stroke="#333333" stroke-width="0.4" data-face-index="15" data-sides="3" data-orb-view="turntable-9" data-projection="spherical" data-orb-base-face="18" data-orb-style="shaded" />
  <path d="M-38.0220,46.1803 L-45.5401,37.8211 L-36.8321,44.2817 L-38.0220,46.1803 Z" fill="#4b4b4b" stroke="#333333" stroke-width="0.4" data-face-index="16" data-sides="3" data-orb-view="turntable-9" data-projection="spherical" data-orb-base-face="13" data-orb-style="shaded" />
  <path d="M-38.0220,-46.1803 L-36.8321,-44.2817 L-45.5401,-37.8211 L-38.0220,-46.1803 Z" fill="#4b4b4b" stroke="#333333" stroke-width="0.4" data-face-index="17" data-sides="3" data-orb-view="turntable-9" data-projection="spherical" data-orb-base-face="10" data-orb-style="shaded" />
  <path d="M30.0000,-51.0390 L51.8947,-30.0000 L50.2552,-31.3605 L42.5325,-40.0000 L46.2624,-31.3605 L40.4358,-30.0000 L30.0000,-51.0390 Z" fill="#505050" stroke="#333333" stroke-width="0.4" data-face-index="18" data-sides="6" data-orb-view="turntable-9" data-projection="spherical" data-orb-base-face="1" data-orb-style="shaded" />
  <path d="M30.0000,51.0390 L40.4358,30.0000 L46.2624,31.3605 L42.5325,40.0000 L50.2552,31.3605 L51.8947,30.0000 L30.0000,51.0390 Z" fill="#505050" stroke="#333333" stroke-width="0.4" data-face-index="19" data-sides="6" data-orb-view="turntable-9" data-projection="spherical" data-orb-base-face="2" data-orb-style="shaded" />
  <path d="M42.5325,40.0000 L46.2624,31.3605 L50.2552,31.3605 L42.5325,40.0000 Z" fill="#515151" stroke="#333333" stroke-width="0.4" data-face-index="20" data-sides="3" data-orb-view="turntable-9" data-projection="spherical" data-orb-base-face="2" data-orb-style="shaded" />
  <path d="M42.5325,-40.0000 L50.2552,-31.3605 L46.2624,-31.3605 L42.5325,-40.0000 Z" fill="#515151" stroke="#333333" stroke-width="0.4" data-face-index="21" data-sides="3" data-orb-view="turntable-9" data-projection="spherical" data-orb-base-face="1" data-orb-style="shaded" />
  <path d="M30.0000,-51.0390 L8.3630,-48.5410 L5.8282,-54.7352 L14.5434,-56.1803 L2.9141,-58.7281 L-0.0000,-60.0000 L30.0000,-51.0390 Z" fill="#525252" stroke="#333333" stroke-width="0.4" data-face-index="22" data-sides="6" data-orb-view="turntable-9" data-projection="spherical" data-orb-base-face="15" data-orb-style="shaded" />
  <path d="M30.0000,51.0390 L-0.0000,60.0000 L2.9141,58.7281 L14.5434,56.1803 L5.8282,54.7352 L8.3630,48.5410 L30.0000,51.0390 Z" fill="#525252" stroke="#333333" stroke-width="0.4" data-face-index="23" data-sides="6" data-orb-view="turntable-9" data-projection="spherical" data-orb-base-face="18" data-orb-style="shaded" />
  <path d="M57.8501,10.4535 L56.0491,20.9070 L50.2552,31.3605 L46.2624,31.3605 L48.0634,20.9070 L53.8573,10.4535 L57.8501,10.4535 Z" fill="#535353" stroke="#333333" stroke-width="0.4" data-face-index="24" data-sides="6" data-orb-view="turntable-9" data-projection="spherical" data-orb-base-face="2" data-orb-style="shaded" />
  <path d="M56.0491,-20.9070 L57.8501,-10.4535 L53.8573,-10.4535 L48.0634,-20.9070 L46.2624,-31.3605 L50.2552,-31.3605 L56.0491,-20.9070 Z" fill="#535353" stroke="#333333" stroke-width="0.4" data-face-index="25" data-sides="6" data-orb-view="turntable-9" data-projection="spherical" data-orb-base-face="1" data-orb-style="shaded" />
  <path d="M14.5434,-56.1803 L5.8282,-54.7352 L2.9141,-58.7281 L14.5434,-56.1803 Z" fill="#545454" stroke="#333333" stroke-width="0.4" data-face-index="26" data-sides="3" data-orb-view="turntable-9" data-projection="spherical" data-orb-base-face="15" data-orb-style="shaded" />
  <path d="M14.5434,56.1803 L2.9141,58.7281 L5.8282,54.7352 L14.5434,56.1803 Z" fill="#545454" stroke="#333333" stroke-width="0.4" data-face-index="27" data-sides="3" data-orb-view="turntable-9" data-projection="spherical" data-orb-base-face="18" data-orb-style="shaded" />
  <path d="M57.0634,-0.0000 L57.8501,10.4535 L53.8573,10.4535 L57.0634,-0.0000 Z" fill="#555555" stroke="#333333" stroke-width="0.4" data-face-index="28" data-sides="3" data-orb-view="turntable-9" data-projection="spherical" data-orb-base-face="2" data-orb-style="shaded" />
  <path d="M57.8501,-10.4535 L57.0634,0.0000 L53.8573,-10.4535 L57.8501,-10.4535 Z" fill="#555555" stroke="#333333" stroke-width="0.4" data-face-index="29" data-sides="3" data-orb-view="turntable-9" data-projection="spherical" data-orb-base-face="1" data-orb-style="shaded" />
  <path d="M-51.8947,30.0000 L-58.2886,0.0000 L-43.5317,18.5410 L-48.4199,23.3747 L-54.6496,16.1803 L-51.3340,27.3676 L-51.8947,30.0000 Z" fill="#565656" stroke="#333333" stroke-width="0.4" data-face-index="30" data-sides="6" data-orb-view="turntable-9" data-projection="spherical" data-orb-base-face="13" data-orb-style="shaded" />
  <path d="M-43.5317,-18.5410 L-58.2886,0.0000 L-51.8947,-30.0000 L-51.3340,-27.3676 L-54.6496,-16.1803 L-48.4199,-23.3747 L-43.5317,-18.5410 Z" fill="#565656" stroke="#333333" stroke-width="0.4" data-face-index="31" data-sides="6" data-orb-view="turntable-9" data-projection="spherical" data-orb-base-face="10" data-orb-style="shaded" />
  <path d="M-18.7494,-54.7352 L-9.3747,-58.7281 L2.9141,-58.7281 L5.8282,-54.7352 L-3.5465,-50.7423 L-15.8353,-50.7423 L-18.7494,-54.7352 Z" fill="#575757" stroke="#333333" stroke-width="0.4" data-face-index="32" data-sides="6" data-orb-view="turntable-9" data-projection="spherical" data-orb-base-face="15" data-orb-style="shaded" />
  <path d="M-15.8353,50.7423 L-3.5465,50.7423 L5.8282,54.7352 L2.9141,58.7281 L-9.3747,58.7281 L-18.7494,54.7352 L-15.8353,50.7423 Z" fill="#575757" stroke="#333333" stroke-width="0.4" data-face-index="33" data-sides="6" data-orb-view="turntable-9" data-projection="spherical" data-orb-base-face="18" data-orb-style="shaded" />
  <path d="M-48.4199,23.3747 L-51.3340,27.3676 L-54.6496,16.1803 L-48.4199,23.3747 Z" fill="#575757" stroke="#333333" stroke-width="0.4" data-face-index="34" data-sides="3" data-orb-view="turntable-9" data-projection="spherical" data-orb-base-face="13" data-orb-style="shaded" />
  <path d="M-51.3340,-27.3676 L-48.4199,-23.3747 L-54.6496,-16.1803 L-51.3340,-27.3676 Z" fill="#575757" stroke="#333333" stroke-width="0.4" data-face-index="35" data-sides="3" data-orb-view="turntable-9" data-projection="spherical" data-orb-base-face="10" data-orb-style="shaded" />
  <path d="M-51.3340,27.3676 L-48.4199,23.3747 L-39.7119,29.8353 L-33.9180,40.2888 L-36.8321,44.2817 L-45.5401,37.8211 L-51.3340,27.3676 Z" fill="#5a5a5a" stroke="#333333" stroke-width="0.4" data-face-index="36" data-sides="6" data-orb-view="turntable-9" data-projection="spherical" data-orb-base-face="13" data-orb-style="shaded" />
  <path d="M-48.4199,-23.3747 L-51.3340,-27.3676 L-45.5401,-37.8211 L-36.8321,-44.2817 L-33.9180,-40.2888 L-39.7119,-29.8353 L-48.4199,-23.3747 Z" fill="#5a5a5a" stroke="#333333" stroke-width="0.4" data-face-index="37" data-sides="6" data-orb-view="turntable-9" data-projection="spherical" data-orb-base-face="10" data-orb-style="shaded" />
  <path d="M-26.9041,-48.5410 L-18.7494,-54.7352 L-15.8353,-50.7423 L-26.9041,-48.5410 Z" fill="#5a5a5a" stroke="#333333" stroke-width="0.4" data-face-index="38" data-sides="3" data-orb-view="turntable-9" data-projection="spherical" data-orb-base-face="15" data-orb-style="shaded" />
  <path d="M-26.9041,48.5410 L-15.8353,50.7423 L-18.7494,54.7352 L-26.9041,48.5410 Z" fill="#5a5a5a" stroke="#333333" stroke-width="0.4" data-face-index="39" data-sides="3" data-orb-view="turntable-9" data-projection="spherical" data-orb-base-face="18" data-orb-style="shaded" />
  <path d="M-26.9041,48.5410 L-36.8321,44.2817 L-33.9180,40.2888 L-26.9041,48.5410 Z" fill="#5b5b5b" stroke="#333333" stroke-width="0.4" data-face-index="40" data-sides="3" data-orb-view="turntable-9" data-projection="spherical" data-orb-base-face="13" data-orb-style="shaded" />
  <path d="M-26.9041,-48.5410 L-33.9180,-40.2888 L-36.8321,-44.2817 L-26.9041,-48.5410 Z" fill="#5b5b5b" stroke="#333333" stroke-width="0.4" data-face-index="41" data-sides="3" data-orb-view="turntable-9" data-projection="spherical" data-orb-base-face="10" data-orb-style="shaded" />
  <path d="M40.4358,-30.0000 L46.2624,-31.3605 L48.0634,-20.9070 L40.4358,-30.0000 Z" fill="#616161" stroke="#333333" stroke-width="0.4" data-face-index="42" data-sides="3" data-orb-view="turntable-9" data-projection="spherical" data-orb-base-face="1" data-orb-style="shaded" />
  <path d="M40.4358,30.0000 L48.0634,20.9070 L46.2624,31.3605 L40.4358,30.0000 Z" fill="#616161" stroke="#333333" stroke-width="0.4" data-face-index="43" data-sides="3" data-orb-view="turntable-9" data-projection="spherical" data-orb-base-face="2" data-orb-style="shaded" />
  <path d="M40.4358,30.0000 L30.0000,51.0390 L8.3630,48.5410 L19.9180,44.2817 L28.0220,46.1803 L31.0938,37.8211 L40.4358,30.0000 Z" fill="#636363" stroke="#333333" stroke-width="0.4" data-face-index="44" data-sides="6" data-orb-view="turntable-9" data-projection="spherical" data-orb-base-face="9" data-orb-style="shaded" />
  <path d="M30.0000,-51.0390 L40.4358,-30.0000 L31.0938,-37.8211 L28.0220,-46.1803 L19.9180,-44.2817 L8.3630,-48.5410 L30.0000,-51.0390 Z" fill="#636363" stroke="#333333" stroke-width="0.4" data-face-index="45" data-sides="6" data-orb-view="turntable-9" data-projection="spherical" data-orb-base-face="5" data-orb-style="shaded" />
  <path d="M47.7012,-10.0000 L48.0634,-20.9070 L53.8573,-10.4535 L47.7012,-10.0000 Z" fill="#636363" stroke="#333333" stroke-width="0.4" data-face-index="46" data-sides="3" data-orb-view="turntable-9" data-projection="spherical" data-orb-base-face="1" data-orb-style="shaded" />
  <path d="M47.7012,10.0000 L53.8573,10.4535 L48.0634,20.9070 L47.7012,10.0000 Z" fill="#636363" stroke="#333333" stroke-width="0.4" data-face-index="47" data-sides="3" data-orb-view="turntable-9" data-projection="spherical" data-orb-base-face="2" data-orb-style="shaded" />
  <path d="M8.3630,-48.5410 L-3.5465,-50.7423 L5.8282,-54.7352 L8.3630,-48.5410 Z" fill="#646464" stroke="#333333" stroke-width="0.4" data-face-index="48" data-sides="3" data-orb-view="turntable-9" data-projection="spherical" data-orb-base-face="15" data-orb-style="shaded" />
  <path d="M-3.5465,50.7423 L8.3630,48.5410 L5.8282,54.7352 L-3.5465,50.7423 Z" fill="#646464" stroke="#333333" stroke-width="0.4" data-face-index="49" data-sides="3" data-orb-view="turntable-9" data-projection="spherical" data-orb-base-face="18" data-orb-style="shaded" />
  <path d="M38.7934,-0.0000 L40.4358,-30.0000 L48.0634,-20.9070 L47.7012,-10.0000 L53.8573,-10.4535 L57.0634,0.0000 L38.7934,-0.0000 Z" fill="#656565" stroke="#333333" stroke-width="0.4" data-face-index="50" data-sides="6" data-orb-view="turntable-9" data-projection="spherical" data-orb-base-face="1" data-orb-style="shaded" />
  <path d="M38.7934,-0.0000 L57.0634,-0.0000 L53.8573,10.4535 L47.7012,10.0000 L48.0634,20.9070 L40.4358,30.0000 L38.7934,-0.0000 Z" fill="#656565" stroke="#333333" stroke-width="0.4" data-face-index="51" data-sides="6" data-orb-view="turntable-9" data-projection="spherical" data-orb-base-face="2" data-orb-style="shaded" />
  <path d="M19.9180,44.2817 L31.0938,37.8211 L28.0220,46.1803 L19.9180,44.2817 Z" fill="#676767" stroke="#333333" stroke-width="0.4" data-face-index="52" data-sides="3" data-orb-view="turntable-9" data-projection="spherical" data-orb-base-face="9" data-orb-style="shaded" />
  <path d="M28.0220,-46.1803 L31.0938,-37.8211 L19.9180,-44.2817 L28.0220,-46.1803 Z" fill="#676767" stroke="#333333" stroke-width="0.4" data-face-index="53" data-sides="3" data-orb-view="turntable-9" data-projection="spherical" data-orb-base-face="5" data-orb-style="shaded" />
  <path d="M-43.5317,-18.5410 L-48.4199,-23.3747 L-39.7119,-29.8353 L-43.5317,-18.5410 Z" fill="#676767" stroke="#333333" stroke-width="0.4" data-face-index="54" data-sides="3" data-orb-view="turntable-9" data-projection="spherical" data-orb-base-face="10" data-orb-style="shaded" />
  <path d="M-48.4199,23.3747 L-43.5317,18.5410 L-39.7119,29.8353 L-48.4199,23.3747 Z" fill="#676767" stroke="#333333" stroke-width="0.4" data-face-index="55" data-sides="3" data-orb-view="turntable-9" data-projection="spherical" data-orb-base-face="13" data-orb-style="shaded" />
  <path d="M-43.5317,18.5410 L-58.2886,0.0000 L-43.5317,-18.5410 L-45.5058,-6.4606 L-51.8619,0.0000 L-45.5058,6.4606 L-43.5317,18.5410 Z" fill="#676767" stroke="#333333" stroke-width="0.4" data-face-index="56" data-sides="6" data-orb-view="turntable-9" data-projection="spherical" data-orb-base-face="14" data-orb-style="shaded" />
  <path d="M-12.3607,-44.7214 L-15.8353,-50.7423 L-3.5465,-50.7423 L-12.3607,-44.7214 Z" fill="#676767" stroke="#333333" stroke-width="0.4" data-face-index="57" data-sides="3" data-orb-view="turntable-9" data-projection="spherical" data-orb-base-face="15" data-orb-style="shaded" />
  <path d="M-3.5465,50.7423 L-15.8353,50.7423 L-12.3607,44.7214 L-3.5465,50.7423 Z" fill="#676767" stroke="#333333" stroke-width="0.4" data-face-index="58" data-sides="3" data-orb-view="turntable-9" data-projection="spherical" data-orb-base-face="18" data-orb-style="shaded" />
  <path d="M-29.6589,-34.7214 L-39.7119,-29.8353 L-33.9180,-40.2888 L-29.6589,-34.7214 Z" fill="#696969" stroke="#333333" stroke-width="0.4" data-face-index="59" data-sides="3" data-orb-view="turntable-9" data-projection="spherical" data-orb-base-face="10" data-orb-style="shaded" />
  <path d="M-29.6589,34.7214 L-33.9180,40.2888 L-39.7119,29.8353 L-29.6589,34.7214 Z" fill="#696969" stroke="#333333" stroke-width="0.4" data-face-index="60" data-sides="3" data-orb-view="turntable-9" data-projection="spherical" data-orb-base-face="13" data-orb-style="shaded" />
  <path d="M-15.7719,-31.5439 L-26.9041,-48.5410 L-15.8353,-50.7423 L-12.3607,-44.7214 L-3.5465,-50.7423 L8.3630,-48.5410 L-15.7719,-31.5439 Z" fill="#696969" stroke="#333333" stroke-width="0.4" data-face-index="61" data-sides="6" data-orb-view="turntable-9" data-projection="spherical" data-orb-base-face="15" data-orb-style="shaded" />
  <path d="M-26.9041,48.5410 L-15.7719,31.5439 L8.3630,48.5410 L-3.5465,50.7423 L-12.3607,44.7214 L-15.8353,50.7423 L-26.9041,48.5410 Z" fill="#696969" stroke="#333333" stroke-width="0.4" data-face-index="62" data-sides="6" data-orb-view="turntable-9" data-projection="spherical" data-orb-base-face="18" data-orb-style="shaded" />
  <path d="M-15.7719,31.5439 L-26.9041,48.5410 L-33.9180,40.2888 L-29.6589,34.7214 L-39.7119,29.8353 L-43.5317,18.5410 L-15.7719,31.5439 Z" fill="#6a6a6a" stroke="#333333" stroke-width="0.4" data-face-index="63" data-sides="6" data-orb-view="turntable-9" data-projection="spherical" data-orb-base-face="13" data-orb-style="shaded" />
  <path d="M-15.7719,-31.5439 L-43.5317,-18.5410 L-39.7119,-29.8353 L-29.6589,-34.7214 L-33.9180,-40.2888 L-26.9041,-48.5410 L-15.7719,-31.5439 Z" fill="#6a6a6a" stroke="#333333" stroke-width="0.4" data-face-index="64" data-sides="6" data-orb-view="turntable-9" data-projection="spherical" data-orb-base-face="10" data-orb-style="shaded" />
  <path d="M-45.5058,-6.4606 L-45.5058,6.4606 L-51.8619,0.0000 L-45.5058,-6.4606 Z" fill="#6b6b6b" stroke="#333333" stroke-width="0.4" data-face-index="65" data-sides="3" data-orb-view="turntable-9" data-projection="spherical" data-orb-base-face="14" data-orb-style="shaded" />
  <path d="M40.4358,30.0000 L31.0938,37.8211 L32.8948,27.3676 L40.4358,30.0000 Z" fill="#6c6c6c" stroke="#333333" stroke-width="0.4" data-face-index="66" data-sides="3" data-orb-view="turntable-9" data-projection="spherical" data-orb-base-face="9" data-orb-style="shaded" />
  <path d="M40.4358,-30.0000 L32.8948,-27.3676 L31.0938,-37.8211 L40.4358,-30.0000 Z" fill="#6c6c6c" stroke="#333333" stroke-width="0.4" data-face-index="67" data-sides="3" data-orb-view="turntable-9" data-projection="spherical" data-orb-base-face="5" data-orb-style="shaded" />
  <path d="M19.9180,44.2817 L8.3630,48.5410 L10.5433,40.2888 L19.9180,44.2817 Z" fill="#6e6e6e" stroke="#333333" stroke-width="0.4" data-face-index="68" data-sides="3" data-orb-view="turntable-9" data-projection="spherical" data-orb-base-face="9" data-orb-style="shaded" />
  <path d="M8.3630,-48.5410 L19.9180,-44.2817 L10.5433,-40.2888 L8.3630,-48.5410 Z" fill="#6e6e6e" stroke="#333333" stroke-width="0.4" data-face-index="69" data-sides="3" data-orb-view="turntable-9" data-projection="spherical" data-orb-base-face="5" data-orb-style="shaded" />
  <path d="M-43.5317,18.5410 L-45.5058,6.4606 L-36.7978,12.9212 L-43.5317,18.5410 Z" fill="#717171" stroke="#333333" stroke-width="0.4" data-face-index="70" data-sides="3" data-orb-view="turntable-9" data-projection="spherical" data-orb-base-face="14" data-orb-style="shaded" />
  <path d="M-45.5058,-6.4606 L-43.5317,-18.5410 L-36.7978,-12.9212 L-45.5058,-6.4606 Z" fill="#717171" stroke="#333333" stroke-width="0.4" data-face-index="71" data-sides="3" data-orb-view="turntable-9" data-projection="spherical" data-orb-base-face="14" data-orb-style="shaded" />
  <path d="M31.0938,37.8211 L19.9180,44.2817 L10.5433,40.2888 L12.3443,29.8353 L23.5201,23.3747 L32.8948,27.3676 L31.0938,37.8211 Z" fill="#747474" stroke="#333333" stroke-width="0.4" data-face-index="72" data-sides="6" data-orb-view="turntable-9" data-projection="spherical" data-orb-base-face="9" data-orb-style="shaded" />
  <path d="M32.8948,-27.3676 L23.5201,-23.3747 L12.3443,-29.8353 L10.5433,-40.2888 L19.9180,-44.2817 L31.0938,-37.8211 L32.8948,-27.3676 Z" fill="#747474" stroke="#333333" stroke-width="0.4" data-face-index="73" data-sides="6" data-orb-view="turntable-9" data-projection="spherical" data-orb-base-face="5" data-orb-style="shaded" />
  <path d="M38.7934,0.0000 L40.4358,30.0000 L32.8948,27.3676 L33.1906,16.1803 L23.5201,23.3747 L13.5317,18.5410 L38.7934,0.0000 Z" fill="#787878" stroke="#333333" stroke-width="0.4" data-face-index="74" data-sides="6" data-orb-view="turntable-9" data-projection="spherical" data-orb-base-face="9" data-orb-style="shaded" />
  <path d="M40.4358,-30.0000 L38.7934,0.0000 L13.5317,-18.5410 L23.5201,-23.3747 L33.1906,-16.1803 L32.8948,-27.3676 L40.4358,-30.0000 Z" fill="#787878" stroke="#333333" stroke-width="0.4" data-face-index="75" data-sides="6" data-orb-view="turntable-9" data-projection="spherical" data-orb-base-face="5" data-orb-style="shaded" />
  <path d="M-45.5058,6.4606 L-45.5058,-6.4606 L-36.7978,-12.9212 L-28.0898,-6.4606 L-28.0898,6.4606 L-36.7978,12.9212 L-45.5058,6.4606 Z" fill="#787878" stroke="#333333" stroke-width="0.4" data-face-index="76" data-sides="6" data-orb-view="turntable-9" data-projection="spherical" data-orb-base-face="14" data-orb-style="shaded" />
  <path d="M33.1906,16.1803 L32.8948,27.3676 L23.5201,23.3747 L33.1906,16.1803 Z" fill="#797979" stroke="#333333" stroke-width="0.4" data-face-index="77" data-sides="3" data-orb-view="turntable-9" data-projection="spherical" data-orb-base-face="9" data-orb-style="shaded" />
  <path d="M23.5201,-23.3747 L32.8948,-27.3676 L33.1906,-16.1803 L23.5201,-23.3747 Z" fill="#797979" stroke="#333333" stroke-width="0.4" data-face-index="78" data-sides="3" data-orb-view="turntable-9" data-projection="spherical" data-orb-base-face="5" data-orb-style="shaded" />
  <path d="M-15.7719,31.5439 L13.5317,18.5410 L12.3443,29.8353 L1.1179,34.7214 L10.5433,40.2888 L8.3630,48.5410 L-15.7719,31.5439 Z" fill="#797979" stroke="#333333" stroke-width="0.4" data-face-index="79" data-sides="6" data-orb-view="turntable-9" data-projection="spherical" data-orb-base-face="9" data-orb-style="shaded" />
  <path d="M-15.7719,-31.5439 L8.3630,-48.5410 L10.5433,-40.2888 L1.1179,-34.7214 L12.3443,-29.8353 L13.5317,-18.5410 L-15.7719,-31.5439 Z" fill="#797979" stroke="#333333" stroke-width="0.4" data-face-index="80" data-sides="6" data-orb-view="turntable-9" data-projection="spherical" data-orb-base-face="5" data-orb-style="shaded" />
  <path d="M1.1179,34.7214 L12.3443,29.8353 L10.5433,40.2888 L1.1179,34.7214 Z" fill="#7a7a7a" stroke="#333333" stroke-width="0.4" data-face-index="81" data-sides="3" data-orb-view="turntable-9" data-projection="spherical" data-orb-base-face="9" data-orb-style="shaded" />
  <path d="M1.1179,-34.7214 L10.5433,-40.2888 L12.3443,-29.8353 L1.1179,-34.7214 Z" fill="#7a7a7a" stroke="#333333" stroke-width="0.4" data-face-index="82" data-sides="3" data-orb-view="turntable-9" data-projection="spherical" data-orb-base-face="5" data-orb-style="shaded" />
  <path d="M-15.7719,31.5439 L-43.5317,18.5410 L-36.7978,12.9212 L-26.8712,18.5410 L-28.0898,6.4606 L-18.5410,0.0000 L-15.7719,31.5439 Z" fill="#7b7b7b" stroke="#333333" stroke-width="0.4" data-face-index="83" data-sides="6" data-orb-view="turntable-9" data-projection="spherical" data-orb-base-face="14" data-orb-style="shaded" />
  <path d="M-15.7719,-31.5439 L-18.5410,0.0000 L-28.0898,-6.4606 L-26.8712,-18.5410 L-36.7978,-12.9212 L-43.5317,-18.5410 L-15.7719,-31.5439 Z" fill="#7b7b7b" stroke="#333333" stroke-width="0.4" data-face-index="84" data-sides="6" data-orb-view="turntable-9" data-projection="spherical" data-orb-base-face="14" data-orb-style="shaded" />
  <path d="M-26.8712,18.5410 L-36.7978,12.9212 L-28.0898,6.4606 L-26.8712,18.5410 Z" fill="#7d7d7d" stroke="#333333" stroke-width="0.4" data-face-index="85" data-sides="3" data-orb-view="turntable-9" data-projection="spherical" data-orb-base-face="14" data-orb-style="shaded" />
  <path d="M-26.8712,-18.5410 L-28.0898,-6.4606 L-36.7978,-12.9212 L-26.8712,-18.5410 Z" fill="#7d7d7d" stroke="#333333" stroke-width="0.4" data-face-index="86" data-sides="3" data-orb-view="turntable-9" data-projection="spherical" data-orb-base-face="14" data-orb-style="shaded" />
  <path d="M13.5317,18.5410 L23.5201,23.3747 L12.3443,29.8353 L13.5317,18.5410 Z" fill="#808080" stroke="#333333" stroke-width="0.4" data-face-index="87" data-sides="3" data-orb-view="turntable-9" data-projection="spherical" data-orb-base-face="9" data-orb-style="shaded" />
  <path d="M23.5201,-23.3747 L13.5317,-18.5410 L12.3443,-29.8353 L23.5201,-23.3747 Z" fill="#808080" stroke="#333333" stroke-width="0.4" data-face-index="88" data-sides="3" data-orb-view="turntable-9" data-projection="spherical" data-orb-base-face="5" data-orb-style="shaded" />
  <path d="M-18.5410,0.0000 L-28.0898,6.4606 L-28.0898,-6.4606 L-18.5410,0.0000 Z" fill="#838383" stroke="#333333" stroke-width="0.4" data-face-index="89" data-sides="3" data-orb-view="turntable-9" data-projection="spherical" data-orb-base-face="14" data-orb-style="shaded" />
  <path d="M38.7934,0.0000 L13.5317,18.5410 L14.1453,6.4606 L24.2226,-0.0000 L14.1453,-6.4606 L13.5317,-18.5410 L38.7934,0.0000 Z" fill="#838383" stroke="#333333" stroke-width="0.4" data-face-index="90" data-sides="6" data-orb-view="turntable-9" data-projection="spherical" data-orb-base-face="19" data-orb-style="shaded" />
  <path d="M-18.5410,-0.0000 L-15.7719,-31.5439 L13.5317,-18.5410 L2.9696,-12.9212 L-7.8501,-18.5410 L-8.2061,-6.4606 L-18.5410,-0.0000 Z" fill="#858585" stroke="#333333" stroke-width="0.4" data-face-index="91" data-sides="6" data-orb-view="turntable-9" data-projection="spherical" data-orb-base-face="19" data-orb-style="shaded" />
  <path d="M-15.7719,31.5439 L-18.5410,-0.0000 L-8.2061,6.4606 L-7.8501,18.5410 L2.9696,12.9212 L13.5317,18.5410 L-15.7719,31.5439 Z" fill="#858585" stroke="#333333" stroke-width="0.4" data-face-index="92" data-sides="6" data-orb-view="turntable-9" data-projection="spherical" data-orb-base-face="19" data-orb-style="shaded" />
  <path d="M24.2226,-0.0000 L14.1453,6.4606 L14.1453,-6.4606 L24.2226,-0.0000 Z" fill="#868686" stroke="#333333" stroke-width="0.4" data-face-index="93" data-sides="3" data-orb-view="turntable-9" data-projection="spherical" data-orb-base-face="19" data-orb-style="shaded" />
  <path d="M2.9696,-12.9212 L13.5317,-18.5410 L14.1453,-6.4606 L2.9696,-12.9212 Z" fill="#878787" stroke="#333333" stroke-width="0.4" data-face-index="94" data-sides="3" data-orb-view="turntable-9" data-projection="spherical" data-orb-base-face="19" data-orb-style="shaded" />
  <path d="M13.5317,18.5410 L2.9696,12.9212 L14.1453,6.4606 L13.5317,18.5410 Z" fill="#878787" stroke="#333333" stroke-width="0.4" data-face-index="95" data-sides="3" data-orb-view="turntable-9" data-projection="spherical" data-orb-base-face="19" data-orb-style="shaded" />
  <path d="M2.9696,-12.9212 L-8.2061,-6.4606 L-7.8501,-18.5410 L2.9696,-12.9212 Z" fill="#888888" stroke="#333333" stroke-width="0.4" data-face-index="96" data-sides="3" data-orb-view="turntable-9" data-projection="spherical" data-orb-base-face="19" data-orb-style="shaded" />
  <path d="M-7.8501,18.5410 L-8.2061,6.4606 L2.9696,12.9212 L-7.8501,18.5410 Z" fill="#888888" stroke="#333333" stroke-width="0.4" data-face-index="97" data-sides="3" data-orb-view="turntable-9" data-projection="spherical" data-orb-base-face="19" data-orb-style="shaded" />
  <path d="M-18.5410,-0.0000 L-8.2061,-6.4606 L-8.2061,6.4606 L-18.5410,-0.0000 Z" fill="#888888" stroke="#333333" stroke-width="0.4" data-face-index="98" data-sides="3" data-orb-view="turntable-9" data-projection="spherical" data-orb-base-face="19" data-orb-style="shaded" />
  <path d="M-8.2061,-6.4606 L2.9696,-12.9212 L14.1453,-6.4606 L14.1453,6.4606 L2.9696,12.9212 L-8.2061,6.4606 L-8.2061,-6.4606 Z" fill="#888888" stroke="#333333" stroke-width="0.4" data-face-index="99" data-sides="6" data-orb-view="turntable-9" data-projection="spherical" data-orb-base-face="19" data-orb-style="shaded" />
  </g>
</svg>