<svg xmlns="http://www.w3.org/2000/svg" viewBox="-70.00 -70.00 140.00 140.00" width="140" height="140" data-orb-view="transition-2" data-projection="spherical">
  <rect x="-70.00" y="-70.00" width="140.00" height="140.00" fill="#ffffff" pointer-events="none" />
  <circle cx="0" cy="0" r="60.00" fill="none" stroke="#333333" stroke-width="0.4" data-orb-silhouette="true" />
  <clipPath id="orb-limb"><circle cx="0" cy="0" r="60.00" /></clipPath>
  <g clip-path="url(#orb-limb)">
  <path d="M-23.3791,-51.0390 L-33.8817,-48.5410 L-23.6121,-54.7352 L-20.4552,-56.1803 L-11.8061,-58.7281 L0.0000,-60.0000 L-23.3791,-51.0390 Z" fill="#6c6c6c" stroke="#333333" stroke-width="0.4" data-face-index="0" data-sides="6" data-orb-view="transition-2" data-projection="spherical" data-orb-base-face="15" data-orb-style="shaded" />
  <path d="M-23.3791,51.0390 L0.0000,60.0000 L-11.8061,58.7281 L-20.4552,56.1803 L-23.6121,54.7352 L-33.8817,48.5410 L-23.3791,51.0390 Z" fill="#6c6c6c" stroke="#333333" stroke-width="0.4" data-face-index="1" data-sides="6" data-orb-view="transition-2" data-projection="spherical" data-orb-base-face="18" data-orb-style="shaded" />
  <path d="M20.4552,-56.1803 L23.6121,-54.7352 L11.8061,-58.7281 L20.4552,-56.1803 Z" fill="#6d6d6d" stroke="#333333" stroke-width="0.4" data-face-index="2" data-sides="3" data-orb-view="transition-2" data-projection="spherical" data-orb-base-face="6" data-orb-style="shaded" />
  <path d="M20.4552,56.1803 L11.8061,58.7281 L23.6121,54.7352 L20.4552,56.1803 Z" fill="#6d6d6d" stroke="#333333" stroke-width="0.4" data-face-index="3" data-sides="3" data-orb-view="transition-2" data-projection="spherical" data-orb-base-face="8" data-orb-style="shaded" />
  <path d="M45.5526,37.8211 L40.4854,44.2817 L42.7147,40.2888 L50.0113,29.8353 L55.0785,23.3747 L52.8491,27.3676 L45.5526,37.8211 Z" fill="#6d6d6d" stroke="#333333" stroke-width="0.4" data-face-index="4" data-sides="6" data-orb-view="transition-2" data-projection="spherical" data-orb-base-face="17" data-orb-style="shaded" />
  <path d="M52.8491,-27.3676 L55.0785,-23.3747 L50.0113,-29.8353 L42.7147,-40.2888 L40.4854,-44.2817 L45.5526,-37.8211 L52.8491,-27.3676 Z" fill="#6d6d6d" stroke="#333333" stroke-width="0.4" data-face-index="5" data-sides="6" data-orb-view="transition-2" data-projection="spherical" data-orb-base-face="16" data-orb-style="shaded" />
  <path d="M-55.0785,-23.3747 L-52.8491,-27.3676 L-57.5365,-16.1803 L-55.0785,-23.3747 Z" fill="#6d6d6d" stroke="#333333" stroke-width="0.4" data-face-index="6" data-sides="3" data-orb-view="transition-2" data-projection="spherical" data-orb-base-face="5" data-orb-style="shaded" />
  <path d="M-57.5365,16.1803 L-52.8491,27.3676 L-55.0785,23.3747 L-57.5365,16.1803 Z" fill="#6d6d6d" stroke="#333333" stroke-width="0.4" data-face-index="7" data-sides="3" data-orb-view="transition-2" data-projection="spherical" data-orb-base-face="9" data-orb-style="shaded" />
  <path d="M-48.4238,-30.0000 L-59.0044,-0.0000 L-54.8217,-18.5410 L-55.0785,-23.3747 L-57.5365,-16.1803 L-52.8491,-27.3676 L-48.4238,-30.0000 Z" fill="#6e6e6e" stroke="#333333" stroke-width="0.4" data-face-index="8" data-sides="6" data-orb-view="transition-2" data-projection="spherical" data-orb-base-face="5" data-orb-style="shaded" />
  <path d="M-59.0044,0.0000 L-48.4238,30.0000 L-52.8491,27.3676 L-57.5365,16.1803 L-55.0785,23.3747 L-54.8217,18.5410 L-59.0044,0.0000 Z" fill="#6e6e6e" stroke="#333333" stroke-width="0.4" data-face-index="9" data-sides="6" data-orb-view="transition-2" data-projection="spherical" data-orb-base-face="9" data-orb-style="shaded" />
  <path d="M2.2293,-58.7281 L-0.0000,-60.0000 L11.8061,-58.7281 L2.2293,-58.7281 Z" fill="#6e6e6e" stroke="#333333" stroke-width="0.4" data-face-index="10" data-sides="3" data-orb-view="transition-2" data-projection="spherical" data-orb-base-face="6" data-orb-style="shaded" />
  <path d="M-0.0000,60.0000 L2.2293,58.7281 L11.8061,58.7281 L-0.0000,60.0000 Z" fill="#6e6e6e" stroke="#333333" stroke-width="0.4" data-face-index="11" data-sides="3" data-orb-view="transition-2" data-projection="spherical" data-orb-base-face="8" data-orb-style="shaded" />
  <path d="M-36.5964,-46.1803 L-45.5526,-37.8211 L-40.4854,-44.2817 L-36.5964,-46.1803 Z" fill="#6f6f6f" stroke="#333333" stroke-width="0.4" data-face-index="12" data-sides="3" data-orb-view="transition-2" data-projection="spherical" data-orb-base-face="5" data-orb-style="shaded" />
  <path d="M-40.4854,44.2817 L-45.5526,37.8211 L-36.5964,46.1803 L-40.4854,44.2817 Z" fill="#6f6f6f" stroke="#333333" stroke-width="0.4" data-face-index="13" data-sides="3" data-orb-view="transition-2" data-projection="spherical" data-orb-base-face="9" data-orb-style="shaded" />
  <path d="M33.8817,-48.5410 L40.4854,-44.2817 L42.7147,-40.2888 L33.8817,-48.5410 Z" fill="#6f6f6f" stroke="#333333" stroke-width="0.4" data-face-index="14" data-sides="3" data-orb-view="transition-2" data-projection="spherical" data-orb-base-face="16" data-orb-style="shaded" />
  <path d="M40.4854,44.2817 L33.8817,48.5410 L42.7147,40.2888 L40.4854,44.2817 Z" fill="#6f6f6f" stroke="#333333" stroke-width="0.4" data-face-index="15" data-sides="3" data-orb-view="transition-2" data-projection="spherical" data-orb-base-face="17" data-orb-style="shaded" />
  <path d="M-23.3791,-51.0390 L-48.4238,-30.0000 L-45.5526,-37.8211 L-36.5964,-46.1803 L-40.4854,-44.2817 L-33.8817,-48.5410 L-23.3791,-51.0390 Z" fill="#707070" stroke="#333333" stroke-width="0.4" data-face-index="16" data-sides="6" data-orb-view="transition-2" data-projection="spherical" data-orb-base-face="5" data-orb-style="shaded" />
  <path d="M-48.4238,30.0000 L-23.3791,51.0390 L-33.8817,48.5410 L-40.4854,44.2817 L-36.5964,46.1803 L-45.5526,37.8211 L-48.4238,30.0000 Z" fill="#707070" stroke="#333333" stroke-width="0.4" data-face-index="17" data-sides="6" data-orb-view="transition-2" data-projection="spherical" data-orb-base-face="9" data-orb-style="shaded" />
  <path d="M59.0044,0.0000 L54.8217,18.5410 L57.3078,6.4606 L59.6691,-0.0000 L57.3078,-6.4606 L54.8217,-18.5410 L59.0044,0.0000 Z" fill="#717171" stroke="#333333" stroke-width="0.4" data-face-index="18" data-sides="6" data-orb-view="transition-2" data-projection="spherical" data-orb-base-face="7" data-orb-style="shaded" />
  <path d="M54.8217,18.5410 L55.0785,23.3747 L50.0113,29.8353 L54.8217,18.5410 Z" fill="#727272" stroke="#333333" stroke-width="0.4" data-face-index="19" data-sides="3" data-orb-view="transition-2" data-projection="spherical" data-orb-base-face="17" data-orb-style="shaded" />
  <path d="M55.0785,-23.3747 L54.8217,-18.5410 L50.0113,-29.8353 L55.0785,-23.3747 Z" fill="#727272" stroke="#333333" stroke-width="0.4" data-face-index="20" data-sides="3" data-orb-view="transition-2" data-projection="spherical" data-orb-base-face="16" data-orb-style="shaded" />
  <path d="M33.8817,-48.5410 L25.8415,-50.7423 L23.6121,-54.7352 L33.8817,-48.5410 Z" fill="#727272" stroke="#333333" stroke-width="0.4" data-face-index="21" data-sides="3" data-orb-view="transition-2" data-projection="spherical" data-orb-base-face="6" data-orb-style="shaded" />
  <path d="M25.8415,50.7423 L33.8817,48.5410 L23.6121,54.7352 L25.8415,50.7423 Z" fill="#727272" stroke="#333333" stroke-width="0.4" data-face-index="22" data-sides="3" data-orb-view="transition-2" data-projection="spherical" data-orb-base-face="8" data-orb-style="shaded" />
  <path d="M-48.4238,-30.0000 L-52.8491,-27.3676 L-45.5526,-37.8211 L-48.4238,-30.0000 Z" fill="#727272" stroke="#333333" stroke-width="0.4" data-face-index="23" data-sides="3" data-orb-view="transition-2" data-projection="spherical" data-orb-base-face="5" data-orb-style="shaded" />
  <path d="M-48.4238,30.0000 L-45.5526,37.8211 L-52.8491,27.3676 L-48.4238,30.0000 Z" fill="#727272" stroke="#333333" stroke-width="0.4" data-face-index="24" data-sides="3" data-orb-view="transition-2" data-projection="spherical" data-orb-base-face="9" data-orb-style="shaded" />
  <path d="M59.6691,-0.0000 L57.3078,6.4606 L57.3078,-6.4606 L59.6691,-0.0000 Z" fill="#727272" stroke="#333333" stroke-width="0.4" data-face-index="25" data-sides="3" data-orb-view="transition-2" data-projection="spherical" data-orb-base-face="7" data-orb-style="shaded" />
  <path d="M4.4587,-54.7352 L2.2293,-58.7281 L11.8061,-58.7281 L23.6121,-54.7352 L25.8415,-50.7423 L16.2647,-50.7423 L4.4587,-54.7352 Z" fill="#737373" stroke="#333333" stroke-width="0.4" data-face-index="26" data-sides="6" data-orb-view="transition-2" data-projection="spherical" data-orb-base-face="6" data-orb-style="shaded" />
  <path d="M16.2647,50.7423 L25.8415,50.7423 L23.6121,54.7352 L11.8061,58.7281 L2.2293,58.7281 L4.4587,54.7352 L16.2647,50.7423 Z" fill="#737373" stroke="#333333" stroke-width="0.4" data-face-index="27" data-sides="6" data-orb-view="transition-2" data-projection="spherical" data-orb-base-face="8" data-orb-style="shaded" />
  <path d="M42.9943,-34.7214 L42.7147,-40.2888 L50.0113,-29.8353 L42.9943,-34.7214 Z" fill="#747474" stroke="#333333" stroke-width="0.4" data-face-index="28" data-sides="3" data-orb-view="transition-2" data-projection="spherical" data-orb-base-face="16" data-orb-style="shaded" />
  <path d="M42.9943,34.7214 L50.0113,29.8353 L42.7147,40.2888 L42.9943,34.7214 Z" fill="#747474" stroke="#333333" stroke-width="0.4" data-face-index="29" data-sides="3" data-orb-view="transition-2" data-projection="spherical" data-orb-base-face="17" data-orb-style="shaded" />
  <path d="M6.3979,-48.5410 L-23.3791,-51.0390 L-0.0000,-60.0000 L2.2293,-58.7281 L-7.0286,-56.1803 L4.4587,-54.7352 L6.3979,-48.5410 Z" fill="#757575" stroke="#333333" stroke-width="0.4" data-face-index="30" data-sides="6" data-orb-view="transition-2" data-projection="spherical" data-orb-base-face="6" data-orb-style="shaded" />
  <path d="M-23.3791,51.0390 L6.3979,48.5410 L4.4587,54.7352 L-7.0286,56.1803 L2.2293,58.7281 L-0.0000,60.0000 L-23.3791,51.0390 Z" fill="#757575" stroke="#333333" stroke-width="0.4" data-face-index="31" data-sides="6" data-orb-view="transition-2" data-projection="spherical" data-orb-base-face="8" data-orb-style="shaded" />
  <path d="M2.2293,-58.7281 L4.4587,-54.7352 L-7.0286,-56.1803 L2.2293,-58.7281 Z" fill="#757575" stroke="#333333" stroke-width="0.4" data-face-index="32" data-sides="3" data-orb-view="transition-2" data-projection="spherical" data-orb-base-face="6" data-orb-style="shaded" />
  <path d="M-7.0286,56.1803 L4.4587,54.7352 L2.2293,58.7281 L-7.0286,56.1803 Z" fill="#757575" stroke="#333333" stroke-width="0.4" data-face-index="33" data-sides="3" data-orb-view="transition-2" data-projection="spherical" data-orb-base-face="8" data-orb-style="shaded" />
  <path d="M34.2639,-31.5439 L33.8817,-48.5410 L42.7147,-40.2888 L42.9943,-34.7214 L50.0113,-29.8353 L54.8217,-18.5410 L34.2639,-31.5439 Z" fill="#757575" stroke="#333333" stroke-width="0.4" data-face-index="34" data-sides="6" data-orb-view="transition-2" data-projection="spherical" data-orb-base-face="16" data-orb-style="shaded" />
  <path d="M34.2639,31.5439 L54.8217,18.5410 L50.0113,29.8353 L42.9943,34.7214 L42.7147,40.2888 L33.8817,48.5410 L34.2639,31.5439 Z" fill="#757575" stroke="#333333" stroke-width="0.4" data-face-index="35" data-sides="6" data-orb-view="transition-2" data-projection="spherical" data-orb-base-face="17" data-orb-style="shaded" />
  <path d="M52.2406,-12.9212 L54.8217,-18.5410 L57.3078,-6.4606 L52.2406,-12.9212 Z" fill="#767676" stroke="#333333" stroke-width="0.4" data-face-index="36" data-sides="3" data-orb-view="transition-2" data-projection="spherical" data-orb-base-face="7" data-orb-style="shaded" />
  <path d="M54.8217,18.5410 L52.2406,12.9212 L57.3078,6.4606 L54.8217,18.5410 Z" fill="#767676" stroke="#333333" stroke-width="0.4" data-face-index="37" data-sides="3" data-orb-view="transition-2" data-projection="spherical" data-orb-base-face="7" data-orb-style="shaded" />
  <path d="M-48.4238,-30.0000 L-41.9454,-31.3605 L-49.2420,-20.9070 L-48.4238,-30.0000 Z" fill="#787878" stroke="#333333" stroke-width="0.4" data-face-index="38" data-sides="3" data-orb-view="transition-2" data-projection="spherical" data-orb-base-face="1" data-orb-style="shaded" />
  <path d="M-48.4238,30.0000 L-49.2420,20.9070 L-41.9454,31.3605 L-48.4238,30.0000 Z" fill="#787878" stroke="#333333" stroke-width="0.4" data-face-index="39" data-sides="3" data-orb-view="transition-2" data-projection="spherical" data-orb-base-face="2" data-orb-style="shaded" />
  <path d="M26.8531,-44.7214 L16.2647,-50.7423 L25.8415,-50.7423 L26.8531,-44.7214 Z" fill="#787878" stroke="#333333" stroke-width="0.4" data-face-index="40" data-sides="3" data-orb-view="transition-2" data-projection="spherical" data-orb-base-face="6" data-orb-style="shaded" />
  <path d="M25.8415,50.7423 L16.2647,50.7423 L26.8531,44.7214 L25.8415,50.7423 Z" fill="#787878" stroke="#333333" stroke-width="0.4" data-face-index="41" data-sides="3" data-orb-view="transition-2" data-projection="spherical" data-orb-base-face="8" data-orb-style="shaded" />
  <path d="M-59.0044,-0.0000 L-48.4238,-30.0000 L-49.2420,-20.9070 L-54.0858,-10.0000 L-47.8642,-10.4535 L-44.4697,-0.0000 L-59.0044,-0.0000 Z" fill="#797979" stroke="#333333" stroke-width="0.4" data-face-index="42" data-sides="6" data-orb-view="transition-2" data-projection="spherical" data-orb-base-face="1" data-orb-style="shaded" />
  <path d="M-59.0044,-0.0000 L-44.4697,-0.0000 L-47.8642,10.4535 L-54.0858,10.0000 L-49.2420,20.9070 L-48.4238,30.0000 L-59.0044,-0.0000 Z" fill="#797979" stroke="#333333" stroke-width="0.4" data-face-index="43" data-sides="6" data-orb-view="transition-2" data-projection="spherical" data-orb-base-face="2" data-orb-style="shaded" />
  <path d="M34.2639,-31.5439 L6.3979,-48.5410 L16.2647,-50.7423 L26.8531,-44.7214 L25.8415,-50.7423 L33.8817,-48.5410 L34.2639,-31.5439 Z" fill="#797979" stroke="#333333" stroke-width="0.4" data-face-index="44" data-sides="6" data-orb-view="transition-2" data-projection="spherical" data-orb-base-face="6" data-orb-style="shaded" />
  <path d="M6.3979,48.5410 L34.2639,31.5439 L33.8817,48.5410 L25.8415,50.7423 L26.8531,44.7214 L16.2647,50.7423 L6.3979,48.5410 Z" fill="#797979" stroke="#333333" stroke-width="0.4" data-face-index="45" data-sides="6" data-orb-view="transition-2" data-projection="spherical" data-orb-base-face="8" data-orb-style="shaded" />
  <path d="M47.1734,-6.4606 L52.2406,-12.9212 L57.3078,-6.4606 L57.3078,6.4606 L52.2406,12.9212 L47.1734,6.4606 L47.1734,-6.4606 Z" fill="#797979" stroke="#333333" stroke-width="0.4" data-face-index="46" data-sides="6" data-orb-view="transition-2" data-projection="spherical" data-orb-base-face="7" data-orb-style="shaded" />
  <path d="M-54.0858,-10.0000 L-49.2420,-20.9070 L-47.8642,-10.4535 L-54.0858,-10.0000 Z" fill="#7a7a7a" stroke="#333333" stroke-width="0.4" data-face-index="47" data-sides="3" data-orb-view="transition-2" data-projection="spherical" data-orb-base-face="1" data-orb-style="shaded" />
  <path d="M-54.0858,10.0000 L-47.8642,10.4535 L-49.2420,20.9070 L-54.0858,10.0000 Z" fill="#7a7a7a" stroke="#333333" stroke-width="0.4" data-face-index="48" data-sides="3" data-orb-view="transition-2" data-projection="spherical" data-orb-base-face="2" data-orb-style="shaded" />
  <path d="M6.3979,-48.5410 L4.4587,-54.7352 L16.2647,-50.7423 L6.3979,-48.5410 Z" fill="#7a7a7a" stroke="#333333" stroke-width="0.4" data-face-index="49" data-sides="3" data-orb-view="transition-2" data-projection="spherical" data-orb-base-face="6" data-orb-style="shaded" />
  <path d="M6.3979,48.5410 L16.2647,50.7423 L4.4587,54.7352 L6.3979,48.5410 Z" fill="#7a7a7a" stroke="#333333" stroke-width="0.4" data-face-index="50" data-sides="3" data-orb-view="transition-2" data-projection="spherical" data-orb-base-face="8" data-orb-style="shaded" />
  <path d="M-23.3791,51.0390 L-48.4238,30.0000 L-41.9454,31.3605 L-33.1458,40.0000 L-33.2711,31.3605 L-23.5297,30.0000 L-23.3791,51.0390 Z" fill="#7b7b7b" stroke="#333333" stroke-width="0.4" data-face-index="51" data-sides="6" data-orb-view="transition-2" data-projection="spherical" data-orb-base-face="2" data-orb-style="shaded" />
  <path d="M-23.3791,-51.0390 L-23.5297,-30.0000 L-33.2711,-31.3605 L-33.1458,-40.0000 L-41.9454,-31.3605 L-48.4238,-30.0000 L-23.3791,-51.0390 Z" fill="#7b7b7b" stroke="#333333" stroke-width="0.4" data-face-index="52" data-sides="6" data-orb-view="transition-2" data-projection="spherical" data-orb-base-face="1" data-orb-style="shaded" />
  <path d="M52.2406,-12.9212 L47.1734,-6.4606 L45.1270,-18.5410 L52.2406,-12.9212 Z" fill="#7c7c7c" stroke="#333333" stroke-width="0.4" data-face-index="53" data-sides="3" data-orb-view="transition-2" data-projection="spherical" data-orb-base-face="7" data-orb-style="shaded" />
  <path d="M45.1270,18.5410 L47.1734,6.4606 L52.2406,12.9212 L45.1270,18.5410 Z" fill="#7c7c7c" stroke="#333333" stroke-width="0.4" data-face-index="54" data-sides="3" data-orb-view="transition-2" data-projection="spherical" data-orb-base-face="7" data-orb-style="shaded" />
  <path d="M40.2796,-0.0000 L34.2639,-31.5439 L54.8217,-18.5410 L52.2406,-12.9212 L45.1270,-18.5410 L47.1734,-6.4606 L40.2796,-0.0000 Z" fill="#7c7c7c" stroke="#333333" stroke-width="0.4" data-face-index="55" data-sides="6" data-orb-view="transition-2" data-projection="spherical" data-orb-base-face="7" data-orb-style="shaded" />
  <path d="M34.2639,31.5439 L40.2796,-0.0000 L47.1734,6.4606 L45.1270,18.5410 L52.2406,12.9212 L54.8217,18.5410 L34.2639,31.5439 Z" fill="#7c7c7c" stroke="#333333" stroke-width="0.4" data-face-index="56" data-sides="6" data-orb-view="transition-2" data-projection="spherical" data-orb-base-face="7" data-orb-style="shaded" />
  <path d="M-33.1458,40.0000 L-41.9454,31.3605 L-33.2711,31.3605 L-33.1458,40.0000 Z" fill="#7c7c7c" stroke="#333333" stroke-width="0.4" data-face-index="57" data-sides="3" data-orb-view="transition-2" data-projection="spherical" data-orb-base-face="2" data-orb-style="shaded" />
  <path d="M-33.1458,-40.0000 L-33.2711,-31.3605 L-41.9454,-31.3605 L-33.1458,-40.0000 Z" fill="#7c7c7c" stroke="#333333" stroke-width="0.4" data-face-index="58" data-sides="3" data-orb-view="transition-2" data-projection="spherical" data-orb-base-face="1" data-orb-style="shaded" />
  <path d="M-31.8933,-20.9070 L-39.1898,-10.4535 L-47.8642,-10.4535 L-49.2420,-20.9070 L-41.9454,-31.3605 L-33.2711,-31.3605 L-31.8933,-20.9070 Z" fill="#7e7e7e" stroke="#333333" stroke-width="0.4" data-face-index="59" data-sides="6" data-orb-view="transition-2" data-projection="spherical" data-orb-base-face="1" data-orb-style="shaded" />
  <path d="M-39.1898,10.4535 L-31.8933,20.9070 L-33.2711,31.3605 L-41.9454,31.3605 L-49.2420,20.9070 L-47.8642,10.4535 L-39.1898,10.4535 Z" fill="#7e7e7e" stroke="#333333" stroke-width="0.4" data-face-index="60" data-sides="6" data-orb-view="transition-2" data-projection="spherical" data-orb-base-face="2" data-orb-style="shaded" />
  <path d="M-23.3791,-51.0390 L6.3979,-48.5410 L-3.7402,-44.2817 L-14.8719,-46.1803 L-14.1685,-37.8211 L-23.5297,-30.0000 L-23.3791,-51.0390 Z" fill="#7e7e7e" stroke="#333333" stroke-width="0.4" data-face-index="61" data-sides="6" data-orb-view="transition-2" data-projection="spherical" data-orb-base-face="0" data-orb-style="shaded" />
  <path d="M-23.3791,51.0390 L-23.5297,30.0000 L-14.1685,37.8211 L-14.8719,46.1803 L-3.7402,44.2817 L6.3979,48.5410 L-23.3791,51.0390 Z" fill="#7e7e7e" stroke="#333333" stroke-width="0.4" data-face-index="62" data-sides="6" data-orb-view="transition-2" data-projection="spherical" data-orb-base-face="3" data-orb-style="shaded" />
  <path d="M40.2796,-0.0000 L47.1734,-6.4606 L47.1734,6.4606 L40.2796,-0.0000 Z" fill="#7f7f7f" stroke="#333333" stroke-width="0.4" data-face-index="63" data-sides="3" data-orb-view="transition-2" data-projection="spherical" data-orb-base-face="7" data-orb-style="shaded" />
  <path d="M6.3979,-48.5410 L8.0658,-40.2888 L-3.7402,-44.2817 L6.3979,-48.5410 Z" fill="#808080" stroke="#333333" stroke-width="0.4" data-face-index="64" data-sides="3" data-orb-view="transition-2" data-projection="spherical" data-orb-base-face="0" data-orb-style="shaded" />
  <path d="M6.3979,48.5410 L-3.7402,44.2817 L8.0658,40.2888 L6.3979,48.5410 Z" fill="#808080" stroke="#333333" stroke-width="0.4" data-face-index="65" data-sides="3" data-orb-view="transition-2" data-projection="spherical" data-orb-base-face="3" data-orb-style="shaded" />
  <path d="M-39.1898,-10.4535 L-44.4697,-0.0000 L-47.8642,-10.4535 L-39.1898,-10.4535 Z" fill="#808080" stroke="#333333" stroke-width="0.4" data-face-index="66" data-sides="3" data-orb-view="transition-2" data-projection="spherical" data-orb-base-face="1" data-orb-style="shaded" />
  <path d="M-44.4697,-0.0000 L-39.1898,10.4535 L-47.8642,10.4535 L-44.4697,-0.0000 Z" fill="#808080" stroke="#333333" stroke-width="0.4" data-face-index="67" data-sides="3" data-orb-view="transition-2" data-projection="spherical" data-orb-base-face="2" data-orb-style="shaded" />
  <path d="M-14.8719,-46.1803 L-3.7402,-44.2817 L-14.1685,-37.8211 L-14.8719,-46.1803 Z" fill="#808080" stroke="#333333" stroke-width="0.4" data-face-index="68" data-sides="3" data-orb-view="transition-2" data-projection="spherical" data-orb-base-face="0" data-orb-style="shaded" />
  <path d="M-14.8719,46.1803 L-14.1685,37.8211 L-3.7402,44.2817 L-14.8719,46.1803 Z" fill="#808080" stroke="#333333" stroke-width="0.4" data-face-index="69" data-sides="3" data-orb-view="transition-2" data-projection="spherical" data-orb-base-face="3" data-orb-style="shaded" />
  <path d="M-23.5297,-30.0000 L-31.8933,-20.9070 L-33.2711,-31.3605 L-23.5297,-30.0000 Z" fill="#828282" stroke="#333333" stroke-width="0.4" data-face-index="70" data-sides="3" data-orb-view="transition-2" data-projection="spherical" data-orb-base-face="1" data-orb-style="shaded" />
  <path d="M-31.8933,20.9070 L-23.5297,30.0000 L-33.2711,31.3605 L-31.8933,20.9070 Z" fill="#828282" stroke="#333333" stroke-width="0.4" data-face-index="71" data-sides="3" data-orb-view="transition-2" data-projection="spherical" data-orb-base-face="2" data-orb-style="shaded" />
  <path d="M34.2639,-31.5439 L10.3520,-18.5410 L9.4437,-29.8353 L19.0098,-34.7214 L8.0658,-40.2888 L6.3979,-48.5410 L34.2639,-31.5439 Z" fill="#828282" stroke="#333333" stroke-width="0.4" data-face-index="72" data-sides="6" data-orb-view="transition-2" data-projection="spherical" data-orb-base-face="0" data-orb-style="shaded" />
  <path d="M34.2639,31.5439 L6.3979,48.5410 L8.0658,40.2888 L19.0098,34.7214 L9.4437,29.8353 L10.3520,18.5410 L34.2639,31.5439 Z" fill="#828282" stroke="#333333" stroke-width="0.4" data-face-index="73" data-sides="6" data-orb-view="transition-2" data-projection="spherical" data-orb-base-face="3" data-orb-style="shaded" />
  <path d="M19.0098,-34.7214 L9.4437,-29.8353 L8.0658,-40.2888 L19.0098,-34.7214 Z" fill="#838383" stroke="#333333" stroke-width="0.4" data-face-index="74" data-sides="3" data-orb-view="transition-2" data-projection="spherical" data-orb-base-face="0" data-orb-style="shaded" />
  <path d="M19.0098,34.7214 L8.0658,40.2888 L9.4437,29.8353 L19.0098,34.7214 Z" fill="#838383" stroke="#333333" stroke-width="0.4" data-face-index="75" data-sides="3" data-orb-view="transition-2" data-projection="spherical" data-orb-base-face="3" data-orb-style="shaded" />
  <path d="M-39.1898,-10.4535 L-31.8933,-20.9070 L-29.1917,-10.0000 L-39.1898,-10.4535 Z" fill="#848484" stroke="#333333" stroke-width="0.4" data-face-index="76" data-sides="3" data-orb-view="transition-2" data-projection="spherical" data-orb-base-face="1" data-orb-style="shaded" />
  <path d="M-31.8933,20.9070 L-39.1898,10.4535 L-29.1917,10.0000 L-31.8933,20.9070 Z" fill="#848484" stroke="#333333" stroke-width="0.4" data-face-index="77" data-sides="3" data-orb-view="transition-2" data-projection="spherical" data-orb-base-face="2" data-orb-style="shaded" />
  <path d="M-23.5297,30.0000 L-12.7907,27.3676 L-14.1685,37.8211 L-23.5297,30.0000 Z" fill="#848484" stroke="#333333" stroke-width="0.4" data-face-index="78" data-sides="3" data-orb-view="transition-2" data-projection="spherical" data-orb-base-face="3" data-orb-style="shaded" />
  <path d="M-12.7907,-27.3676 L-23.5297,-30.0000 L-14.1685,-37.8211 L-12.7907,-27.3676 Z" fill="#848484" stroke="#333333" stroke-width="0.4" data-face-index="79" data-sides="3" data-orb-view="transition-2" data-projection="spherical" data-orb-base-face="0" data-orb-style="shaded" />
  <path d="M-23.5297,-30.0000 L-16.6520,-0.0000 L-44.4697,-0.0000 L-39.1898,-10.4535 L-29.1917,-10.0000 L-31.8933,-20.9070 L-23.5297,-30.0000 Z" fill="#848484" stroke="#333333" stroke-width="0.4" data-face-index="80" data-sides="6" data-orb-view="transition-2" data-projection="spherical" data-orb-base-face="1" data-orb-style="shaded" />
  <path d="M-44.4697,-0.0000 L-16.6520,-0.0000 L-23.5297,30.0000 L-31.8933,20.9070 L-29.1917,10.0000 L-39.1898,10.4535 L-44.4697,-0.0000 Z" fill="#848484" stroke="#333333" stroke-width="0.4" data-face-index="81" data-sides="6" data-orb-view="transition-2" data-projection="spherical" data-orb-base-face="2" data-orb-style="shaded" />
  <path d="M-12.7907,27.3676 L-0.9846,23.3747 L9.4437,29.8353 L8.0658,40.2888 L-3.7402,44.2817 L-14.1685,37.8211 L-12.7907,27.3676 Z" fill="#848484" stroke="#333333" stroke-width="0.4" data-face-index="82" data-sides="6" data-orb-view="transition-2" data-projection="spherical" data-orb-base-face="3" data-orb-style="shaded" />
  <path d="M-0.9846,-23.3747 L-12.7907,-27.3676 L-14.1685,-37.8211 L-3.7402,-44.2817 L8.0658,-40.2888 L9.4437,-29.8353 L-0.9846,-23.3747 Z" fill="#848484" stroke="#333333" stroke-width="0.4" data-face-index="83" data-sides="6" data-orb-view="transition-2" data-projection="spherical" data-orb-base-face="0" data-orb-style="shaded" />
  <path d="M40.2796,0.0000 L31.6780,6.4606 L31.6780,-6.4606 L40.2796,0.0000 Z" fill="#848484" stroke="#333333" stroke-width="0.4" data-face-index="84" data-sides="3" data-orb-view="transition-2" data-projection="spherical" data-orb-base-face="4" data-orb-style="shaded" />
  <path d="M34.2639,31.5439 L10.3520,18.5410 L21.2497,12.9212 L30.3037,18.5410 L31.6780,6.4606 L40.2796,0.0000 L34.2639,31.5439 Z" fill="#848484" stroke="#333333" stroke-width="0.4" data-face-index="85" data-sides="6" data-orb-view="transition-2" data-projection="spherical" data-orb-base-face="4" data-orb-style="shaded" />
  <path d="M34.2639,-31.5439 L40.2796,0.0000 L31.6780,-6.4606 L30.3037,-18.5410 L21.2497,-12.9212 L10.3520,-18.5410 L34.2639,-31.5439 Z" fill="#848484" stroke="#333333" stroke-width="0.4" data-face-index="86" data-sides="6" data-orb-view="transition-2" data-projection="spherical" data-orb-base-face="4" data-orb-style="shaded" />
  <path d="M30.3037,18.5410 L21.2497,12.9212 L31.6780,6.4606 L30.3037,18.5410 Z" fill="#868686" stroke="#333333" stroke-width="0.4" data-face-index="87" data-sides="3" data-orb-view="transition-2" data-projection="spherical" data-orb-base-face="4" data-orb-style="shaded" />
  <path d="M30.3037,-18.5410 L31.6780,-6.4606 L21.2497,-12.9212 L30.3037,-18.5410 Z" fill="#868686" stroke="#333333" stroke-width="0.4" data-face-index="88" data-sides="3" data-orb-view="transition-2" data-projection="spherical" data-orb-base-face="4" data-orb-style="shaded" />
  <path d="M10.3520,-18.5410 L-16.6520,-0.0000 L-23.5297,-30.0000 L-12.7907,-27.3676 L-10.9177,-16.1803 L-0.9846,-23.3747 L10.3520,-18.5410 Z" fill="#878787" stroke="#333333" stroke-width="0.4" data-face-index="89" data-sides="6" data-orb-view="transition-2" data-projection="spherical" data-orb-base-face="0" data-orb-style="shaded" />
  <path d="M-23.5297,30.0000 L-16.6520,-0.0000 L10.3520,18.5410 L-0.9846,23.3747 L-10.9177,16.1803 L-12.7907,27.3676 L-23.5297,30.0000 Z" fill="#878787" stroke="#333333" stroke-width="0.4" data-face-index="90" data-sides="6" data-orb-view="transition-2" data-projection="spherical" data-orb-base-face="3" data-orb-style="shaded" />
  <path d="M10.3520,-18.5410 L-0.9846,-23.3747 L9.4437,-29.8353 L10.3520,-18.5410 Z" fill="#878787" stroke="#333333" stroke-width="0.4" data-face-index="91" data-sides="3" data-orb-view="transition-2" data-projection="spherical" data-orb-base-face="0" data-orb-style="shaded" />
  <path d="M-0.9846,23.3747 L10.3520,18.5410 L9.4437,29.8353 L-0.9846,23.3747 Z" fill="#878787" stroke="#333333" stroke-width="0.4" data-face-index="92" data-sides="3" data-orb-view="transition-2" data-projection="spherical" data-orb-base-face="3" data-orb-style="shaded" />
  <path d="M10.8215,6.4606 L10.8215,-6.4606 L21.2497,-12.9212 L31.6780,-6.4606 L31.6780,6.4606 L21.2497,12.9212 L10.8215,6.4606 Z" fill="#878787" stroke="#333333" stroke-width="0.4" data-face-index="93" data-sides="6" data-orb-view="transition-2" data-projection="spherical" data-orb-base-face="4" data-orb-style="shaded" />
  <path d="M-12.7907,-27.3676 L-0.9846,-23.3747 L-10.9177,-16.1803 L-12.7907,-27.3676 Z" fill="#878787" stroke="#333333" stroke-width="0.4" data-face-index="94" data-sides="3" data-orb-view="transition-2" data-projection="spherical" data-orb-base-face="0" data-orb-style="shaded" />
  <path d="M-0.9846,23.3747 L-12.7907,27.3676 L-10.9177,16.1803 L-0.9846,23.3747 Z" fill="#878787" stroke="#333333" stroke-width="0.4" data-face-index="95" data-sides="3" data-orb-view="transition-2" data-projection="spherical" data-orb-base-face="3" data-orb-style="shaded" />
  <path d="M10.3520,18.5410 L10.8215,6.4606 L21.2497,12.9212 L10.3520,18.5410 Z" fill="#888888" stroke="#333333" stroke-width="0.4" data-face-index="96" data-sides="3" data-orb-view="transition-2" data-projection="spherical" data-orb-base-face="4" data-orb-style="shaded" />
  <path d="M10.8215,-6.4606 L10.3520,-18.5410 L21.2497,-12.9212 L10.8215,-6.4606 Z" fill="#888888" stroke="#333333" stroke-width="0.4" data-face-index="97" data-sides="3" data-orb-view="transition-2" data-projection="spherical" data-orb-base-face="4" data-orb-style="shaded" />
  <path d="M10.3520,18.5410 L-16.6520,-0.0000 L10.3520,-18.5410 L10.8215,-6.4606 L0.3762,-0.0000 L10.8215,6.4606 L10.3520,18.5410 Z" fill="#898989" stroke="#333333" stroke-width="0.4" data-face-index="98" data-sides="6" data-orb-view="transition-2" data-projection="spherical" data-orb-base-face="4" data-orb-style="shaded" />
  <path d="M10.8215,-6.4606 L10.8215,6.4606 L0.3762,-0.0000 L10.8215,-6.4606 Z" fill="#8a8a8a" stroke="#333333" stroke-width="0.4" data-face-index="99" data-sides="3" data-orb-view="transition-2" data-projection="spherical" data-orb-base-face="4" data-orb-style="shaded" />
  </g>
</svg>